<svg xmlns="http://www.w3.org/2000/svg" viewBox="0 0 973.45 855.55"><g id="acf3387d-eade-4b88-a6d6-4beef6c10ac2" data-name="Layer 2"><g id="be73a3f6-12a5-496b-8a76-837db1c50b2f" data-name="Layer 1"><g opacity="0.6"><rect x="153.34" y="43.13" width="705.39" height="675.79" rx="22" fill="#cdddf1"/><rect x="169.55" y="58.67" width="672.96" height="644.72" rx="12" fill="#fff"/><path d="M842.51,146.93l-54,38.3L644,58.67H630.78l3.91,3.43L475.86,151a4.9,4.9,0,0,0-1.15,7.67l103,107.61-94,58.45L308.11,142.9,446.05,58.67H429.31l-127.42,77.8-75.14-77.8H214.61l261.73,271L369,406.06,169.55,191v12.83l88.09,95L169.55,338v9.56l94.36-42L364,413.54v55L169.55,584.25v10.16L367.37,476.7,413.63,533V703.39h8.72V531.62a4.93,4.93,0,0,0-1.12-3.12l-48.51-59V414.08L485,334.18l.28-.22h0l57-35.42,95.21,96.39a4.88,4.88,0,0,0,6.33.56l104.41-73.79,58.32,59.83L572.05,542.46a4.9,4.9,0,0,0-.66,7.56L728.24,703.39h12.48L580.81,547l126.71-86.94,135,130V577.94L714.87,455l97.87-67.16,29.77,30.54v-12.5L699.4,259.1,842.51,157.62ZM742.07,315.38,641.44,386.51l-91.56-92.68,106.6-66.26Zm-48.84-62.61-32.65-33.49a4.92,4.92,0,0,0-6.1-.74l-69.19,43L484.43,156.17l157.23-88L781.17,190.42Z" fill="#cdddf1"/><path d="M402.9,412.64l128.35-86.06a7.1,7.1,0,0,1,9,.91l99.09,100.65a7.09,7.09,0,0,1-1.3,11L490,531.43a7.08,7.08,0,0,1-9.44-1.79L401.15,422.76A7.1,7.1,0,0,1,402.9,412.64Z" fill="#cdddf1"/><path d="M211.9,637.22,342.25,556a8.18,8.18,0,0,1,10.56,1.65l41.8,49.21a8.18,8.18,0,0,1,1.93,5.74l-5,90.78H203.7l4.36-59.82A8.18,8.18,0,0,1,211.9,637.22Z" fill="#e8887e"/><g opacity="0.39"><path d="M622.4,549.27l78.4-58.9a7.1,7.1,0,0,1,9.27.65L784,564.66a7.1,7.1,0,0,1-.83,10.76L705.22,632.1a7.09,7.09,0,0,1-9.08-.61l-74.39-71.43A7.09,7.09,0,0,1,622.4,549.27Z" fill="#cdddf1"/></g><path d="M731.13,643.8l47.42-38.47a7.07,7.07,0,0,1,9.78.82l32.31,36.65a7.09,7.09,0,0,1-1.19,10.45l-48,34.42a7.09,7.09,0,0,1-9.21-.82l-31.69-32.6A7.09,7.09,0,0,1,731.13,643.8Z" fill="#e8887e"/><path d="M679.64,394.06l59.52-39.79a7.09,7.09,0,0,1,9.13,1.07l20.17,21.72A7.09,7.09,0,0,1,766.91,388L704,425.63a7.11,7.11,0,0,1-9-1.47l-16.8-19.59A7.09,7.09,0,0,1,679.64,394.06Z" fill="#e8887e"/><path d="M591.75,293l57.77-38.32a7.09,7.09,0,0,1,9.43,1.45l43.33,53.54a7.09,7.09,0,0,1-1.12,10l-48.58,38.35a7.1,7.1,0,0,1-9.46-.61l-52.51-53.56A7.09,7.09,0,0,1,591.75,293Z" fill="#f16f5c"/><g opacity="0.39"><path d="M302.06,191.21l-53.27,42.45a8.19,8.19,0,0,1-10.93-.66l-68.31-69.37v-93a12,12,0,0,1,12-12h7L203.8,72.8,303,179.23A8.19,8.19,0,0,1,302.06,191.21Z" fill="#cdddf1"/></g><path d="M266.39,249.65l53.18-41.41a7.09,7.09,0,0,1,9.58.8L431.5,320.7a7.09,7.09,0,0,1-1.06,10.54L376.23,370.5a7.08,7.08,0,0,1-9.36-.92L265.54,260.06A7.09,7.09,0,0,1,266.39,249.65Z" fill="#f16f5c"/><g opacity="0.39"><path d="M372.86,176.84l84,89.17a7.1,7.1,0,0,0,9.51.75l41.19-31.9a7.1,7.1,0,0,0,.89-10.39l-74.65-81.76a7.09,7.09,0,0,0-8.33-1.6l-50.57,24.48A7.1,7.1,0,0,0,372.86,176.84Z" fill="#cdddf1"/></g><g opacity="0.39"><path d="M442.82,90.51l29.92,35.69a8.17,8.17,0,0,0,10.7,1.61l107-69.14H475L444.64,78.4A8.16,8.16,0,0,0,442.82,90.51Z" fill="#cdddf1"/></g><path d="M256,58.67,299.89,101a8.17,8.17,0,0,0,10.07,1L378.1,58.67Z" fill="#cdddf1"/><path d="M531,151.13l102.61-48.51a7.09,7.09,0,0,1,7.76,1.13l84.79,76a7.09,7.09,0,0,1-.62,11.05l-34.08,24.29a7.08,7.08,0,0,1-8.72-.39l-26.4-22.57a7.09,7.09,0,0,0-8.06-.81L589.64,224a7.08,7.08,0,0,1-8.81-1.55l-52.21-60.26A7.09,7.09,0,0,1,531,151.13Z" fill="#cdddf1"/><path d="M842.51,70.66v39.76l-49.72,31.14a8.19,8.19,0,0,1-9.42-.53L679.54,58.67h151A12,12,0,0,1,842.51,70.66Z" fill="#f16f5c"/><g opacity="0.39"><path d="M842.51,192.07V376.24l-98-102.89A8.18,8.18,0,0,1,745.63,261Z" fill="#cdddf1"/></g><path d="M339.14,461,191,542.5a8.18,8.18,0,0,1-11.1-3.2l-10.31-18.63v-150l81-37.56a8.18,8.18,0,0,1,10.09,2.65L341.85,449A8.17,8.17,0,0,1,339.14,461Z" fill="#cdddf1"/></g><path d="M499.32,0c-51.09,0-16.38,63.69-3.94,84.11a4.51,4.51,0,0,0,7.74-.08C515,63.53,548,0,499.32,0Zm-.62,40.33a11.46,11.46,0,1,1,11.46-11.45A11.45,11.45,0,0,1,498.7,40.33Z" fill="#e8887e"/><path d="M802.93,201.57c-51.09,0-16.38,63.69-3.94,84.1a4.5,4.5,0,0,0,7.74-.08C818.65,265.09,851.64,201.57,802.93,201.57Zm-.61,40.33a11.46,11.46,0,1,1,11.45-11.46A11.46,11.46,0,0,1,802.32,241.9Z" fill="#e8887e"/><path d="M191.51,187.75c-51.09,0-16.38,63.69-3.94,84.11a4.51,4.51,0,0,0,7.74-.08C207.23,251.28,240.22,187.75,191.51,187.75Zm-.61,40.33a11.46,11.46,0,1,1,11.45-11.45A11.46,11.46,0,0,1,190.9,228.08Z" fill="#e8887e"/><path d="M300.79,537.69l10-9.83a1.37,1.37,0,0,0,.36-1.34L284,419.64a1.42,1.42,0,0,0-1.68-1.06h0a1.36,1.36,0,0,0-1,1.68l26.69,105.32a1.36,1.36,0,0,1-.36,1.33l-8.85,8.73a1.43,1.43,0,0,0,0,2h0A1.37,1.37,0,0,0,300.79,537.69Z" fill="#51759f"/><path d="M220,604.53,177.88,616a5.17,5.17,0,0,1-6.37-3.67l-24.39-93.18a5.15,5.15,0,0,1,3.73-6.28L193.77,502a5.11,5.11,0,0,0-2.16,5.58L216,600.78A5.18,5.18,0,0,0,220,604.53Z" fill="#f69782"/><path d="M319.44,577.42,220,604.53a5.18,5.18,0,0,1-4-3.75l-24.38-93.19a5.11,5.11,0,0,1,2.16-5.58l101.78-25.86a5.16,5.16,0,0,1,6.31,3.83l21.25,91.33A5.14,5.14,0,0,1,319.44,577.42Z" fill="#ffd38e"/><path d="M213.19,518.17l8.56,28.56a1.94,1.94,0,0,0,2.5,1.27l20.51-7.14a1.93,1.93,0,0,0,1.22-2.34l-7.81-27.79a2,2,0,0,0-2.43-1.33l-21.26,6.38A1.91,1.91,0,0,0,213.19,518.17Z" fill="#f69782"/><path d="M271.41,570.17l27.17-9.06a2,2,0,0,1,2.5,1.36l1.63,6.48a1.92,1.92,0,0,1-1.32,2.31l-27.49,8.29a1.94,1.94,0,0,1-2.46-1.42l-1.3-5.7A1.93,1.93,0,0,1,271.41,570.17Z" fill="#f69782"/><rect x="170.71" y="550.65" width="15.27" height="20.72" rx="6" transform="translate(-133.02 61.42) rotate(-14.3)" fill="#2d4d9d"/><path d="M133.81,444.68v7.67a2.18,2.18,0,0,0,2.49,2.16l8.36-1.2a2.17,2.17,0,0,0,1.87-2.16v-6.47a2.18,2.18,0,0,0-2.18-2.18H136A2.18,2.18,0,0,0,133.81,444.68Z" fill="#51759f"/><path d="M283.71,410.5l3.18,7a2.19,2.19,0,0,1-1.37,3l-8.11,2.38a2.2,2.2,0,0,1-2.6-1.19l-2.68-5.89a2.18,2.18,0,0,1,1.08-2.89l7.61-3.47A2.19,2.19,0,0,1,283.71,410.5Z" fill="#51759f"/><path d="M179.57,564.3l-13.42-4a1.41,1.41,0,0,1-.94-1l-26-107.15a1.42,1.42,0,0,1,1-1.72h0a1.37,1.37,0,0,1,1.66,1L167.47,557a1.41,1.41,0,0,0,.94,1l11.92,3.57a1.44,1.44,0,0,1,.93,1.76h0A1.35,1.35,0,0,1,179.57,564.3Z" fill="#51759f"/><path d="M236.28,382.91a13.13,13.13,0,0,0-12-3.52l-27.79,6.49v0l-.44.07-27.79,6.49a13.15,13.15,0,0,0-9.21,8.48l-12.14,32.83,57.18-13.36.44-.1,1.56-.37,55.62-13Z" fill="#92b2dd"/><path d="M174.79,426l2.31,9.87a2.79,2.79,0,0,1-2.08,3.35l-49.85,11.65a2.83,2.83,0,0,1-2.47-.61L83.37,416.12a2.82,2.82,0,0,0-2.46-.61l-1.44.34a2.79,2.79,0,0,1-3.35-2.08l-.24-1A2.79,2.79,0,0,1,78,409.39l21.77-5.09a2.79,2.79,0,0,1,3.35,2.08l.46,1.95a2.79,2.79,0,0,1-2.08,3.35h0a2.79,2.79,0,0,0-1.25,4.77l19.85,18.32a2.79,2.79,0,0,0,2.53.67l48.85-11.5A2.79,2.79,0,0,1,174.79,426Z" fill="#2d4d9d"/><path d="M232.84,412.46l2.31,9.87a2.79,2.79,0,0,0,3.35,2.08l49.85-11.65a2.8,2.8,0,0,0,1.94-1.63l20.13-48.05a2.81,2.81,0,0,1,1.94-1.64l1.43-.33a2.79,2.79,0,0,0,2.08-3.35l-.24-1a2.79,2.79,0,0,0-3.35-2.08l-21.78,5.09a2.79,2.79,0,0,0-2.08,3.35l.46,2a2.79,2.79,0,0,0,3.35,2.08h0a2.79,2.79,0,0,1,3.24,3.71l-9.68,25.23a2.79,2.79,0,0,1-2,1.71l-48.89,11.34A2.79,2.79,0,0,0,232.84,412.46Z" fill="#2d4d9d"/><path d="M204.09,420.42l-29,6.78,1.82,7.79,4.55,3.86a7.88,7.88,0,0,0,6.9,1.67L207.73,436l19.39-4.53a7.87,7.87,0,0,0,5.45-4.55l2.37-5.49-1.82-7.78Z" fill="#2d4d9d"/><path d="M211.52,423.06a6.63,6.63,0,1,1-8-4.95A6.63,6.63,0,0,1,211.52,423.06Z" fill="#92b2dd"/><path d="M209.63,423.5A4.69,4.69,0,1,1,204,420,4.69,4.69,0,0,1,209.63,423.5Z" fill="#fff"/><path d="M243.41,403.77l-81.13,19a4.42,4.42,0,0,1-5.14-5.88l1.59-4.15L159,412l3.44-9,.27-.71.68-1.78a4.46,4.46,0,0,1,3.13-2.73L228,383.39a4.42,4.42,0,0,1,3.92,1l1.55,1.36.58.51,7.4,6.49.58.51,3.32,2.91A4.41,4.41,0,0,1,243.41,403.77Z" fill="#23375c"/><g opacity="0.36"><path d="M242,393.24l-.58-.51-14,3.27-6.53-6.69L234,386.24l-.58-.51-13.09,3-2.89-2.94-.71.17,2.88,2.94-13.28,3.11c-.67-1.12-1.3-2.18-1.91-3.18l-.64.15c.6,1,1.23,2.05,1.9,3.18L189.41,396c.1-1.3.2-2.53.29-3.68l-.64.15c-.1,1.16-.2,2.4-.3,3.68l-13.29,3.11c.46-1.4.89-2.72,1.29-3.92l-.72.17-1.29,3.92-12,2.81-.27.71,12.09-2.82c-.91,2.76-1.89,5.8-2.9,8.89L159,412l-.27.72,12.68-3c-1.29,4-2.6,8-3.79,11.75l.72-.17,3.78-11.74,15.95-3.73c-.24,3.75-.48,7.54-.68,11l.64-.15c.22-3.71.46-7.45.69-11l21.88-5.11c1.79,3.1,3.66,6.35,5.5,9.57l.64-.15c-1.73-3-3.61-6.32-5.49-9.57l15.94-3.73,8.61,8.85.71-.16-8.6-8.86Zm-53.88,11.94-15.77,3.68c1-3.12,2-6.16,2.89-8.89l13.47-3.15C188.51,399.47,188.31,402.3,188.12,405.18Zm.65-.15c.19-2.95.39-5.78.59-8.36L206,392.78c1.32,2.22,2.75,4.67,4.24,7.23Zm22.14-5.17c-1.44-2.5-2.88-5-4.23-7.24l13.47-3.14,6.53,6.69Z" fill="#92b2dd"/></g><path d="M189.45,410.65a.78.78,0,0,1-.85-.36c-.07-.11-1.79-2.73-6.79-1.57s-5.27,4.33-5.27,4.36A.79.79,0,0,1,175,413c0-.18.31-4.37,6.49-5.81s8.41,2.13,8.5,2.29a.78.78,0,0,1-.27,1.08A.92.92,0,0,1,189.45,410.65Z" fill="#92b2dd"/><path d="M174.65,404.07a4.69,4.69,0,0,1,3.47-3.48.47.47,0,0,0-.22-.92,5.62,5.62,0,0,0-4.16,4.12c-.14.59.76.87.91.28Z" fill="#92b2dd"/><path d="M226.41,402a.78.78,0,0,1-.86-.38c-.07-.12-1.7-2.74-6.66-1.58s-5.38,4.29-5.39,4.42a.8.8,0,0,1-.86.71.78.78,0,0,1-.71-.85c0-.18.43-4.37,6.6-5.82s8.31,2.19,8.39,2.34a.79.79,0,0,1-.3,1.08Z" fill="#92b2dd"/><path d="M223.94,392.06a5.63,5.63,0,0,0-5.56-1.84.47.47,0,0,0,.22.92,4.67,4.67,0,0,1,4.65,1.57c.39.47,1.08-.18.69-.65Z" fill="#92b2dd"/><path d="M83.46,391.21h0a3.48,3.48,0,0,0-2.59,4.17l3,12.64,6.76-1.58-3-12.64A3.48,3.48,0,0,0,83.46,391.21Z" fill="#92b2dd"/><path d="M297.78,341.14h0a3.47,3.47,0,0,0-2.59,4.17L298.14,358l6.77-1.58-3-12.64A3.46,3.46,0,0,0,297.78,341.14Z" fill="#92b2dd"/><path d="M135.17,377.67c-14.12,2.28-32.72,6.08-52.38,10.67s-38,9.43-51.68,13.64c-21.47,6.6-21,8.4-20.91,9s.55,2.39,22.73-1.21c14.12-2.28,32.72-6.07,52.38-10.66s38-9.44,51.68-13.65c21.47-6.6,21-8.4,20.91-9S157.35,374.07,135.17,377.67Zm1.63,7.18c-13.66,4.2-32,9-51.64,13.63s-38.22,8.37-52.33,10.66c-21,3.4-22,1.87-22,1.69s.16-2,20.49-8.25c13.66-4.2,32-9,51.64-13.63s38.22-8.37,52.33-10.66c21-3.4,22-1.87,22-1.68S157.13,378.6,136.8,384.85Z" fill="#92b2dd"/><path d="M135.27,378.29c-14.11,2.29-32.7,6.07-52.33,10.66s-38,9.43-51.64,13.63c-20.33,6.25-20.53,8.06-20.49,8.25s1,1.71,22-1.69c14.11-2.29,32.7-6.07,52.33-10.66s38-9.43,51.64-13.63c20.33-6.25,20.53-8.06,20.49-8.24S156.26,374.89,135.27,378.29Zm-15,8.42c-9.52,2.52-22.22,5.65-35.78,8.82s-26.33,6-36,7.94c-15.26,3.09-15.38,2.6-15.48,2.17s-.21-.92,14.84-4.92c9.52-2.52,22.22-5.65,35.78-8.82s26.33-6,36-7.94c15.26-3.09,15.38-2.6,15.48-2.17S135.3,382.71,120.25,386.71Z" fill="#cdddf1"/><path d="M119.61,384c-9.65,2-22.43,4.78-36,7.94s-26.26,6.3-35.78,8.82c-15.05,4-14.94,4.49-14.84,4.92s.22.92,15.48-2.17c9.65-2,22.43-4.78,36-7.94s26.26-6.3,35.78-8.82c15.05-4,14.94-4.49,14.84-4.92S134.87,380.87,119.61,384Zm-35.28,11c-27,6.32-45.81,10.08-50,10.42,3.91-1.55,22.42-6.5,49.44-12.81s45.8-10.08,50-10.42C129.86,383.65,111.35,388.6,84.33,394.91Z" fill="#92b2dd"/><path d="M133.77,382.1c-3.91,1.55-22.42,6.5-49.44,12.81s-45.81,10.08-50,10.42c3.91-1.55,22.42-6.5,49.44-12.81S129.57,382.44,133.77,382.1Z" fill="#cdddf1"/><path d="M103.55,400.83a.32.32,0,0,1-.38-.23.31.31,0,0,1,.23-.38,464.19,464.19,0,0,0,44.89-13.78.32.32,0,0,1,.41.19.31.31,0,0,1-.19.4,462.59,462.59,0,0,1-44.95,13.8Z" fill="#92b2dd"/><path d="M154.25,373.11h-.05c-4.67.2-10.34.73-16.86,1.56a.31.31,0,1,1-.08-.62c6.54-.84,12.23-1.37,16.91-1.57a.32.32,0,0,1,.33.3A.31.31,0,0,1,154.25,373.11Z" fill="#92b2dd"/><path d="M97,381.73h0c-9.56,2-19.55,4.35-29,6.77a.32.32,0,1,1-.16-.61c9.51-2.42,19.51-4.75,29.08-6.77a.31.31,0,0,1,.37.24A.32.32,0,0,1,97,381.73Z" fill="#92b2dd"/><path d="M50.78,412.38h0c-11.54,2-49.3,8.16-50.73,2-1.08-4.62,19.8-12.21,32.35-16.33a.32.32,0,0,1,.4.2.33.33,0,0,1-.2.4C8.23,406.67.12,412,.65,414.25c.71,3,16.44,3.4,50-2.49A.31.31,0,0,1,51,412,.31.31,0,0,1,50.78,412.38Z" fill="#92b2dd"/><path d="M222.12,361.46c.13.59.55,2.39,22.73-1.2,14.12-2.29,32.72-6.08,52.38-10.67s38-9.44,51.68-13.64c21.47-6.61,21-8.4,20.91-9s-.55-2.39-22.73,1.2c-14.12,2.29-32.72,6.08-52.38,10.67s-38,9.43-51.68,13.64C221.56,359.07,222,360.87,222.12,361.46Zm.61-.14c0-.19.16-2,20.49-8.25,13.66-4.2,32-9,51.64-13.63s38.22-8.37,52.33-10.66c21-3.4,22-1.87,22-1.68s-.16,2-20.49,8.25c-13.66,4.2-32,9-51.64,13.62s-38.22,8.38-52.33,10.66C223.76,363,222.77,361.5,222.73,361.32Z" fill="#92b2dd"/><path d="M222.73,361.32c0,.18,1,1.71,22-1.69,14.11-2.28,32.7-6.07,52.33-10.66s38-9.42,51.64-13.62c20.33-6.26,20.53-8.07,20.49-8.25s-1-1.72-22,1.68c-14.11,2.29-32.7,6.08-52.33,10.66s-38,9.43-51.64,13.63C222.89,359.32,222.69,361.13,222.73,361.32Zm22.2-5.19c-.1-.43-.21-.92,14.84-4.91,9.52-2.52,22.22-5.66,35.78-8.82s26.33-6,36-7.95c15.26-3.09,15.38-2.6,15.48-2.16s.21.92-14.84,4.91c-9.52,2.52-22.22,5.65-35.78,8.82s-26.33,6-36,7.94C245.15,357.05,245,356.56,244.93,356.13Z" fill="#cdddf1"/><path d="M244.93,356.13c.1.43.22.92,15.48-2.17,9.65-1.95,22.43-4.77,36-7.94s26.26-6.3,35.78-8.82c15.05-4,14.94-4.48,14.84-4.91s-.22-.93-15.48,2.16c-9.65,2-22.43,4.78-36,7.95s-26.26,6.3-35.78,8.82C244.72,355.21,244.83,355.7,244.93,356.13Zm1.32-.3c3.91-1.56,22.42-6.51,49.44-12.82s45.8-10.08,50-10.42c-3.92,1.56-22.43,6.5-49.45,12.82S250.45,355.48,246.25,355.83Z" fill="#92b2dd"/><path d="M246.25,355.83c4.2-.35,23-4.11,50-10.42s45.53-11.26,49.45-12.82c-4.21.34-23,4.11-50,10.42S250.16,354.27,246.25,355.83Z" fill="#cdddf1"/><path d="M281.64,359.23a.33.33,0,0,0,.24-.38.32.32,0,0,0-.38-.24,462.63,462.63,0,0,1-46.34,7.54.32.32,0,0,0-.29.35.32.32,0,0,0,.35.28,464,464,0,0,0,46.41-7.55Z" fill="#92b2dd"/><path d="M223.9,356.84l.06,0c4.27-1.88,9.58-3.93,15.8-6.07a.31.31,0,0,0,.2-.4.32.32,0,0,0-.4-.19c-6.24,2.14-11.57,4.19-15.86,6.09a.31.31,0,0,0-.16.41A.32.32,0,0,0,223.9,356.84Z" fill="#92b2dd"/><path d="M279.08,339.19h0c9.47-2.43,19.46-4.77,29-6.8a.33.33,0,0,0,.25-.38.32.32,0,0,0-.38-.24c-9.59,2-19.59,4.38-29.06,6.81a.31.31,0,0,0-.23.38A.31.31,0,0,0,279.08,339.19Z" fill="#92b2dd"/><path d="M334.06,346.2h0c11.24-3.3,47.8-14.53,46.37-20.67-1.08-4.61-23.17-2.17-36.24-.31a.32.32,0,0,0,.09.63c25.38-3.63,35-2.47,35.53-.18.7,3-13.23,10.33-45.93,19.92a.32.32,0,0,0,.16.61Z" fill="#92b2dd"/><path d="M741.67,461.52,734,454a1.06,1.06,0,0,1-.28-1l20.88-82.37a1.08,1.08,0,0,1,1.29-.81h0a1.05,1.05,0,0,1,.76,1.29l-20.57,81.16a1.08,1.08,0,0,0,.27,1l6.83,6.72a1.11,1.11,0,0,1,0,1.53h0A1,1,0,0,1,741.67,461.52Z" fill="#51759f"/><path d="M803.9,513l32.48,8.86a4,4,0,0,0,4.91-2.82l18.79-71.81a4,4,0,0,0-2.87-4.83L824.14,434a4,4,0,0,1,1.66,4.31L807,510.14A4,4,0,0,1,803.9,513Z" fill="#ffd38e"/><path d="M727.3,492.13,803.9,513a4,4,0,0,0,3.11-2.89l18.79-71.81a4,4,0,0,0-1.66-4.31L745.71,414.1a4,4,0,0,0-4.87,2.95l-16.37,70.37A4,4,0,0,0,727.3,492.13Z" fill="#f69782"/><path d="M809.18,446.48l-6.61,22a1.49,1.49,0,0,1-1.92,1L784.85,464a1.48,1.48,0,0,1-1-1.8l6-21.41a1.5,1.5,0,0,1,1.88-1l16.37,4.91A1.48,1.48,0,0,1,809.18,446.48Z" fill="#d65f48"/><path d="M764.31,486.55l-20.94-7a1.49,1.49,0,0,0-1.92,1.05l-1.26,5a1.48,1.48,0,0,0,1,1.78l21.18,6.39a1.49,1.49,0,0,0,1.89-1.09l1-4.4A1.5,1.5,0,0,0,764.31,486.55Z" fill="#d65f48"/><path d="M834.05,487.23h0a5.89,5.89,0,0,0,7.16-4.25l1-4.07a5.88,5.88,0,0,0-4.25-7.15h0a5.88,5.88,0,0,0-7.16,4.24l-1,4.08A5.87,5.87,0,0,0,834.05,487.23Z" fill="#2d4d9d"/><path d="M870.34,389.85v5.91a1.67,1.67,0,0,1-1.92,1.66L862,396.5a1.68,1.68,0,0,1-1.44-1.66v-5a1.68,1.68,0,0,1,1.68-1.68h6.44A1.68,1.68,0,0,1,870.34,389.85Z" fill="#51759f"/><path d="M754.83,363.51l-2.45,5.38a1.69,1.69,0,0,0,1.06,2.31l6.25,1.83a1.67,1.67,0,0,0,2-.91l2.07-4.54a1.69,1.69,0,0,0-.84-2.23l-5.86-2.67A1.69,1.69,0,0,0,754.83,363.51Z" fill="#51759f"/><path d="M835.08,482l10.34-3.11a1.07,1.07,0,0,0,.73-.78l20.05-82.56a1.1,1.1,0,0,0-.76-1.33h0a1.06,1.06,0,0,0-1.28.79L844.4,476.4a1.09,1.09,0,0,1-.72.78l-9.18,2.75a1.1,1.1,0,0,0-.72,1.35h0A1,1,0,0,0,835.08,482Z" fill="#51759f"/><path d="M791.38,342.25a10.09,10.09,0,0,1,9.25-2.71l21.42,5v0l.34.06,21.42,5a10.12,10.12,0,0,1,7.09,6.53l9.36,25.3-44.07-10.3-.33-.07-1.21-.29-42.86-10Z" fill="#92b2dd"/><path d="M838.76,375.47,837,383.08a2.15,2.15,0,0,0,1.61,2.58l38.41,9a2.12,2.12,0,0,0,1.9-.47l30.31-26.32a2.18,2.18,0,0,1,1.9-.47l1.1.26a2.15,2.15,0,0,0,2.58-1.6l.19-.79a2.15,2.15,0,0,0-1.61-2.58l-16.78-3.92a2.14,2.14,0,0,0-2.58,1.6l-.35,1.5a2.15,2.15,0,0,0,1.6,2.58h0a2.15,2.15,0,0,1,1,3.67l-15.3,14.13a2.18,2.18,0,0,1-2,.51l-37.65-8.86A2.15,2.15,0,0,0,838.76,375.47Z" fill="#2d4d9d"/><path d="M794,365l-1.78,7.61a2.15,2.15,0,0,1-2.58,1.6l-38.42-9a2.16,2.16,0,0,1-1.49-1.27l-15.51-37a2.15,2.15,0,0,0-1.49-1.26l-1.11-.26a2.15,2.15,0,0,1-1.6-2.58l.18-.79a2.14,2.14,0,0,1,2.58-1.6l16.79,3.92a2.15,2.15,0,0,1,1.6,2.58l-.35,1.5a2.15,2.15,0,0,1-2.58,1.6h0a2.15,2.15,0,0,0-2.49,2.86l7.46,19.44a2.11,2.11,0,0,0,1.52,1.32l37.67,8.74A2.15,2.15,0,0,1,794,365Z" fill="#2d4d9d"/><path d="M816.18,371.15l22.37,5.23-1.4,6-3.51,3a6.07,6.07,0,0,1-5.32,1.29l-14.94-3.49-14.94-3.49a6.08,6.08,0,0,1-4.2-3.52l-1.83-4.22,1.41-6Z" fill="#2d4d9d"/><path d="M810.46,373.19a5.11,5.11,0,1,0,6.14-3.81A5.11,5.11,0,0,0,810.46,373.19Z" fill="#92b2dd"/><path d="M811.92,373.53a3.61,3.61,0,1,0,4.34-2.7A3.61,3.61,0,0,0,811.92,373.53Z" fill="#fff"/><path d="M785.89,358.33l62.52,14.6a3.4,3.4,0,0,0,4-4.53l-1.22-3.2-.21-.54-2.65-7-.21-.55-.52-1.37a3.44,3.44,0,0,0-2.41-2.1l-47.35-11.06a3.39,3.39,0,0,0-3,.76l-1.2,1-.45.4-5.7,5-.45.39-2.55,2.24A3.4,3.4,0,0,0,785.89,358.33Z" fill="#23375c"/><g opacity="0.36"><path d="M797.83,352.75l-6.63,6.82.55.13,6.63-6.82,12.29,2.87c-1.45,2.5-2.9,5-4.24,7.38l.5.11c1.42-2.48,2.86-5,4.24-7.37L828,359.8c.18,2.76.36,5.64.53,8.5l.5.11c-.16-2.68-.34-5.6-.53-8.49l12.29,2.87c1,3,2,6.13,2.92,9l.55.13-2.92-9.05,9.77,2.28-.21-.54-9.74-2.28c-.77-2.39-1.53-4.72-2.22-6.85l9.31,2.17-.21-.55L838.79,355c-.35-1.08-.68-2.09-1-3l-.55-.13c.3.92.63,1.94,1,3L828,352.46c-.08-1-.15-1.94-.23-2.84l-.5-.11c.07.89.15,1.84.23,2.84L815,349.41l1.46-2.44-.5-.12-1.46,2.45-10.24-2.39,2.22-2.27-.55-.13c-.69.7-1.44,1.46-2.22,2.27l-10.09-2.36-.45.4,10.14,2.36-5,5.16-10.8-2.52-.45.39ZM828,353l10.37,2.43c.69,2.1,1.45,4.44,2.23,6.85l-12.15-2.84C828.34,357.19,828.19,355,828,353Zm-16.61,2.46c1.14-2,2.24-3.86,3.26-5.58l12.85,3c.15,2,.3,4.16.45,6.44Zm-12.65-3,5-5.16,10.38,2.43c-1,1.75-2.15,3.65-3.26,5.57Z" fill="#92b2dd"/></g><path d="M827.46,363.63a.61.61,0,0,0,.66-.28c0-.08,1.38-2.11,5.23-1.21s4.06,3.34,4.06,3.36a.61.61,0,0,0,1.22-.06c0-.14-.23-3.37-5-4.48s-6.48,1.64-6.55,1.76a.62.62,0,0,0,.21.84Z" fill="#92b2dd"/><path d="M838.87,358.55a3.6,3.6,0,0,0-2.67-2.67.36.36,0,0,1,.16-.71,4.32,4.32,0,0,1,3.21,3.17c.11.45-.58.67-.7.21Z" fill="#92b2dd"/><path d="M799,357a.62.62,0,0,0,.67-.29c.06-.1,1.31-2.12,5.13-1.22s4.14,3.3,4.15,3.4a.62.62,0,0,0,.67.55.61.61,0,0,0,.55-.65c0-.14-.34-3.38-5.09-4.49s-6.4,1.69-6.47,1.8a.61.61,0,0,0,.23.83Z" fill="#92b2dd"/><path d="M800.89,349.3a4.33,4.33,0,0,1,4.28-1.42.37.37,0,0,1-.17.71,3.61,3.61,0,0,0-3.58,1.21c-.3.36-.83-.14-.53-.5Z" fill="#92b2dd"/><path d="M909.14,348.65h0a2.66,2.66,0,0,1,2,3.21l-2.27,9.74-5.21-1.22,2.27-9.74A2.67,2.67,0,0,1,909.14,348.65Z" fill="#92b2dd"/><path d="M744,310.06h0a2.67,2.67,0,0,1,2,3.22L743.71,323l-5.21-1.22,2.27-9.74A2.69,2.69,0,0,1,744,310.06Z" fill="#92b2dd"/><path d="M851.77,337.28c-.1.46-.42,1.84,16.12,6.93,10.54,3.24,24.68,7,39.83,10.52s29.47,6.45,40.36,8.21c17.09,2.77,17.41,1.39,17.51.93s.43-1.84-16.11-6.93c-10.54-3.24-24.68-7-39.83-10.51s-29.47-6.46-40.36-8.22C852.2,335.44,851.88,336.83,851.77,337.28Zm.48.11c0-.14.79-1.32,17,1.3,10.87,1.76,25.19,4.68,40.32,8.22s29.27,7.26,39.79,10.5c15.67,4.81,15.82,6.21,15.79,6.35s-.79,1.32-17-1.29c-10.87-1.77-25.19-4.68-40.32-8.22S878.56,347,868,343.75C852.37,338.93,852.22,337.54,852.25,337.39Z" fill="#92b2dd"/><path d="M852.25,337.39c0,.15.12,1.54,15.79,6.36,10.52,3.23,24.66,7,39.79,10.5s29.45,6.45,40.32,8.22c16.18,2.61,16.94,1.44,17,1.29s-.12-1.54-15.79-6.35c-10.52-3.24-24.66-7-39.79-10.5s-29.45-6.46-40.32-8.22C853,336.07,852.28,337.25,852.25,337.39Zm17.11,4c.07-.33.16-.71,11.92,1.67,7.44,1.51,17.29,3.68,27.73,6.12s20.24,4.86,27.57,6.8c11.6,3.08,11.51,3.45,11.43,3.79s-.16.71-11.92-1.68c-7.44-1.5-17.29-3.68-27.73-6.12s-20.24-4.85-27.57-6.79C869.19,342.1,869.28,341.72,869.36,341.39Z" fill="#cdddf1"/><path d="M869.36,341.39c-.08.33-.17.71,11.43,3.79,7.33,1.94,17.13,4.35,27.57,6.79s20.29,4.62,27.73,6.12c11.76,2.39,11.85,2,11.92,1.68s.17-.71-11.43-3.79c-7.33-1.94-17.13-4.36-27.57-6.8s-20.29-4.61-27.73-6.12C869.52,340.68,869.43,341.06,869.36,341.39Zm1,.24c3.24.26,17.71,3.16,38.53,8s35.08,8.68,38.1,9.88c-3.23-.26-17.71-3.17-38.53-8S873.39,342.82,870.37,341.63Z" fill="#92b2dd"/><path d="M870.37,341.63c3,1.19,17.28,5,38.1,9.87s35.3,7.77,38.53,8c-3-1.2-17.28-5-38.1-9.88S873.61,341.89,870.37,341.63Z" fill="#cdddf1"/><path d="M893.66,356.06a.24.24,0,0,0,.29-.17.25.25,0,0,0-.18-.3A355.12,355.12,0,0,1,859.18,345a.25.25,0,0,0-.31.15.24.24,0,0,0,.14.31,358.23,358.23,0,0,0,34.64,10.63Z" fill="#92b2dd"/><path d="M854.59,334.7h0c3.59.15,8,.56,13,1.2a.24.24,0,1,0,.06-.48c-5-.65-9.42-1.05-13-1.21a.25.25,0,0,0-.25.23A.24.24,0,0,0,854.59,334.7Z" fill="#92b2dd"/><path d="M898.73,341.34h0c7.37,1.55,15.07,3.35,22.39,5.21a.24.24,0,0,0,.29-.17.24.24,0,0,0-.17-.3c-7.33-1.87-15-3.66-22.41-5.22a.24.24,0,1,0-.1.47Z" fill="#92b2dd"/><path d="M934.32,365h0c8.89,1.56,38,6.28,39.09,1.55.83-3.55-15.26-9.4-24.93-12.58a.24.24,0,0,0-.15.46c18.77,6.17,25,10.25,24.61,12-.54,2.32-12.67,2.62-38.53-1.92a.26.26,0,0,0-.29.2A.25.25,0,0,0,934.32,365Z" fill="#92b2dd"/><path d="M786.18,318.79c-10.54-3.24-24.68-7-39.83-10.51s-29.47-6.46-40.36-8.22c-17.09-2.77-17.41-1.38-17.52-.93s-.43,1.84,16.12,6.93c10.54,3.24,24.68,7,39.83,10.52s29.47,6.45,40.35,8.21c17.09,2.77,17.42,1.39,17.52.93S802.72,323.88,786.18,318.79Zm-1.33,5.53c-10.87-1.77-25.19-4.68-40.32-8.22s-29.27-7.26-39.79-10.5c-15.67-4.82-15.83-6.21-15.79-6.36s.79-1.32,17,1.3c10.87,1.76,25.19,4.68,40.32,8.22S775.51,316,786,319.26c15.66,4.82,15.82,6.21,15.79,6.35S801,326.93,784.85,324.32Z" fill="#92b2dd"/><path d="M786,319.26c-10.52-3.24-24.66-7-39.79-10.5s-29.45-6.46-40.32-8.22c-16.18-2.62-16.94-1.44-17-1.3s.12,1.54,15.79,6.36c10.52,3.24,24.65,7,39.79,10.5s29.45,6.45,40.32,8.22c16.18,2.61,16.94,1.44,17,1.29S801.69,324.08,786,319.26Zm-13.24.68c-7.44-1.5-17.29-3.68-27.73-6.12S724.82,309,717.49,307c-11.6-3.08-11.51-3.46-11.43-3.79s.16-.71,11.92,1.67c7.44,1.51,17.29,3.68,27.73,6.12s20.24,4.86,27.57,6.8c11.6,3.08,11.51,3.45,11.43,3.79S784.55,322.33,772.79,319.94Z" fill="#cdddf1"/><path d="M773.28,317.83c-7.33-1.94-17.13-4.36-27.57-6.8s-20.29-4.61-27.73-6.12c-11.76-2.38-11.85-2-11.92-1.67s-.17.71,11.43,3.79c7.33,1.94,17.12,4.36,27.57,6.79s20.29,4.62,27.73,6.12c11.76,2.39,11.84,2,11.92,1.68S784.88,320.91,773.28,317.83Zm-28.11-4.48c-20.82-4.86-35.08-8.67-38.1-9.87,3.23.26,17.71,3.16,38.53,8s35.08,8.67,38.1,9.87C780.46,321.12,766,318.22,745.17,313.35Z" fill="#92b2dd"/><path d="M783.7,321.38c-3.24-.26-17.71-3.16-38.53-8s-35.08-8.67-38.1-9.87c3.23.26,17.71,3.16,38.53,8S780.68,320.18,783.7,321.38Z" fill="#cdddf1"/><path d="M756.43,324a.25.25,0,0,1-.19-.28.24.24,0,0,1,.29-.19,359.06,359.06,0,0,0,35.72,5.81.23.23,0,0,1,.21.26.24.24,0,0,1-.26.22A356.76,356.76,0,0,1,756.43,324Z" fill="#92b2dd"/><path d="M800.92,322.16h0c-3.28-1.45-7.38-3-12.18-4.68a.25.25,0,0,1-.15-.31.26.26,0,0,1,.31-.15c4.81,1.66,8.92,3.23,12.22,4.69a.25.25,0,0,1,.12.33A.23.23,0,0,1,800.92,322.16Z" fill="#92b2dd"/><path d="M758.4,308.56h0c-7.3-1.87-15-3.67-22.38-5.24a.25.25,0,0,1-.19-.29.26.26,0,0,1,.29-.19c7.39,1.58,15.1,3.38,22.4,5.25a.24.24,0,0,1,.17.3A.24.24,0,0,1,758.4,308.56Z" fill="#92b2dd"/><path d="M716,314h0c-8.66-2.54-36.84-11.2-35.73-15.93.83-3.55,17.85-1.67,27.92-.23a.24.24,0,1,1-.07.48c-19.56-2.79-27-1.9-27.38-.14-.54,2.32,10.2,8,35.4,15.35a.25.25,0,0,1,.16.31A.24.24,0,0,1,716,314Z" fill="#92b2dd"/><path d="M456.83,734.45v77.91a4.19,4.19,0,0,1-4,4.37H372.38a4.2,4.2,0,0,1-4-4.37V734.45a4.21,4.21,0,0,1,4-4.37h80.44A4.2,4.2,0,0,1,456.83,734.45Z" fill="#f69782"/><path d="M488.16,734.45v77.92a4.2,4.2,0,0,1-4,4.36H403.71a4.2,4.2,0,0,1-4-4.36V734.45a4.21,4.21,0,0,1,4-4.37h80.43A4.21,4.21,0,0,1,488.16,734.45Z" fill="#ffd38e"/><path d="M463.75,730.08V767.7a.89.89,0,0,1-.85.92h-9.45a.89.89,0,0,1-.85-.92V730.08Z" fill="#f69782"/><rect x="409.64" y="743.11" width="21.87" height="10.88" rx="3" fill="#f69782"/><rect x="459.69" y="786.63" width="23.75" height="10.02" rx="3" transform="translate(1263.21 320.08) rotate(90)" fill="#f69782"/><rect x="408.51" y="779.69" width="35.28" height="28.54" rx="3" fill="#f69782"/><rect x="410.61" y="781.8" width="31.08" height="24.32" rx="3" fill="#fff"/><rect x="375.58" y="789.47" width="8.86" height="11.3" rx="3" transform="translate(1175.13 415.12) rotate(90)" fill="#d65f48"/><rect x="375.58" y="775.09" width="8.86" height="11.3" rx="3" transform="translate(1160.75 400.74) rotate(90)" fill="#d65f48"/><path d="M389.71,730.08v22.86a1,1,0,0,1-1,1h-6.18a1,1,0,0,1-1-1V730.08Z" fill="#d65f48"/><rect x="189.8" y="692.47" width="138.19" height="124.64" rx="6.28" fill="#f69782"/><rect x="238.73" y="692.47" width="138.19" height="124.64" rx="6.28" fill="#ffd38e"/><path d="M288.76,692.47v54.1a1.32,1.32,0,0,1-1.32,1.33H272.67a1.32,1.32,0,0,1-1.32-1.33v-54.1Z" fill="#f69782"/><rect x="327.11" y="719.02" width="34.16" height="15.65" rx="3" fill="#f69782"/><rect x="306.17" y="754.78" width="55.1" height="41.05" rx="3" fill="#f69782"/><rect x="309.45" y="757.81" width="48.54" height="34.99" rx="3" fill="#fff"/><rect x="248.65" y="780.08" width="18.95" height="8.82" rx="3" fill="#f69782"/><rect x="248.65" y="796.55" width="18.95" height="8.82" rx="3" fill="#f69782"/><rect x="194.25" y="771.82" width="25.48" height="15.65" rx="3" transform="translate(986.64 572.66) rotate(90)" fill="#d65f48"/><rect x="695.51" y="692.47" width="138.19" height="124.64" rx="6.28" fill="#ffd38e"/><rect x="646.58" y="692.47" width="138.19" height="124.64" rx="6.28" fill="#f69782"/><path d="M734.75,692.47v54.1a1.32,1.32,0,0,0,1.32,1.33h14.76a1.33,1.33,0,0,0,1.33-1.33v-54.1Z" fill="#d65f48"/><rect x="662.23" y="719.02" width="34.16" height="15.65" rx="3" transform="translate(1358.63 1453.69) rotate(180)" fill="#d65f48"/><rect x="662.23" y="754.78" width="55.1" height="41.05" rx="3" transform="translate(1379.57 1550.61) rotate(180)" fill="#d65f48"/><rect x="665.51" y="757.81" width="48.54" height="34.99" rx="3" fill="#fff"/><rect x="755.9" y="780.08" width="18.95" height="8.82" rx="3" transform="translate(1530.76 1568.97) rotate(180)" fill="#d65f48"/><rect x="755.9" y="796.55" width="18.95" height="8.82" rx="3" transform="translate(1530.76 1601.92) rotate(180)" fill="#f69782"/><rect x="803.77" y="771.82" width="25.48" height="15.65" rx="3" transform="translate(1596.16 -36.87) rotate(90)" fill="#f69782"/><path d="M598.67,729.63s-3.46-13.8,4.58-31.15,36.53-17.76,37.36-10.12-19.21,25-28.5,32S598.67,729.63,598.67,729.63Z" fill="#f16f5c"/><path d="M606.25,750.25s-5.79-11.39,7.92-27.4,23-22.3,26.47-12.39S616.08,741.52,606.25,750.25Z" fill="#e8887e"/><path d="M595.66,734.7s-35.8-8.75-26.92-32.91S595.66,734.7,595.66,734.7Z" fill="#e8887e"/><path d="M594.67,757.57c-.53-.93,2.16-9.73-8.17-20.05s-27.68-4.75-31,0,11.56,11,22.92,12.73S594.67,757.57,594.67,757.57Z" fill="#f16f5c"/><path d="M611.35,757.57s-2.55-5.8,10.47-14.27,34.69-7.23,31.39,0S627.12,757.68,611.35,757.57Z" fill="#f16f5c"/><path d="M632.17,747.1a70.62,70.62,0,0,0-15,5.54c-5.36,2.91-12.21,12.65-14.83,16.58A143.94,143.94,0,0,1,609,744.9c5.13-13.78,17.1-23.14,17.22-23.23l-.51-.66c-.12.1-12.27,9.6-17.48,23.6-1.52,4.08-2.74,8-3.72,11.56a36.87,36.87,0,0,0-7.28-19.49c.6-2,5.86-19,12-26.93a44.26,44.26,0,0,1,15.26-12.27l-.33-.75a45.13,45.13,0,0,0-15.59,12.51c-5.82,7.52-10.83,23-11.95,26.64A251.57,251.57,0,0,0,579.14,716l-.59.58A246.18,246.18,0,0,1,596.41,737a35.48,35.48,0,0,1,7.3,22.07c-1.2,4.78-1.91,8.55-2.24,10.49-2-4.78-9.15-20.62-16.07-25.16-8-5.25-13.77-5-14-5l0,.82c.06,0,5.76-.19,13.52,4.9s16.23,25.92,16.32,26.13l.58,1.44.2-1.45c.69-1.09,9.33-14.49,15.54-17.85a69.7,69.7,0,0,1,14.77-5.47Z" fill="#294a71"/><path d="M614.81,771.08H577.46a5.37,5.37,0,0,0-5.25,6.49l7.89,36.87a5.37,5.37,0,0,0,5.25,4.25h39.93a5.37,5.37,0,0,0,5.25-4.25l7.88-36.87a5.36,5.36,0,0,0-5.25-6.49Z" fill="#d65f48"/><path d="M871.1,826.87H120.24a4.89,4.89,0,0,1-4.88-4.88h0a4.89,4.89,0,0,1,4.88-4.89H871.1A4.89,4.89,0,0,1,876,822h0A4.89,4.89,0,0,1,871.1,826.87Z" fill="#cdddf1"/><path d="M515.68,855.55H218.07a4.89,4.89,0,0,1-4.88-4.88h0a4.89,4.89,0,0,1,4.88-4.89H515.68a4.89,4.89,0,0,1,4.89,4.89h0A4.89,4.89,0,0,1,515.68,855.55Z" fill="#cdddf1"/><path d="M726.19,855.55H573.49a4.89,4.89,0,0,1-4.89-4.88h0a4.89,4.89,0,0,1,4.89-4.89h152.7a4.88,4.88,0,0,1,4.88,4.89h0A4.88,4.88,0,0,1,726.19,855.55Z" fill="#cdddf1"/><path d="M579,180.45c-4.43-6.7-11.4-10.65-18.82-10.65h-49.3v.06a6.81,6.81,0,0,0-.76-.06h-49.3c-7.42,0-14.39,3.95-18.82,10.65l-33.32,50.44H612.36Z" fill="#92b2dd"/><path d="M368.22,266.52l-27.53,249A10.37,10.37,0,0,0,351,527h19V513.37h-8a10.37,10.37,0,0,1-10.3-11.52L378.1,266.52Z" fill="#92b2dd"/><path d="M637.13,266.31l27.22,249.22A10.37,10.37,0,0,1,654.05,527h-19V513.37h8a10.36,10.36,0,0,0,10.3-11.52L626.69,266.72Z" fill="#92b2dd"/><path d="M359.51,246.35l-.86,13.73c-.35,5.73,3.4,10.62,8.16,10.62h14.38c4.18,0,7.69-3.8,8.14-8.82l1.39-15.53Z" fill="#51759f"/><path d="M645.54,246.35l.85,13.73c.35,5.73-3.4,10.62-8.16,10.62H623.85c-4.18,0-7.68-3.8-8.13-8.82l-1.4-15.53Z" fill="#51759f"/><rect x="377.69" y="447.16" width="249.5" height="210.23" rx="18" fill="#ffd38e"/><path d="M452.89,447.16h29.45a0,0,0,0,1,0,0v59.48a10,10,0,0,1-10,10h-9.45a10,10,0,0,1-10-10V447.16A0,0,0,0,1,452.89,447.16Z" fill="#f69782"/><rect x="396.72" y="569.55" width="42.54" height="42.54" rx="5" fill="#f69782"/><rect x="523.25" y="562.46" width="77.17" height="77.17" rx="6" fill="#f69782"/><rect x="530.34" y="569.55" width="62.99" height="62.99" rx="6" fill="#fdfeff"/><path d="M506.07,577.73H457a4.09,4.09,0,0,1-4.09-4.09h0a4.09,4.09,0,0,1,4.09-4.09h49.09a4.09,4.09,0,0,1,4.09,4.09h0A4.09,4.09,0,0,1,506.07,577.73Z" fill="#f69782"/><rect x="452.89" y="590.81" width="29.45" height="8.18" rx="4.09" fill="#f69782"/><path d="M458.67,228.8v17.51a4.81,4.81,0,0,1-4.81,4.81H365.42a4.83,4.83,0,0,1-3.9-2l-52.74-72.91a4.83,4.83,0,0,0-3.9-2h-2.54a4.82,4.82,0,0,1-4.82-4.82v-1.82a4.81,4.81,0,0,1,4.82-4.81H341a4.81,4.81,0,0,1,4.81,4.81v3.46a4.81,4.81,0,0,1-4.81,4.82h0a4.82,4.82,0,0,0-4,7.51L363.16,222a4.83,4.83,0,0,0,4,2.12l86.69-.14A4.81,4.81,0,0,1,458.67,228.8Z" fill="#2d4d9d"/><path d="M561.64,228.8v17.51a4.81,4.81,0,0,0,4.82,4.81h88.43a4.8,4.8,0,0,0,3.9-2l52.75-72.91a4.8,4.8,0,0,1,3.9-2H718a4.81,4.81,0,0,0,4.81-4.82v-1.82a4.81,4.81,0,0,0-4.81-4.81H679.35a4.81,4.81,0,0,0-4.82,4.81v3.46a4.82,4.82,0,0,0,4.82,4.82h0a4.81,4.81,0,0,1,4,7.51L657.15,222a4.81,4.81,0,0,1-4,2.12L566.47,224A4.81,4.81,0,0,0,561.64,228.8Z" fill="#2d4d9d"/><path d="M510.16,230.89H458.67V244.7L464.8,253a13.63,13.63,0,0,0,11,5.53h68.79a13.63,13.63,0,0,0,11-5.53l6.13-8.29V230.89Z" fill="#2d4d9d"/><circle cx="510.16" cy="238.25" r="11.45" transform="translate(161.07 680.02) rotate(-76.72)" fill="#92b2dd"/><circle cx="510.16" cy="238.25" r="8.1" transform="translate(161.07 680.02) rotate(-76.72)" fill="#fff"/><path d="M582.83,218.34H438.91a7.63,7.63,0,0,1-6.33-11.91l4.3-6.36.74-1.09L447,185.16l.74-1.1,1.83-2.72a7.64,7.64,0,0,1,6.33-3.36h109a7.64,7.64,0,0,1,6.21,3.19l2.07,2.89.78,1.1,9.9,13.82.78,1.09,4.44,6.19A7.63,7.63,0,0,1,582.83,218.34Z" fill="#23375c"/><g opacity="0.36"><path d="M584.6,200.07l-.78-1.09H559c-2.9-4.81-5.75-9.53-8.36-13.82h23.33l-.78-1.1H549.93l-3.7-6.08H545l3.7,6.08H525.09c-.68-2.12-1.33-4.16-2-6.08H522c.61,1.9,1.26,3.94,1.94,6.08H495c.68-2.14,1.34-4.18,1.95-6.08h-1.15c-.62,1.92-1.28,4-1.95,6.08H470.33L474,178h-1.28l-3.7,6.08H447.7l-.74,1.1h21.43c-2.6,4.29-5.46,9-8.36,13.82H437.62l-.74,1.09h22.49c-3.73,6.19-7.52,12.5-11,18.27h1.28c3.54-5.9,7.32-12.19,11-18.27h28.29c-1.89,6.21-3.77,12.49-5.49,18.27h1.15c1.82-6.15,3.69-12.35,5.49-18.27h38.8c1.81,5.92,3.67,12.12,5.5,18.27h1.14c-1.72-5.78-3.6-12.06-5.49-18.27h28.29c3.67,6.08,7.44,12.37,11,18.27h1.27c-3.47-5.77-7.26-12.08-11-18.27ZM489.27,199h-28c2.93-4.86,5.78-9.58,8.35-13.82h23.89C492.17,189.52,490.73,194.21,489.27,199Zm1.15,0c1.49-4.89,2.94-9.56,4.28-13.82h29.58c1.34,4.26,2.79,8.93,4.28,13.82Zm39.29,0c-1.45-4.77-2.9-9.46-4.28-13.82h23.89L557.68,199Z" fill="#92b2dd"/></g><path d="M489.37,208.71a1.37,1.37,0,0,1-1.3-1c-.07-.2-1.93-5.3-10.79-5.3s-10.57,5.21-10.59,5.27a1.37,1.37,0,0,1-2.62-.77c.09-.29,2.23-7.23,13.21-7.23s13.29,6.9,13.39,7.2a1.37,1.37,0,0,1-.88,1.71A1.23,1.23,0,0,1,489.37,208.71Z" fill="#92b2dd"/><path d="M467.05,191.81a8.07,8.07,0,0,1,7.2-4.47.82.82,0,0,0,0-1.64,9.69,9.69,0,0,0-8.61,5.29c-.48.93.93,1.76,1.41.82Z" fill="#92b2dd"/><path d="M554.93,208.71a1.37,1.37,0,0,1-1.31-1c-.07-.24-1.77-5.28-10.58-5.28s-10.73,5.1-10.8,5.32a1.36,1.36,0,0,1-1.72.85,1.35,1.35,0,0,1-.87-1.7c.09-.3,2.44-7.2,13.39-7.2s13.11,6.94,13.2,7.23a1.36,1.36,0,0,1-.93,1.69A1.26,1.26,0,0,1,554.93,208.71Z" fill="#92b2dd"/><path d="M554.68,191a9.71,9.71,0,0,0-8.62-5.29.82.82,0,0,0,0,1.64,8,8,0,0,1,7.2,4.47c.48.94,1.9.11,1.42-.82Z" fill="#92b2dd"/><path d="M377.69,540.37h0a9.33,9.33,0,0,1-9.33-9.33V507.16a9.32,9.32,0,0,1,9.33-9.33h0Z" fill="#2d4d9d"/><path d="M627.36,540.37h0a9.33,9.33,0,0,0,9.32-9.33V507.16a9.32,9.32,0,0,0-9.32-9.33h0Z" fill="#2d4d9d"/><path d="M318.73,134.35h0a6,6,0,0,0-6,6v22.43h12V140.35A6,6,0,0,0,318.73,134.35Z" fill="#92b2dd"/><path d="M698.9,134.35h0a6,6,0,0,0-6,6v22.43h12V140.35A6,6,0,0,0,698.9,134.35Z" fill="#92b2dd"/><path d="M411,131.89c-24.65-1.7-57.43-2.63-92.29-2.63s-67.64.93-92.29,2.63c-38.72,2.68-38.72,5.86-38.72,6.91s0,4.24,38.72,6.91c24.65,1.7,57.43,2.64,92.29,2.64s67.64-.94,92.29-2.64c38.71-2.67,38.71-5.86,38.71-6.91S449.73,134.57,411,131.89Zm-.08,12.73c-24.63,1.7-57.38,2.64-92.21,2.64s-67.58-.94-92.21-2.64c-36.65-2.53-37.7-5.49-37.7-5.82s1.05-3.29,37.7-5.82c24.63-1.7,57.38-2.63,92.21-2.63s67.58.93,92.21,2.63c36.65,2.53,37.7,5.49,37.7,5.82S447.59,142.09,410.94,144.62Z" fill="#92b2dd"/><path d="M410.94,133c-24.63-1.7-57.38-2.63-92.21-2.63s-67.58.93-92.21,2.63c-36.65,2.53-37.7,5.49-37.7,5.82s1.05,3.29,37.7,5.82c24.63,1.7,57.38,2.64,92.21,2.64s67.58-.94,92.21-2.64c36.65-2.53,37.7-5.49,37.7-5.82S447.59,135.51,410.94,133Zm-28.56,8.26c-17,.5-39.61.78-63.65.78s-46.65-.28-63.65-.78c-26.88-.81-26.88-1.67-26.88-2.44s0-1.63,26.88-2.43c17-.51,39.61-.78,63.65-.78s46.65.27,63.65.78c26.88.8,26.88,1.66,26.88,2.43S409.26,140.43,382.38,141.24Z" fill="#cdddf1"/><path d="M382.38,136.37c-17-.51-39.61-.78-63.65-.78s-46.65.27-63.65.78c-26.88.8-26.88,1.66-26.88,2.43s0,1.63,26.88,2.44c17,.5,39.61.78,63.65.78s46.65-.28,63.65-.78c26.88-.81,26.88-1.67,26.88-2.44S409.26,137.17,382.38,136.37Zm-63.65,4.56c-47.93,0-81-1.05-88.2-2.13,7.19-1.08,40.27-2.12,88.2-2.12s81,1,88.2,2.12C399.73,139.88,366.66,140.93,318.73,140.93Z" fill="#92b2dd"/><path d="M406.93,138.8c-7.2,1.08-40.27,2.13-88.2,2.13s-81-1.05-88.2-2.13c7.19-1.08,40.27-2.12,88.2-2.12S399.73,137.72,406.93,138.8Z" fill="#cdddf1"/><path d="M348.74,158.43a.55.55,0,0,1,0-1.09c31-.75,59.72-2.71,80.92-5.53a.56.56,0,0,1,.62.47.57.57,0,0,1-.47.62c-21.25,2.81-50,4.78-81,5.53Z" fill="#92b2dd"/><path d="M444.91,131.73h-.1c-7.92-1.49-17.66-2.84-29-4a.55.55,0,0,1-.49-.6.56.56,0,0,1,.6-.49c11.34,1.16,21.11,2.51,29.06,4a.55.55,0,0,1,.44.64A.55.55,0,0,1,444.91,131.73Z" fill="#92b2dd"/><path d="M345.18,123.72h0c-16.87-.36-34.59-.37-51.52,0a.55.55,0,0,1-.55-.54.53.53,0,0,1,.53-.55c16.94-.35,34.68-.34,51.57,0a.55.55,0,0,1,0,1.09Z" fill="#92b2dd"/><path d="M255.44,157.12h0c-20.2-1.13-86.11-5.65-86.11-16.55,0-8.18,38.11-12.75,60.82-14.75a.55.55,0,0,1,.1,1.09c-44.12,3.88-59.83,9.6-59.83,13.66,0,5.33,26.31,12.18,85.08,15.46a.56.56,0,0,1,.52.58A.55.55,0,0,1,255.44,157.12Z" fill="#92b2dd"/><path d="M563.64,138.8c0,1,0,4.24,38.71,6.91,24.66,1.7,57.43,2.64,92.29,2.64s67.64-.94,92.29-2.64c38.72-2.67,38.72-5.86,38.72-6.91s0-4.23-38.72-6.91c-24.65-1.7-57.43-2.63-92.29-2.63s-67.63.93-92.29,2.63C563.64,134.57,563.64,137.75,563.64,138.8Zm1.09,0c0-.33,1.06-3.29,37.7-5.82,24.63-1.7,57.38-2.63,92.21-2.63s67.59.93,92.22,2.63c36.64,2.53,37.7,5.49,37.7,5.82s-1.06,3.29-37.7,5.82c-24.63,1.7-57.38,2.64-92.22,2.64s-67.58-.94-92.21-2.64C565.79,142.09,564.73,139.13,564.73,138.8Z" fill="#92b2dd"/><path d="M564.73,138.8c0,.33,1.06,3.29,37.7,5.82,24.63,1.7,57.38,2.64,92.21,2.64s67.59-.94,92.22-2.64c36.64-2.53,37.7-5.49,37.7-5.82s-1.06-3.29-37.7-5.82c-24.63-1.7-57.38-2.63-92.22-2.63s-67.58.93-92.21,2.63C565.79,135.51,564.73,138.47,564.73,138.8Zm39.38,0c0-.77,0-1.63,26.89-2.43,17-.51,39.6-.78,63.64-.78s46.65.27,63.65.78c26.89.8,26.89,1.66,26.89,2.43s0,1.63-26.89,2.44c-17,.5-39.61.78-63.65.78s-46.64-.28-63.64-.78C604.11,140.43,604.11,139.57,604.11,138.8Z" fill="#cdddf1"/><path d="M604.11,138.8c0,.77,0,1.63,26.89,2.44,17,.5,39.6.78,63.64.78s46.65-.28,63.65-.78c26.89-.81,26.89-1.67,26.89-2.44s0-1.63-26.89-2.43c-17-.51-39.61-.78-63.65-.78s-46.64.27-63.64.78C604.11,137.17,604.11,138,604.11,138.8Zm2.33,0c7.2-1.08,40.27-2.12,88.2-2.12s81,1,88.21,2.12c-7.2,1.08-40.27,2.13-88.21,2.13S613.64,139.88,606.44,138.8Z" fill="#92b2dd"/><path d="M606.44,138.8c7.2,1.08,40.27,2.13,88.2,2.13s81-1.05,88.21-2.13c-7.2-1.08-40.27-2.12-88.21-2.12S613.64,137.72,606.44,138.8Z" fill="#cdddf1"/><path d="M664.64,158.43a.54.54,0,0,0,.54-.53.55.55,0,0,0-.53-.56c-31-.75-59.72-2.71-80.92-5.53a.55.55,0,0,0-.14,1.09c21.24,2.81,50,4.78,81,5.53Z" fill="#92b2dd"/><path d="M568.46,131.73h.1c7.92-1.49,17.67-2.84,29-4a.55.55,0,0,0,.49-.6.55.55,0,0,0-.6-.49c-11.33,1.16-21.11,2.51-29.06,4a.55.55,0,0,0-.44.64A.55.55,0,0,0,568.46,131.73Z" fill="#92b2dd"/><path d="M668.2,123.72h0c16.87-.36,34.59-.37,51.52,0a.56.56,0,0,0,.56-.54.55.55,0,0,0-.54-.55c-16.94-.35-34.68-.34-51.56,0a.56.56,0,0,0-.54.56A.54.54,0,0,0,668.2,123.72Z" fill="#92b2dd"/><path d="M757.93,157.12h0c20.2-1.13,86.12-5.65,86.12-16.55,0-8.18-38.11-12.75-60.83-14.75a.55.55,0,0,0-.59.5.55.55,0,0,0,.5.59c44.11,3.88,59.83,9.6,59.83,13.66,0,5.33-26.31,12.18-85.09,15.46a.55.55,0,0,0-.51.58A.53.53,0,0,0,757.93,157.12Z" fill="#92b2dd"/><path d="M493,304.78s.15,11.51,1.56,14.66,7.13,6.29,7.13,6.29a15.32,15.32,0,0,0,4.24-11.3C505.69,307.12,493,304.78,493,304.78Z" fill="#23375c"/><path d="M526.92,301s.82,13.47,0,17.91-2.33,7-3.75,7.59-3,3.84-3,8.36,1.68,8.33,0,8.22-16.46-1.47-16.46-1.47.5-10.53-1.18-12.67-5.32-5.88-5.59-7.88a42.22,42.22,0,0,1,0-5.88c0-1.14-2.45-.86-3.54-3.29a10.48,10.48,0,0,1,0-7.88c.95-2.44,2.72-4.59,4.77-3s2,2.86,3.5,2-.37-2.22,4.54-2.54S526.92,301,526.92,301Z" fill="#f79e86"/><path d="M493,304.78s1-21,16.38-21,17,3.72,18.68,8.59.82,10.46,2.45,10.46,14.81,1.72,12.65,2.58S493,304.78,493,304.78Z" fill="#f16f5c"/><path d="M501.15,305s-.64,10.79-.91,9.26-2.45-9.36-2.45-9.36Z" fill="#23375c"/><path d="M522,327.57s-4.45,2.19-6.63,1.18-8.18-4.73-8.18-4.73,8,10.13,8.86,9.36S522,327.57,522,327.57Z" fill="#c43f52"/><path d="M514.22,310.13c0,1.18-.5,2.15-1.13,2.15s-1.12-1-1.12-2.15.5-2.15,1.12-2.15S514.22,308.94,514.22,310.13Z" fill="#23375c"/><path d="M524.29,310.8c0,1.18-.5,2.15-1.12,2.15S522,312,522,310.8s.5-2.15,1.13-2.15S524.29,309.61,524.29,310.8Z" fill="#23375c"/><path d="M518,320.59a.54.54,0,0,1-.51-.39.58.58,0,0,1,.34-.73c.87-.31,1.6-.83,1.62-1.05a3.46,3.46,0,0,0-.59-1.34,14.4,14.4,0,0,1-1.19-2.45,3.16,3.16,0,0,1,1.23-3.8.54.54,0,0,1,.75.2.59.59,0,0,1-.2.78,2,2,0,0,0-.76,2.42,13.25,13.25,0,0,0,1.1,2.26,3.76,3.76,0,0,1,.75,2.06c-.12,1.13-1.84,1.82-2.36,2Z" fill="#c43f52"/><path d="M518.65,324.67a4.3,4.3,0,0,1-.78-.08,5.24,5.24,0,0,1-3.58-2.31l-.15-.21a.59.59,0,0,1,.06-.81.53.53,0,0,1,.77.07l.2.26a4.15,4.15,0,0,0,2.91,1.87c2,.41,3.44-1.49,3.45-1.51a.54.54,0,0,1,.77-.1.6.6,0,0,1,.09.81A5.14,5.14,0,0,1,518.65,324.67Z" fill="#c43f52"/><path d="M534.59,528.37s-3.54,9.68-1.36,12.54,3.95,4.09,5.18,8.46,5.86,11.59,8.32,13.09,7.36,2.18,8.59.54,4.23-4.91,1.91-7.63-4.37-12.14-5.73-14.73a14.63,14.63,0,0,1-1.36-8.32c.28-2.81,1.09-8.18,1.09-8.18Z" fill="#2e738f"/><path d="M484.36,412.36s-8,34.8,14.9,34.8h35.27S532,470.83,531.62,493s0,37.09,2.91,37.81S549.8,532.64,552,527s14.55-92.9,9.82-103.08-12-10.41-20.72-11.57S492,409.15,484.36,412.36Z" fill="#23375c"/><path d="M516.42,528.37s-3.55,9.68-1.36,12.54,4,4.09,5.18,8.46,5.86,11.59,8.31,13.09,7.37,2.18,8.59.54,4.23-4.91,1.91-7.63-4.36-12.14-5.72-14.73a14.56,14.56,0,0,1-1.37-8.32c.28-2.81,1.09-8.18,1.09-8.18Z" fill="#2e738f"/><path d="M466.79,412.36s-8,34.8,14.91,34.8H517s-2.54,23.67-2.9,45.85,0,37.09,2.9,37.81,15.27,1.82,17.46-3.81,14.54-92.9,9.81-103.08-12-10.41-20.72-11.57S474.42,409.15,466.79,412.36Z" fill="#2d4d9d"/><path d="M489.7,326.85s-10.9-.72-22.08,17.28-10.91,44.64-6,58.55,5.17,9.68,5.17,9.68h69.54s-.28-15.15,0-19.52-2.73-11.18,0-9.81,14.72,3.81,15,3-6.27-39.54-9.54-42-21-9.54-21-9.54-4.09,4.91-6,5.18S489.7,326.85,489.7,326.85Z" fill="#f16f5c"/><path d="M522.94,333.18s.51,4.31,0,4.85-3.79,0-3.79,0v-4.85S522.74,330.91,522.94,333.18Z" fill="#f9b9b3"/><rect x="478.29" y="375.05" width="71.86" height="1.09" transform="translate(130.66 883.9) rotate(-89.11)" fill="#e8887e"/><path d="M473.52,356.3s-3.46,11,1.27,19.3,25.27,11.43,25.45,16.52-3.09,15.45-6.18,16-16.18-1.27-24.54-7.45-10.67-28.81-10.67-28.81-1,20.63,6.59,27.54,27,11.13,29,11.25,5.92-8.89,7.23-13.43,2.33-8.37,0-10-21.95-9.27-24.5-12.91S473.52,356.3,473.52,356.3Z" fill="#e8887e"/><path d="M503.75,399l9.07-22.08a4.37,4.37,0,0,1,5-2.6l34.67,7.89a4.36,4.36,0,0,1,2.85,6.36L544.62,408a4.36,4.36,0,0,1-4.5,2.2l-33-5.21A4.36,4.36,0,0,1,503.75,399Z" fill="#23375c"/><path d="M500.24,392.12a15.72,15.72,0,0,1,4.36-1.82c2.73-.73,8.22-1.82,8.52,0s-3.48,2.18-1.61,3.27,5.09.36,5.09,4.18-4,7.09-6.91,6.18-4.21-1.84-6.65-2.72a7.57,7.57,0,0,0-4.34-.34S500.88,393.6,500.24,392.12Z" fill="#f79e86"/><rect x="515.71" y="357.09" width="40.82" height="1.09" transform="translate(26.99 752.74) rotate(-71.52)" fill="#2d4d9d"/><rect x="533.36" y="362" width="38.6" height="1.09" transform="translate(29.67 766.72) rotate(-70.96)" fill="#2d4d9d"/><path d="M546.39,337.12a3.28,3.28,0,1,1-3.28-3.27A3.28,3.28,0,0,1,546.39,337.12Z" fill="#2d4d9d"/><path d="M562.29,343a3.27,3.27,0,1,1-3.27-3.27A3.27,3.27,0,0,1,562.29,343Z" fill="#2d4d9d"/><path d="M496.51,323.31s-9.27,4.09-6.27,7.36,16.07,15.27,19.09,11.73,5.73-4.37,3.54-7.37S496.51,323.31,496.51,323.31Z" fill="#f9b9b3"/></g></g></svg>