<svg xmlns="http://www.w3.org/2000/svg" viewBox="0 0 815.97 751.72"><g id="e89d99fe-6c73-43b2-9444-d05f58d1a272" data-name="Layer 2"><g id="b6a96261-1b32-45eb-9307-5baf4ead3f8a" data-name="Layer 1"><path d="M794.18,704.85H319.47V26.15H759.18a35,35,0,0,1,35,35Z" fill="#e9eef8"/><path d="M407.07,704.85h-87.6V230.38h76.6a11,11,0,0,1,11,11Z" fill="#fff"/><path d="M390,704.85H319.47V0H355a35,35,0,0,1,35,35Z" fill="#51759f"/><path d="M740.8,707.84h-280V108a13,13,0,0,1,13-13h254a13,13,0,0,1,13,13Z" fill="#92b2dd"/><path d="M727.73,116V707.84H473.86V116a7.08,7.08,0,0,1,7.08-7.08h239.7A7.09,7.09,0,0,1,727.73,116Z" fill="#e9eef8"/><rect x="615.63" y="167.77" width="112.09" height="256.33" fill="#fff"/><path d="M615.63,108.87v599H473.86V116a7.08,7.08,0,0,1,7.08-7.08Z" fill="#fff"/><path d="M615.63,108.87v599H473.86V116a7.08,7.08,0,0,1,7.08-7.08Z" fill="#fff"/><rect x="727.73" y="108.87" width="37.04" height="600.49" fill="#92b2dd"/><path d="M776.75,708.33h-12V108.87h5a7,7,0,0,1,7,7Z" fill="#fff"/><rect x="615.63" y="161.5" width="112.09" height="6.26" fill="#92b2dd"/><rect x="703.76" y="156.36" width="8.17" height="281.04" rx="3" fill="#cdddf1"/><rect x="681.89" y="156.36" width="8.17" height="281.04" rx="3" fill="#cdddf1"/><rect x="660.03" y="156.36" width="8.17" height="281.04" rx="3" fill="#cdddf1"/><rect x="638.16" y="156.36" width="8.17" height="281.04" rx="3" fill="#cdddf1"/><path d="M641.76,601.72h86a0,0,0,0,1,0,0v19.61a0,0,0,0,1,0,0h-86a7,7,0,0,1-7-7v-5.61A7,7,0,0,1,641.76,601.72Z" fill="#ffd38e"/><rect x="642.39" y="621.33" width="85.34" height="87.01" fill="#f69782"/><path d="M704.3,640.21H683.24a6,6,0,0,1-6-6h0a6,6,0,0,1,6-6H704.3a6,6,0,0,1,6,6h0A6,6,0,0,1,704.3,640.21Z" fill="#d65f48"/><rect x="648.2" y="524.66" width="79.53" height="77.06" fill="#f69782"/><rect x="662.36" y="533.45" width="22.7" height="15.98" fill="#d65f48"/><rect x="662.36" y="572.3" width="34.13" height="7.26" fill="#d65f48"/><rect x="662.36" y="583.92" width="34.13" height="7.26" fill="#d65f48"/><path d="M689,493.77h-17.9a3.81,3.81,0,0,0-3.71,4.66l6,26.23H701l6-26.23a3.82,3.82,0,0,0-3.72-4.66Z" fill="#92b2dd"/><path d="M684.68,476.73s6.14-15-6.8-21.08-17.7,11-12.52,20S682.48,482,684.68,476.73Z" fill="#e8887e"/><path d="M690.06,481.56s-6.86-16.11,8.25-19,16.34,10.49,11.44,18.11S692.3,485.83,690.06,481.56Z" fill="#f16f5c"/><path d="M701.75,476c-.19-.06-4.86-1.54-10.34,3.38a16.07,16.07,0,0,0-2.83,3.44c-2.19-10.7-16-17.78-16.58-18.09a.55.55,0,0,0-.73.24.54.54,0,0,0,.24.73c.15.08,15.07,7.74,16.21,18.63a31,31,0,0,0-3,9.42.53.53,0,0,0,.47.6h.07a.55.55,0,0,0,.54-.48c0-.09,1.19-9.11,6.29-13.69s9.1-3.21,9.27-3.15a.55.55,0,0,0,.34-1Z" fill="#2d4d9d"/><rect x="602" y="108.87" width="13.63" height="598.97" fill="#92b2dd"/><rect x="33.23" width="334.45" height="704.85" rx="35" fill="#51759f"/><rect x="49.02" width="334.45" height="704.85" rx="35" fill="#92b2dd"/><path d="M370.4,33.23V661.71a19.07,19.07,0,0,1-19.07,19.07H86.61a19.07,19.07,0,0,1-19.07-19.07V33.23A19.07,19.07,0,0,1,86.61,14.16h69.72v4.9a12.53,12.53,0,0,0,12.53,12.53H277.23a12.53,12.53,0,0,0,12.53-12.53v-4.9h61.57A19.07,19.07,0,0,1,370.4,33.23Z" fill="#fff"/><path d="M111,97.77a11.3,11.3,0,1,1,11.31-11.3A11.31,11.31,0,0,1,111,97.77Zm0-20.42a9.13,9.13,0,1,0,9.13,9.12A9.13,9.13,0,0,0,111,77.35Z" fill="#f16f5c"/><circle cx="110.98" cy="86.47" r="6.13" fill="#f16f5c"/><path d="M111,192a11.3,11.3,0,1,1,11.31-11.3A11.31,11.31,0,0,1,111,192Zm0-20.42a9.12,9.12,0,1,0,9.13,9.12A9.13,9.13,0,0,0,111,171.54Z" fill="#f16f5c"/><path d="M117.11,180.66a6.13,6.13,0,1,1-6.13-6.13A6.13,6.13,0,0,1,117.11,180.66Z" fill="#f16f5c"/><path d="M114.76,297.51a4.53,4.53,0,0,1-3.39-1.48L99.2,282.29a2.35,2.35,0,0,1,.4-3.51,2.89,2.89,0,0,1,3.83.37l9,10.21a2.5,2.5,0,0,0,4-.31l16.8-24.69a2.87,2.87,0,0,1,3.75-.8,2.36,2.36,0,0,1,.87,3.43l-19.48,28.64A4.47,4.47,0,0,1,115,297.5Z" fill="#f16f5c"/><rect x="110.44" y="105.67" width="1.09" height="53.61" fill="#cdddf1"/><rect x="110.44" y="209.48" width="1.09" height="53.61" fill="#cdddf1"/><rect x="154.88" y="80.34" width="96.59" height="8.99" rx="3" fill="#cdddf1"/><rect x="154.88" y="101.18" width="48.3" height="8.99" rx="3" fill="#cdddf1"/><rect x="262.37" y="80.34" width="48.3" height="8.99" rx="3" fill="#cdddf1"/><rect x="154.88" y="168.47" width="96.59" height="8.99" rx="3" fill="#cdddf1"/><rect x="154.88" y="189.31" width="48.3" height="8.99" rx="3" fill="#cdddf1"/><rect x="262.37" y="168.47" width="48.3" height="8.99" rx="3" fill="#cdddf1"/><rect x="154.88" y="256.6" width="96.59" height="8.99" rx="3" fill="#cdddf1"/><rect x="154.88" y="277.44" width="48.3" height="8.99" rx="3" fill="#cdddf1"/><rect x="262.37" y="256.6" width="48.3" height="8.99" rx="3" fill="#cdddf1"/><path d="M104.32,552.35c2.34-3.92,4.38-10.52-.2-15.79s.64-7.43,1.32-14.15-8.12-7.29-7.63-15.95c.21-3.52-2.26-9.28-6.31-9.67-5.06-.48-8,5.5-7.75,9.67.5,8.66-8.29,9.23-7.62,15.95s5.89,8.89,1.32,14.15-2.54,11.87-.2,15.79-2.78,10.64-.44,16.47,7.39,14.36,14,14.16c6.59.2,11.66-8.35,14-14.16S102,556.27,104.32,552.35Z" fill="#e9eef8"/><line x1="90.89" y1="605.17" x2="90.89" y2="510.88" fill="none"/><path d="M91.11,511v94.21h-.44V511a.23.23,0,1,1,.44,0Z" fill="#92b2dd"/><line x1="83.75" y1="522.47" x2="90.89" y2="531.39" fill="none"/><path d="M90.89,531.61a.21.21,0,0,1-.17-.09l-7.14-8.91a.22.22,0,0,1,0-.31.21.21,0,0,1,.3,0l7.14,8.92a.22.22,0,0,1,0,.31A.24.24,0,0,1,90.89,531.61Z" fill="#92b2dd"/><line x1="90.89" y1="577.29" x2="99.32" y2="569.69" fill="none"/><path d="M90.89,577.51a.24.24,0,0,1-.16-.07.22.22,0,0,1,0-.31l8.43-7.61a.22.22,0,1,1,.29.33L91,577.45A.22.22,0,0,1,90.89,577.51Z" fill="#92b2dd"/><line x1="90.89" y1="516.95" x2="87.85" y2="513.69" fill="none"/><path d="M90.89,517.17a.24.24,0,0,1-.16-.07l-3-3.26a.22.22,0,0,1,0-.31.21.21,0,0,1,.31,0l3,3.26a.22.22,0,0,1,0,.31A.2.2,0,0,1,90.89,517.17Z" fill="#92b2dd"/><line x1="90.89" y1="540.92" x2="98.77" y2="534.09" fill="none"/><path d="M90.89,541.14a.2.2,0,0,1-.16-.07.22.22,0,0,1,0-.31l7.87-6.84a.23.23,0,0,1,.31,0,.22.22,0,0,1,0,.31L91,541.09A.23.23,0,0,1,90.89,541.14Z" fill="#92b2dd"/><line x1="90.89" y1="553.65" x2="81.09" y2="543.55" fill="none"/><path d="M90.89,553.87a.21.21,0,0,1-.16-.07l-9.79-10.09a.22.22,0,0,1,0-.31.21.21,0,0,1,.31,0l9.8,10.1a.22.22,0,0,1,0,.31A.2.2,0,0,1,90.89,553.87Z" fill="#92b2dd"/><path d="M142.1,559.4c2.5-4.2,4.69-11.28-.22-16.93s.69-8,1.41-15.17-8.7-7.82-8.17-17.11c.22-3.77-2.43-9.95-6.77-10.36-5.43-.52-8.56,5.89-8.31,10.36.54,9.29-8.89,9.9-8.17,17.11s6.32,9.53,1.41,15.17-2.72,12.73-.22,16.93-3,11.41-.46,17.67,7.92,15.39,15,15.18c7.07.21,12.5-9,15-15.18S139.59,563.61,142.1,559.4Z" fill="#e9eef8"/><line x1="127.7" y1="616.04" x2="127.7" y2="514.94" fill="none"/><path d="M127.93,515V616h-.47V515c0-.18.11-.32.24-.32S127.93,514.84,127.93,515Z" fill="#92b2dd"/><line x1="120.04" y1="527.36" x2="127.7" y2="536.92" fill="none"/><path d="M127.7,537.16a.25.25,0,0,1-.19-.09l-7.65-9.56a.23.23,0,0,1,0-.33.24.24,0,0,1,.33,0l7.65,9.57a.24.24,0,0,1-.18.38Z" fill="#92b2dd"/><line x1="127.7" y1="586.14" x2="136.74" y2="577.99" fill="none"/><path d="M127.7,586.38a.25.25,0,0,1-.18-.08.24.24,0,0,1,0-.33l9-8.15a.23.23,0,0,1,.33,0,.23.23,0,0,1,0,.33l-9,8.16A.22.22,0,0,1,127.7,586.38Z" fill="#92b2dd"/><line x1="127.7" y1="521.44" x2="124.43" y2="517.94" fill="none"/><path d="M127.7,521.67a.24.24,0,0,1-.18-.07l-3.26-3.5a.23.23,0,1,1,.34-.32l3.27,3.5a.24.24,0,0,1,0,.33A.27.27,0,0,1,127.7,521.67Z" fill="#92b2dd"/><line x1="127.7" y1="547.15" x2="136.14" y2="539.82" fill="none"/><path d="M127.7,547.38a.22.22,0,0,1-.18-.08.23.23,0,0,1,0-.33l8.45-7.33a.24.24,0,0,1,.33,0,.25.25,0,0,1,0,.33l-8.45,7.33A.21.21,0,0,1,127.7,547.38Z" fill="#92b2dd"/><line x1="127.7" y1="560.8" x2="117.19" y2="549.97" fill="none"/><path d="M127.7,561a.22.22,0,0,1-.17-.07L117,550.13a.24.24,0,0,1,0-.33.23.23,0,0,1,.33,0l10.51,10.82a.25.25,0,0,1,0,.34A.25.25,0,0,1,127.7,561Z" fill="#92b2dd"/><path d="M370.4,595.91v65.8a19.07,19.07,0,0,1-19.07,19.07H86.61a19.07,19.07,0,0,1-19.07-19.07v-65.8Z" fill="#e9eef8"/><rect x="90.78" y="630.77" width="61.73" height="11.62" rx="4" fill="#fff"/><rect x="138.92" y="649.94" width="39.02" height="11.62" rx="4" fill="#fff"/><rect x="266.77" y="649.94" width="39.02" height="11.62" rx="4" fill="#fff"/><rect x="196.74" y="630.77" width="39.02" height="11.62" rx="4" fill="#fff"/><path d="M370.4,528.87c-44.17,0-57.08-55.34-59.74-70.12v-21.9a3.81,3.81,0,0,0-3.81-3.81H230.52a3.88,3.88,0,0,0-1.33.24,13.65,13.65,0,0,0-2.49-.24H128.55a13.07,13.07,0,0,0-13.07,13.07v58.83A13.07,13.07,0,0,0,128.55,518H226.7v26.51a3.82,3.82,0,0,0,3.82,3.82h76.33a3.81,3.81,0,0,0,3.81-3.82V528.86H370.4Z" fill="#e8887e"/><rect x="135.77" y="323.47" width="105.31" height="97.77" rx="6" fill="#ffd38e"/><rect x="147.03" y="339.53" width="32.68" height="12.89" fill="#f69782"/><rect x="147.03" y="377.66" width="12.17" height="12.16" fill="#f69782"/><rect x="205.98" y="379.42" width="25.99" height="28.69" fill="#f69782"/><rect x="147.03" y="398.27" width="12.17" height="12.17" fill="#f69782"/><rect x="188.43" y="323.47" width="11.26" height="97.77" fill="#f69782"/><path d="M306.58,421.24H115.93a5.9,5.9,0,0,0-5.9,5.9h0a5.9,5.9,0,0,0,5.9,5.9H306.58a5.9,5.9,0,0,0,5.9-5.9h0A5.9,5.9,0,0,0,306.58,421.24Z" fill="#f9b9b3"/><rect x="98.59" y="505.89" width="62.1" height="28.46" rx="6" fill="#cdddf1"/><polygon points="237.81 553.43 195.98 546.87 216.25 543.68 215.88 540.88 191.88 544.64 190.82 542.23 202.76 514.99 200.41 513.77 189.38 538.93 178.35 513.77 176 514.99 187.94 542.23 186.55 545.38 160.98 541.37 160.61 544.18 177.74 546.87 139.05 552.94 139.42 555.75 185.16 548.57 167.01 589.98 169.37 591.2 188.08 548.49 190.87 548.93 209.39 591.2 211.75 589.98 193.97 549.41 237.43 556.24 237.81 553.43" fill="#cdddf1"/><polygon points="231.79 571.74 192.8 545.01 216.87 528.51 214.3 524.08 191.6 539.64 191.6 511.48 186.79 511.48 186.79 540.89 166.13 526.72 163.56 531.15 183.78 545.01 148.64 569.1 151.2 573.53 186.79 549.13 186.79 595.91 191.6 595.91 191.6 550.37 229.22 576.17 231.79 571.74" fill="#cdddf1"/><path d="M189.19,483.33a58.47,58.47,0,1,0,58.47,58.47A58.46,58.46,0,0,0,189.19,483.33Zm0,105.31A46.85,46.85,0,1,1,236,541.8,46.84,46.84,0,0,1,189.19,588.64Z" fill="#294a71"/><polygon points="201.18 548.34 175.03 615.15 167.77 615.15 190.87 548.93 201.18 548.34" fill="#92b2dd"/><rect x="148.64" y="611.88" width="31.64" height="5.18" rx="2" fill="#294a71"/><path d="M110,493.5s1.63,47.39,14.16,52.29,122.56,11.44,129.64,0-11-66.82-11-66.82Z" fill="#f69782"/><path d="M147.07,451.56s-27.24-3.81-37,12.53-4.36,38.13,0,40.31,146,7.08,146-9.81-3.81-43.8-9.8-43.42S147.07,451.56,147.07,451.56Z" fill="#ffd38e"/><path d="M185.18,511.48h-9.81a5.58,5.58,0,0,1-5.58-5.59h0a5.58,5.58,0,0,1,5.58-5.58h9.81a5.58,5.58,0,0,1,5.58,5.58h0A5.58,5.58,0,0,1,185.18,511.48Z" fill="#fff"/><path d="M140.68,464.81a3.17,3.17,0,0,1-3.15-3.5c.75-7.08,1.52-22.87,4.09-30.45,2.17-6.39,4.56-9.58,5.91-11a3.17,3.17,0,0,1,2.3-1h0a3.16,3.16,0,0,1,2.69,4.82,57.64,57.64,0,0,0-6,13.7c-2.69,8.93-2.76,19.07-2.59,24.15a3.16,3.16,0,0,1-3.16,3.26Z" fill="#fff"/><path d="M209.48,464.81a3.17,3.17,0,0,0,3.15-3.5c-.75-7.08-1.52-22.87-4.09-30.45-2.17-6.39-4.55-9.58-5.91-11a3.15,3.15,0,0,0-2.29-1h0a3.16,3.16,0,0,0-2.7,4.82,57.24,57.24,0,0,1,6,13.7c2.69,8.93,2.77,19.07,2.59,24.15a3.16,3.16,0,0,0,3.16,3.26Z" fill="#fff"/><path d="M370.4,548.34H281a9.74,9.74,0,0,1-9.74-9.74h0a9.73,9.73,0,0,1,9.74-9.73h89.4Z" fill="#f9b9b3"/><path d="M275,174.94s-8.83,2.52-12.83-7.36-6.53-27.71-4.17-29.78,10.17-2.44,15.79-3.89a85.9,85.9,0,0,1,12.17-2s6,21.79,2.9,31.23S275,174.94,275,174.94Z" fill="#481f54"/><path d="M281.07,153.16s.91-8.18-3.45-10.54-12.71,2.73-11.62,9.45,5.44,7.62,6.35,11.8,1.51,7.81,2.66,9.62.73,6.21-1.49,9.81a27.37,27.37,0,0,1-4.8,5.81s-3.29,15.78,12.43,19.42,20.07,9.11,27.15,1.84,4.36-11.82,3.82-13.46-1.09-8-1.28-10l-.18-2s4.91.91,6.9-3.45,9.26-20.34,6-28-1.68-11.44-1-14.35-1.15-10.89-1.88-12.7a35.8,35.8,0,0,0-3.27-5.27L286,131.91s-1.17,14.71-1,19.07S281.76,160.13,281.07,153.16Z" fill="#c43f52"/><path d="M308.3,164.41a.56.56,0,0,1-.45-.23.55.55,0,0,1,.15-.76c1.57-1.08,3.83-3,3.94-4,0-.32-.11-.45-1-.93a8,8,0,0,1-3.67-3.47c-2.13-3.88,2.17-10.28,2.35-10.55a.54.54,0,1,1,.9.61c0,.06-4.11,6.12-2.29,9.42a7.1,7.1,0,0,0,3.22,3c.83.44,1.68.9,1.56,2-.2,1.79-3.71,4.27-4.41,4.75A.56.56,0,0,1,308.3,164.41Z" fill="#802038"/><path d="M308.3,174.94c-4.57,0-7.74-4-7.87-4.2a.55.55,0,1,1,.86-.67s3,3.78,7,3.78,4.77-1.67,4.78-1.68a.55.55,0,0,1,.72-.26.54.54,0,0,1,.26.72C314,172.72,313,174.94,308.3,174.94Z" fill="#802038"/><ellipse cx="296.16" cy="147.35" rx="2.38" ry="4.36" fill="#481f54"/><path d="M318.14,146.74c0,2.07-.9,3.75-2,3.75s-2-1.68-2-3.75.9-3.75,2-3.75S318.14,144.67,318.14,146.74Z" fill="#481f54"/><path d="M293.37,139.92a5.92,5.92,0,0,1,2.25-2.44,3.06,3.06,0,0,1,3-.56c1,.37,1.41-1.21.43-1.58a4.56,4.56,0,0,0-4.22.73,7.22,7.22,0,0,0-3,3.42.82.82,0,0,0,1.58.43Z" fill="#481f54"/><path d="M314.37,137.48a2.45,2.45,0,0,1,2.34.91c.68.81,1.83-.36,1.16-1.15a4.1,4.1,0,0,0-3.94-1.34c-1,.19-.59,1.77.44,1.58Z" fill="#481f54"/><path d="M310.66,184.93s-16.34-2.36-23.06-4.36-7.62-2.9-7.62-2.9,17.61,17.79,20.33,16.52S310.66,184.93,310.66,184.93Z" fill="#802038"/><path d="M340.26,112.12c-1.94,1.94-23.3,12.27-45.84,19.91-13.27,4.5-27,8.08-37.32,8.46,0,0-10-39.62,12.71-46.53s32.68-5.62,38.67,0,9.66,23.61,9.66,23.61h0C318.8,117.34,343.31,109.07,340.26,112.12Z" fill="#f16f5c"/><path d="M340.26,112.12c-1.94,1.94-23.3,12.27-45.84,19.91-1.74-1.14,23.72-14.46,23.72-14.46h0C318.8,117.34,343.31,109.07,340.26,112.12Z" fill="#f9b9b3"/><path d="M246.93,666.81s-2.18,14.16-4.36,19.61S244.75,704.58,252,706s39.22,4.36,39.22,0-1.56-10.53-5-12.35-11.39-2.42-15.74-6.11-3.92-15.31-3.92-15.31Z" fill="#481f54"/><path d="M316.74,662s-1.72,16-3.72,22.26,2.77,20.44,10.07,21.87,39.35,3.79,39.21-1.13-1.9-11.84-5.36-13.79-11.46-2.41-15.93-6.45-8.61-23.21-8.61-23.21Z" fill="#481f54"/><path d="M232,365.77s-9.44,36,0,101.68,8,88.24,8,99.86.73,102.77,5.09,105,25.05,4,26.51,1.81,19.61-138.35,19.61-138.35,9.8,66.82,15.61,94,7.63,35.59,12,37,15.62.36,16-1.81,9.08-175.4,9.81-181.94-3-102.86-3-102.86Z" fill="#2d4d9d"/><path d="M256,191.83S230.23,202.72,220.42,222s-18.52,41-14.52,80.25,23.6,44.31,23.24,47-3.9,14.34,1.32,21.61,13.2,7.26,17.93,9.44,45.39,7.26,61.73,8.35,31.95-5.81,32.68-10.53,0-20.7,0-20.7l.32-101.68H365s-9.8-33.41-16.7-38.85-30.87-21.07-30.87-21.07-15.25,11.26-19.25,11.26-18.52-6.9-22.15-9.44S265,187.19,256,191.83Z" fill="#f16f5c"/><path d="M269.63,185.84s21.68,13.43,20.7,16S281.83,212.17,280,210s-22.34-15.62-20.17-18.52S265.51,183.22,269.63,185.84Z" fill="#f9b9b3"/><path d="M313.75,189.11c1.27,1.09,10.59,6.89,8.47,9.89s-18.63,14.83-20.82,11.37-4.9-6.38-3.27-8.74S313.75,189.11,313.75,189.11Z" fill="#f9b9b3"/><path d="M301.42,388.05l-2.67-.51c0-.13,2.46-13.45,1.65-52.24-.8-39-6.57-127.83-6.62-128.72l2.71-.18c.06.9,5.83,89.77,6.64,128.84S301.52,387.51,301.42,388.05Z" fill="#e27469"/><path d="M256,288.42v24.44a22,22,0,0,1-4.9-1.83c-9.42-4.92-11.35-28.78-11.72-40.31.05.45,3.05,26.73,9,31.87S256,288.42,256,288.42Z" fill="#e27469"/><path d="M229.14,349.25l-.53,2.72s24.41,7.08,26,10.17,7.72,6.63,10.8,6.63,40.67-2.73,54-2.18A66.26,66.26,0,0,0,343,363.31Z" fill="#e27469"/><rect x="256.01" y="255.74" width="151.06" height="106.4" rx="3.81" fill="#f69782"/><path d="M407.07,259.55v98.78a3.81,3.81,0,0,1-3.81,3.81H317.38V255.74h85.88A3.81,3.81,0,0,1,407.07,259.55Z" fill="#ffd38e"/><rect x="265.45" y="268.09" width="16.89" height="16.89" rx="3" fill="#d65f48"/><rect x="346.43" y="268.09" width="37.04" height="8.44" rx="4.22" fill="#f69782"/><rect x="331.54" y="318.56" width="33.41" height="33.41" rx="5" fill="#f69782"/><rect x="334.27" y="321.29" width="27.96" height="27.96" rx="5" fill="#fff"/><path d="M273.31,323.42a31.72,31.72,0,0,0,6.94-2.13c3.4-1.55,12.53-5.13,11.58-2.73s-5.45,4.72-2.59,4.86,12.67-7.35,13.55,0-2.79,13.48-5.38,14.84-12.71-1.63-15.07-1.63-11.08.54-11.08.54Z" fill="#c43f52"/><path d="M275.62,327.37c-2.18,19.06-3.81,26.42-8.44,27s-18.58,3.64-38.71-6.21S204.26,265,217.34,239.4s29.5-6.26,22,25.06c0,0-.05,2.45.08,6.26h0c.37,11.53,2.3,35.39,11.72,40.31a22,22,0,0,0,4.9,1.83C267,315.64,277.52,310.77,275.62,327.37Z" fill="#f16f5c"/><rect x="256.01" y="245.94" width="26.33" height="6.9" rx="3" fill="#f9b9b3"/><polygon points="340.8 255.74 337.54 241.22 347.52 255.74 340.8 255.74" fill="#e27469"/><polygon points="291.24 535.72 296.32 434.95 303.32 611.35 291.24 535.72" fill="#23375c"/><path d="M543.52,690.25c.58,6.22-.41,13.21-1.74,14.87-2,2.45-19.95-2.72-29.21,0s-31.87,1.63-33-2.18,1.64-5.17,6.27-4.63c4.14.49,8.94-1.64,14-4.63.6-.35,1.2-.71,1.8-1.09,5.72-3.54,12.81-3,15.8-6.53s7.63-7.63,7.63-12.53-10.62-102.68-10.62-102.68l30.77-8.72s1.36,26.15-3.81,63.19-3.54,51.2,0,57.19A19.44,19.44,0,0,1,543.52,690.25Z" fill="#f79e86"/><path d="M541.78,705.12c-2,2.45-19.95-2.72-29.21,0s-31.87,1.63-33-2.18,1.64-5.17,6.27-4.63c4.14.49,8.94-1.64,14-4.63a5.82,5.82,0,0,0,1.88,1.36c10,4.9,18.17,1.36,22.8-3.27,3.27-3.26,12.91-3,19-1.52C544.1,696.47,543.11,703.46,541.78,705.12Z" fill="#51759f"/><path d="M590.91,690.25c.58,6.22-.41,13.21-1.75,14.87-2,2.45-19.94-2.72-29.2,0s-31.87,1.63-33-2.18,1.64-5.17,6.27-4.63c4.14.49,8.93-1.64,14-4.63.6-.35,1.2-.71,1.8-1.09,5.72-3.54,12.8-3,15.8-6.53s7.62-7.63,7.62-12.53-10.62-102.68-10.62-102.68l30.78-8.72s1.36,26.15-3.81,63.19-3.55,51.2,0,57.19A19.78,19.78,0,0,1,590.91,690.25Z" fill="#f79e86"/><path d="M589.16,705.12c-2,2.45-19.94-2.72-29.2,0s-31.87,1.63-33-2.18,1.64-5.17,6.27-4.63c4.14.49,8.93-1.64,14-4.63a5.71,5.71,0,0,0,1.88,1.36c10,4.9,18.17,1.36,22.8-3.27,3.27-3.26,12.9-3,19-1.52C591.49,696.47,590.5,703.46,589.16,705.12Z" fill="#51759f"/><path d="M534.69,177.37s-9.05-14.23-6.05-31.12,6.18-29.41,15.35-34S557.56,110,557.56,110s19.83-9.26,31.81.82,24.78,23.15,17.43,46,.55,30,6.81,28.06,13.34,21.2,5.45,31.43-2.18,41,10.35,45.92,12.43-4.09,12.43-4.09,3.91.91,1.73,7.08-9.26,6.27-9.08,6.54,1.91,2.9,3.54,3.08a3.22,3.22,0,0,0,2.45-.54s-8.8,10.44-14.16,9.53-8-9.26-8-9.26,1.18,6.92-1.82,9.32a32,32,0,0,1-3.72,2.76s1.45-.09.91-2.73a13.42,13.42,0,0,0-1.18-3.72s-4,6.08-2,11.71,3.27,6.9,3.27,6.9-4.88-.86-6.75-3.7S557,167.18,534.69,177.37Z" fill="#23375c"/><path d="M536,144.62s-4.09,15.8-3,20.7,2.27,10.62,1.41,17.16,8.94,22.33,11.39,23.42,9.26,0,9.26,0,1.09,10-3.81,11.8-3,17.07,11.44,15.43,14.43,5.09,19.06-2.36a23.94,23.94,0,0,0,3-15.74s-3.81-5.86-3.54-9.68,6-7.35,5.17-10.62-1.09-5.72-1.63-8.71a4.81,4.81,0,0,1,1.71-4.63s5.1-3.54,5.1-8.17-2.18-9.81-5.18-9.54-7.35,5.18-7.35,5.18a120.08,120.08,0,0,1-13.58-10.08c-6.57-5.72-12.84-15-12.84-14.16s12.89,16.88,9.58,15.52-16.93-10.89-18.29-14.43l-1.36-3.54s-1.64,8.17-2.73,6.81S536,144.62,536,144.62Z" fill="#f79e86"/><path d="M555.05,205.9s8.45,1.36,14.44-4.36l6-5.72s-9.17,22.33-13.3,20.43S555.05,205.9,555.05,205.9Z" fill="#c43f52"/><path d="M534.84,182.09c-3.85,0-7-5.42-7-12.09s3.13-12.1,7-12.1c2.88,0,5.51,3.17,6.53,7.89l.14.62.1.7a21.37,21.37,0,0,1,.2,2.89C541.81,176.67,538.68,182.09,534.84,182.09Zm0-24.1c-3.8,0-6.89,5.39-6.89,12s3.09,12,6.89,12,6.88-5.38,6.88-12S538.63,158,534.84,158Zm20.72,23.47c-4.69,0-8.51-6.13-8.51-13.66,0-.44,0-.87,0-1.29l0-.32-.27-.15a5.7,5.7,0,0,0-2.66-.83,2.54,2.54,0,0,0-1,.18,2.43,2.43,0,0,0-1.2,1.11l-.15,0,.38-.46a2.44,2.44,0,0,1,.94-.69,2.56,2.56,0,0,1,1-.19,5.29,5.29,0,0,1,2.29.63l.63.31.08-.7c.74-6.5,4.26-11.22,8.37-11.22s7.71,4.9,8.39,11.4l0,.47,18.61-.87v.09L564,166.1l0,.5c0,.4,0,.8,0,1.2C564.07,175.33,560.25,181.46,555.56,181.46Zm0-27.23c-4.64,0-8.42,6.08-8.42,13.57s3.78,13.57,8.42,13.57S564,175.28,564,167.8,560.2,154.23,555.56,154.23Z" fill="#fff"/><path d="M555.56,153.64c-4.42,0-8.11,5-8.86,11.66a5.82,5.82,0,0,0-2.51-.68,3,3,0,0,0-1.2.23,2.78,2.78,0,0,0-1.13.83c-1.05-4.82-3.8-8.28-7-8.28-4.13,0-7.48,5.65-7.48,12.6s3.35,12.59,7.48,12.59,7.47-5.65,7.47-12.59a20.32,20.32,0,0,0-.21-3l.19.05a2.06,2.06,0,0,1,1.11-1.24,2.16,2.16,0,0,1,.78-.14,5.15,5.15,0,0,1,2.41.77c0,.43,0,.87,0,1.32,0,7.81,4,14.16,9,14.16s9-6.35,9-14.16c0-.41,0-.82,0-1.22l18.61-.87,0-1.09-18.65.87c-.7-6.72-4.41-11.85-8.88-11.85Zm0,27.23c-4.37,0-7.92-5.86-7.92-13.07s3.55-13.07,7.92-13.07,7.92,5.86,7.92,13.07-3.55,13.07-7.92,13.07Zm-20.72.63c-3.53,0-6.39-5.16-6.39-11.5s2.86-11.51,6.39-11.51,6.38,5.16,6.38,11.51-2.86,11.5-6.38,11.5Z" fill="#010101"/><path d="M545,184.93a.61.61,0,0,1-.36-.13,36.39,36.39,0,0,1-3.46-3.47,1.9,1.9,0,0,1-.56-1.45c.07-.79.74-1.33,1.46-1.91a6.56,6.56,0,0,0,1.51-1.51c.87-1.35-.33-4.7-.86-5.88a.54.54,0,1,1,1-.45c.22.49,2.13,4.83.78,6.92a7.52,7.52,0,0,1-1.74,1.77c-.53.43-1,.83-1.06,1.16a1,1,0,0,0,.31.65,35.53,35.53,0,0,0,3.34,3.34.54.54,0,0,1,.06.77A.56.56,0,0,1,545,184.93Z" fill="#c43f52"/><path d="M557.56,194.75a5.63,5.63,0,0,1-3.14,2.27,8.24,8.24,0,0,1-4.48-.19c-4.53-1.36-8.3-5.68-6.36-6.78a.93.93,0,0,1,.41,0c1.23.1,4.89.73,7.9,0s6-3.54,7-3.3h0a.45.45,0,0,1,.3.24C559.66,187.87,559.52,192,557.56,194.75Z" fill="#c43f52"/><path d="M558.92,186.75c-.43,1-2.3,2.45-4.5,3.92-2.68,1.81-7.67,1.54-8.81,1.32-.74-.14-1.31-1.22-1.62-2,1.23.1,4.89.73,7.9,0S557.89,186.51,558.92,186.75Z" fill="#fff"/><g opacity="0.51"><path d="M557.56,194.75a5.63,5.63,0,0,1-3.14,2.27,8.24,8.24,0,0,1-4.48-.19,6.86,6.86,0,0,1,5.37-2.42A7.51,7.51,0,0,1,557.56,194.75Z" fill="#f79e86"/></g><path d="M615.15,566c-2.53,1.4-12.9,4.33-22.34,5.58a59.78,59.78,0,0,1-7.8.59c-1.44,0-3.17.08-5.13.2-7.89.5-19.4,1.81-30,2.28a102.08,102.08,0,0,1-16.12-.3,143.07,143.07,0,0,1-20.37-4.69c-5.15-1.51-10.39-3.25-15.08-5-8.62-3.28-15.35-6.71-16.12-9.16-.35-1.14.32-6.25,1.65-13.82.84-4.77,1.94-10.52,3.2-16.86,7-35,19-87.93,20.21-94.6,1.82-9.81,14.58-74.08,19.78-73.36s67.74-4.54,67.74-4.54,7.62.55,9.08,15.07,3.63,94.42,6.17,120.57c1.2,12.35,3.14,30.07,4.49,45.51.43,4.84.8,9.47,1.07,13.63C616.33,557.64,616.39,565.26,615.15,566Z" fill="#cdddf1"/><path d="M527.08,341.9s-4.56,13,0,14.88,70.73,2.45,72.64,0,3.34-6.41,1.26-9.2S527.08,341.9,527.08,341.9Z" fill="#51759f"/><path d="M527.08,292.57s-16.87,6.11-26.86,11.92-18.7,9.08-21.24,7.44-14.89-6-12.71-2.36,7.26,4,4,5.09-15.61-5.45-17.07-5.45-4.35,7.26,5.45,12.35,18,3.78,20.7,2.72a42.2,42.2,0,0,1,10-2.72c3.42-.37,41.91-7.27,41.91-7.27Z" fill="#f79e86"/><g opacity="0.68"><path d="M527.08,292.57s-16.87,6.11-26.86,11.92-18.7,9.08-21.24,7.44-14.89-6-12.71-2.36,7.26,4,4,5.09-15.61-5.45-17.07-5.45-4.35,7.26,5.45,12.35,18,3.78,20.7,2.72a42.2,42.2,0,0,1,10-2.72c3.42-.37,41.91-7.27,41.91-7.27Z" fill="#c43f52"/></g><path d="M603.9,344.75c-2.13,6.32-22.7,5.66-36,5.17-2.64-.1-5-.19-6.86-.22-11.26-.18-34.5-2.72-36.32-7.63s-.36-5.26,2.35-12.16a24.22,24.22,0,0,0,1.28-7.14c.43-7.51-.78-17.21-1.28-23-.69-7.94-7.43-30.51-2.71-41s26.87-41,26.87-41c2.18-3,3.63,7.26,10.53,6.9s17.8-8.35,19.61-9.08,8-1.09,12,2.18,12,12,13.81,20,1.44,66.1-3.27,78.8S606.44,337.17,603.9,344.75Z" fill="#cdddf1"/><path d="M615.63,547c-6.94,3.43-12.86,3.61-23.54-1.41-12-5.63-14.16,10.53-25.05,7.06a57.71,57.71,0,0,0-33.77-.34c-11.44,3.27-6.54-18-30-9.8-8.16,2.84-14.54,1.79-19.42-.93.84-4.77,1.94-10.52,3.2-16.86,2.09,1.29,4.15,2,5.87,1.4,6.56-2.11,20.15-6.49,25.6-2.73s16.88,11.49,21.24,14.88,10.35-3.94,16.34,0,18-1.76,25.6-6.66,17.43-.54,20.7,4.25c1.53,2.24,6.87.26,12.12-2.49C615,538.23,615.36,542.86,615.63,547Z" fill="#51759f"/><path d="M596.66,246.44s-1.84,48.61-16.55,67.49-48.06,20.69-38.29,28,26.54,7.79,26.54,7.79l-.45.22c-2.64-.1-5-.19-6.86-.22-11.26-.18-34.5-2.72-36.32-7.63s-.36-5.26,2.35-12.16a24.22,24.22,0,0,0,1.28-7.14c9.94-6.59,23.74-14.25,26.69-16.83C559.23,302.31,596.66,246.44,596.66,246.44Z" fill="#92b2dd"/><path d="M586.1,230.77s-9.08,0-14.89,12-13.07,45-22.87,52.29-48.66,29.05-55.93,29.23-13.8-2.72-13.07,0,6.17,4.54,4.72,5.63-8.35,4-16,2.9-10.89-4.24-10.89.24,7.26,9.47,14.52,11.7,14.17.77,17.8-2.68,5.44-4.17,9.44-5.62S569.4,315,578.84,303.4s13.07-31.23,14.52-41.4S603.9,232.59,586.1,230.77Z" fill="#f79e86"/><path d="M502.9,319.33s1.86-.86,3.49,3.68.91,12.71,0,13.07-3.27,1.11-3.08,0,1.25-7.44,0-11.25-3.09-3-3.09-3S502,319,502.9,319.33Z" fill="#2d4d9d"/><g opacity="0.42"><g opacity="0.56"><path d="M560.5,562.13c0-2.72,11.44-60.46,16.89-101.85s.54-75.17,3.26-73.54,4.91,44.67,0,74.08S560.5,562.13,560.5,562.13Z" fill="#51759f"/></g><g opacity="0.56"><path d="M580.11,562.13s8.17-57.73,7.63-81.16,4.9-49,4.9-39.21S591.39,551.05,580.11,562.13Z" fill="#51759f"/></g><g opacity="0.56"><path d="M516.92,558.87S530.54,499,536,455.37s7.08-69.83,4.9-68.69-9.61,61.8-18.19,107.91S507.66,578.48,516.92,558.87Z" fill="#51759f"/></g><path d="M582.63,549c-1,8.87-2,16.9-2.75,23.37-7.89.5-19.4,1.81-30,2.28,5.18-30,33.21-199.73,36.2-181.75C588.72,408.44,581.78,503.17,582.63,549Z" fill="#51759f" opacity="0.4"/><path d="M513.44,569.61c-5.15-1.51-10.39-3.25-15.08-5,13-53.93,40-166.25,42.53-177.89C543.91,372.64,519.07,531.83,513.44,569.61Z" fill="#51759f" opacity="0.4"/><path d="M592.81,571.53a59.78,59.78,0,0,1-7.8.59c-1.46-3.32-2.17-11.71-2.38-23.17,4.16-35.64,9.64-84.75,10.17-100.11C593.62,425.25,592.89,555.11,592.81,571.53Z" fill="#51759f" opacity="0.4"/></g><path d="M555.05,167.31c0,1.81-.8,3.27-1.8,3.27s-1.8-1.46-1.8-3.27.81-3.26,1.8-3.26S555.05,165.51,555.05,167.31Z" fill="#23375c"/><path d="M539.71,169.81c0,1.81-.81,3.27-1.8,3.27s-1.8-1.46-1.8-3.27.81-3.27,1.8-3.27S539.71,168,539.71,169.81Z" fill="#23375c"/><path d="M512.71,54.42h-111a4.24,4.24,0,0,0-4.24,4.24v63.23a4.25,4.25,0,0,0,4.24,4.26h71.93l13,20.79a2.08,2.08,0,0,0,1.78,1,2.11,2.11,0,0,0,2.15-2.22l-.79-19.57h23a4.25,4.25,0,0,0,4.25-4.26V58.66A4.24,4.24,0,0,0,512.71,54.42Zm1.53,67.47a1.53,1.53,0,0,1-1.53,1.53H486.92l.11,2.84.7,17.33L475.9,124.7l-.8-1.28H401.66a1.53,1.53,0,0,1-1.52-1.53V58.66a1.53,1.53,0,0,1,1.52-1.52H512.71a1.53,1.53,0,0,1,1.53,1.52Z" fill="#92b2dd"/><path d="M514.24,58.66v63.23a1.53,1.53,0,0,1-1.53,1.53H486.92l.11,2.84.7,17.33L475.9,124.7l-.8-1.28H401.66a1.53,1.53,0,0,1-1.52-1.53V58.66a1.53,1.53,0,0,1,1.52-1.52H512.71A1.53,1.53,0,0,1,514.24,58.66Z" fill="#fff"/><circle cx="455.14" cy="90.67" r="24.27" fill="#ffd38e"/><path d="M455.14,106.14a11.19,11.19,0,0,1-10.87-8.55A2.14,2.14,0,0,1,446.36,95h17.56A2.14,2.14,0,0,1,466,97.59,11.19,11.19,0,0,1,455.14,106.14Z" fill="#f69782"/><path d="M460.79,83.14a2.94,2.94,0,1,0,2.94-2.94A2.94,2.94,0,0,0,460.79,83.14Z" fill="#f69782"/><path d="M444.21,83.14a2.94,2.94,0,1,0,2.94-2.94A2.94,2.94,0,0,0,444.21,83.14Z" fill="#f69782"/><rect y="704.85" width="794.18" height="17.43" rx="6" fill="#cdddf1"/><rect x="110.03" y="740.28" width="273.44" height="11.44" rx="5" fill="#cdddf1"/><rect x="420.33" y="740.28" width="159.78" height="11.44" rx="5" fill="#cdddf1"/><rect x="400.14" y="186.3" width="31.72" height="9.41" fill="#fff"/><rect x="413.85" y="196.25" width="31.72" height="9.41" fill="#fff" opacity="0.53"/><rect x="413.85" y="414.69" width="31.72" height="9.41" transform="translate(859.42 838.79) rotate(180)" fill="#fff"/><rect x="400.14" y="404.75" width="31.72" height="9.41" transform="translate(832 818.9) rotate(180)" fill="#fff" opacity="0.53"/><rect x="411.33" y="534.63" width="31.72" height="9.41" transform="translate(854.37 1078.66) rotate(180)" fill="#fff"/><path d="M811.06,640.21h0a4.91,4.91,0,0,1-4.9-4.9V486.47a4.91,4.91,0,0,1,4.9-4.91h0a4.91,4.91,0,0,1,4.91,4.91V635.31A4.91,4.91,0,0,1,811.06,640.21Z" fill="#e9eef8"/><path d="M15.11,640.21h0a4.91,4.91,0,0,1-4.9-4.9V486.47a4.91,4.91,0,0,1,4.9-4.91h0A4.91,4.91,0,0,1,20,486.47V635.31A4.91,4.91,0,0,1,15.11,640.21Z" fill="#e9eef8"/><path d="M811.06,455.19h0a4.91,4.91,0,0,1-4.9-4.91V398.67a4.91,4.91,0,0,1,4.9-4.91h0a4.91,4.91,0,0,1,4.91,4.91v51.61A4.91,4.91,0,0,1,811.06,455.19Z" fill="#e9eef8"/><path d="M811.06,314.46h0a4.9,4.9,0,0,1-4.9-4.9V68.91a4.91,4.91,0,0,1,4.9-4.9h0a4.91,4.91,0,0,1,4.91,4.9V309.56A4.9,4.9,0,0,1,811.06,314.46Z" fill="#e9eef8"/><path d="M15.11,314.46h0a4.9,4.9,0,0,1-4.9-4.9V68.91a4.91,4.91,0,0,1,4.9-4.9h0A4.91,4.91,0,0,1,20,68.91V309.56A4.9,4.9,0,0,1,15.11,314.46Z" fill="#e9eef8"/><path d="M727.18,12H426.5a4.9,4.9,0,0,1-4.9-4.9h0a4.9,4.9,0,0,1,4.9-4.9H727.18a4.9,4.9,0,0,1,4.9,4.9h0A4.9,4.9,0,0,1,727.18,12Z" fill="#e9eef8"/></g></g></svg>