<svg xmlns="http://www.w3.org/2000/svg" viewBox="0 0 756.24 820.84"><g id="ae4ab926-7ac5-4ac3-9747-e3c37c47713a" data-name="Layer 2"><g id="ec0e2aa5-d766-401e-9990-5266f160d18d" data-name="Layer 1"><path d="M599.18,0H158.43a19.15,19.15,0,0,0-19.15,19.15V784.76H618.33V19.15A19.15,19.15,0,0,0,599.18,0Zm.8,754.69H157.63V49.22a19.15,19.15,0,0,1,19.15-19.15H291.37V45.35a3.28,3.28,0,0,0,3.28,3.28H446.77a3.28,3.28,0,0,0,3.28-3.28V30.07H580.83A19.15,19.15,0,0,1,600,49.22Z" fill="#92b2dd"/><rect x="186.85" y="99.51" width="196.43" height="144.43" rx="9" fill="#cdddf1"/><rect x="406.83" y="109.02" width="147.75" height="12.04" rx="4" fill="#cdddf1"/><rect x="406.83" y="139.66" width="79.54" height="12.04" rx="4" fill="#cdddf1"/><rect x="186.85" y="307.6" width="196.43" height="144.43" rx="9" fill="#cdddf1"/><rect x="406.83" y="317.11" width="147.75" height="12.04" rx="4" fill="#cdddf1"/><rect x="406.83" y="347.75" width="79.54" height="12.04" rx="4" fill="#cdddf1"/><rect x="406.83" y="397.25" width="118.5" height="13.69" rx="4" fill="#cdddf1"/><path d="M358.67,343.19v73.26a6.1,6.1,0,0,1-6.1,6.1H216.22a6.1,6.1,0,0,1-6.11-6.1V343.19a6.1,6.1,0,0,1,6.11-6.11H352.57A6.1,6.1,0,0,1,358.67,343.19Z" fill="#92b2dd"/><path d="M238.3,368.68a10.44,10.44,0,1,1,0-17.61,10.43,10.43,0,0,0,0,17.61Z" fill="#e9eef8"/><g opacity="0.44"><ellipse cx="238.3" cy="359.87" rx="4.83" ry="8.8" fill="#92b2dd"/></g><path d="M254.32,359.87a10.44,10.44,0,0,1-16,8.81,10.44,10.44,0,0,0,0-17.61,10.42,10.42,0,0,1,16,8.8Z" fill="#5d83b0"/><rect x="224.31" y="393.53" width="26.18" height="5.24" fill="#e9eef8"/><rect x="255.38" y="393.53" width="26.18" height="5.24" fill="#e9eef8"/><rect x="286.45" y="393.53" width="26.18" height="5.24" fill="#e9eef8"/><rect x="317.52" y="393.53" width="26.18" height="5.24" fill="#e9eef8"/><path d="M358.67,409.81v6.64a6.1,6.1,0,0,1-6.1,6.1H216.22a6.1,6.1,0,0,1-6.11-6.1v-6.64Z" fill="#5d83b0"/><rect x="315.89" y="353.17" width="22.05" height="10.51" fill="#5d83b0"/><path d="M358.67,129.36v73.26a6.1,6.1,0,0,1-6.1,6.1H216.22a6.1,6.1,0,0,1-6.11-6.1V129.36a6.1,6.1,0,0,1,6.11-6.11H352.57A6.1,6.1,0,0,1,358.67,129.36Z" fill="#92b2dd"/><path d="M238.3,154.85a10.44,10.44,0,1,1,0-17.61,10.43,10.43,0,0,0,0,17.61Z" fill="#e9eef8"/><g opacity="0.44"><ellipse cx="238.3" cy="146.04" rx="4.83" ry="8.8" fill="#92b2dd"/></g><path d="M254.32,146a10.44,10.44,0,0,1-16,8.81,10.44,10.44,0,0,0,0-17.61,10.42,10.42,0,0,1,16,8.8Z" fill="#5d83b0"/><rect x="224.31" y="179.7" width="26.18" height="5.24" fill="#e9eef8"/><rect x="255.38" y="179.7" width="26.18" height="5.24" fill="#e9eef8"/><rect x="286.45" y="179.7" width="26.18" height="5.24" fill="#e9eef8"/><rect x="317.52" y="179.7" width="26.18" height="5.24" fill="#e9eef8"/><path d="M358.67,196v6.64a6.1,6.1,0,0,1-6.1,6.1H216.22a6.1,6.1,0,0,1-6.11-6.1V196Z" fill="#5d83b0"/><rect x="315.89" y="139.34" width="22.05" height="10.51" fill="#5d83b0"/><rect x="157.26" y="522.53" width="442.71" height="243.44" rx="13" fill="#e9eef8"/><rect x="197.26" y="576.02" width="48.12" height="47.54" rx="6" fill="#92b2dd"/><rect x="271.46" y="582.77" width="115.55" height="9.01" rx="4" fill="#92b2dd"/><rect x="271.46" y="603.62" width="65.71" height="9.01" rx="4" fill="#92b2dd"/><rect x="197.26" y="661.52" width="48.12" height="47.54" rx="6" fill="#92b2dd"/><rect x="271.46" y="668.27" width="115.55" height="9.01" rx="4" fill="#92b2dd"/><rect x="271.46" y="689.12" width="65.71" height="9.01" rx="4" fill="#92b2dd"/><path d="M514.64,480.67s11.67-15,14.89-27.32,3.35-14,3.35-14L552.29,447s-4.6,19.11-14.66,31.18-10.72,13.55-10.72,13.55Z" fill="#e8887e"/><path d="M545.92,449a4.21,4.21,0,0,1,.2-1l-7.16-3.3a5.26,5.26,0,0,1-5.55,4,4.48,4.48,0,0,1-.64-.09c-.71,2-1.52,4.52-2.34,7.69-1.77,6.8-7.66,15.75-10.79,20.2a4.3,4.3,0,0,1,.09,4.73l4.53,4.26a4.89,4.89,0,0,1,5.52-1.32,110.21,110.21,0,0,1,6.82-9c5.44-6.53,9.21-16.94,10.93-22.42A4.39,4.39,0,0,1,545.92,449Z" fill="#f9b9b3"/><path d="M509.76,482.32c1.61-2.53,10.42-16.8,12.41-28.25,1.56-9,2-12.41,2.14-13.65l19,5.71c-.51,2.92-3.76,20.08-11.88,31.64-6.57,9.37-8.67,12.74-9.33,13.92Z" fill="#fff"/><path d="M524.74,441.07l18,5.41c-.7,3.87-4,20-11.72,31-5.79,8.24-8.13,11.87-9.07,13.46l-11.48-8.75c2.14-3.39,10.29-16.85,12.23-28,1.36-7.82,1.88-11.44,2.08-13.09m-.87-1.31s0,1.64-2.19,14.23-12.59,28.45-12.59,28.45l13.13,10s.55-1.53,9.58-14.39,12-32.28,12-32.28l-20-6Z" fill="#010101"/><path d="M509.09,482.44s10.4-15.87,12.59-28.45,2.19-14.23,2.19-14.23l20,6s-3,19.42-12,32.28-9.58,14.39-9.58,14.39Z" fill="#f16f5c"/><path d="M514.83,482.46a4.64,4.64,0,0,0,.37-1.83,4.83,4.83,0,0,0-.87-2.76c2.92-5,7.8-14.1,9-20.91.46-2.66,1-5.15,1.58-7.4h.28a5.72,5.72,0,0,0,5.57-4.29l6.47,2.35a4.23,4.23,0,0,0-.06.7,4.91,4.91,0,0,0,1.86,3.85c-1.31,5.74-4.16,16-8.89,22.75-2.4,3.42-4.38,6.51-5.9,9.21a5.37,5.37,0,0,0-5.22,1.65Z" fill="#fff"/><path d="M531.06,445.92l5.61,2c0,.12,0,.24,0,.36a5.41,5.41,0,0,0,1.81,4c-1.34,5.76-4.15,15.74-8.75,22.29-2.31,3.29-4.24,6.29-5.74,8.93a6.22,6.22,0,0,0-1-.08,5.91,5.91,0,0,0-4,1.62l-3.53-2.82a5.2,5.2,0,0,0,.27-1.66,5.32,5.32,0,0,0-.78-2.77c3-5.09,7.71-14.05,8.88-20.81.44-2.51.93-4.85,1.48-7a6.22,6.22,0,0,0,5.78-4.14m-.7-1.32a5.25,5.25,0,0,1-5.19,4.46,4.63,4.63,0,0,1-.65,0c-.55,2-1.14,4.63-1.7,7.86-1.21,6.92-6.33,16.33-9.09,21a4.29,4.29,0,0,1,.48,4.71l4.87,3.87a4.89,4.89,0,0,1,3.93-2,5,5,0,0,1,1.46.22,108.75,108.75,0,0,1,6.06-9.5c4.88-7,7.78-17.64,9-23.25a4.4,4.4,0,0,1-1.92-3.64,4.32,4.32,0,0,1,.13-1l-7.42-2.7Z" fill="#010101"/><path d="M537.65,448.32a4.32,4.32,0,0,1,.13-1l-7.42-2.7a5.25,5.25,0,0,1-5.19,4.46,4.63,4.63,0,0,1-.65,0c-.55,2-1.14,4.63-1.7,7.86-1.21,6.92-6.33,16.33-9.09,21a4.29,4.29,0,0,1,.48,4.71l4.87,3.87a4.89,4.89,0,0,1,3.93-2,5,5,0,0,1,1.46.22,108.75,108.75,0,0,1,6.06-9.5c4.88-7,7.78-17.64,9-23.25A4.4,4.4,0,0,1,537.65,448.32Z" fill="#f9b9b3"/><path d="M500.34,466.88a20.17,20.17,0,0,0,7.66-4.53c3.56-3.16,9.85-7,14.77-6.17s12.31,6.84,11.49,9.3-2.46,3.08-4.65,1.4-.27,4.07-4.1,5.44-8.76-2.19-12.59,0-10.12,3.55-10.12,3.55Z" fill="#f79e86"/><path d="M374.13,393.35s-9.3,7.79-6,12.83-8.58,7.59-6.93,13.43,8.2,11.82,3.46,15.85-7.29,16.07,1.64,18.25,49.61,5.43,52.89,2.35-1.64-8.91,0-12.38,8.21-6.2,6.93-12-2.37-14.41-.91-19-2.92-16.28-2.92-16.28Z" fill="#481f54"/><path d="M381.07,448.24a15.73,15.73,0,0,0,4-5.1,27.8,27.8,0,0,0,2-6.75s-1.82-2-3-3.65-3-7.84-3-7.84-6,.36-8.39-3.47-1.65-9.3,1.82-9.3,4.69.73,4.69.73,1.88,5.66,2.79,2-2.19-12.59-.91-15.5a19,19,0,0,0,1.45-4.2h38.31s.74,8.39,0,13.13-1.44,5.84,0,10-4.57,18.24-7.12,20.25a12.1,12.1,0,0,1-4.19,2.37s-2.56,6.93-.92,10.94,9.49,6.2,1.46,12.4-.13,17.33-13.83,7.66A36.14,36.14,0,0,1,381.07,448.24Z" fill="#f79e86"/><path d="M381.07,448.24s-20.61-1.09-31.19,16.42-15.32,57.87-15.32,57.87H436.33s1.09-16.29,0-19.21S433,490,433,490s13.86,21.37,23,20.65,50.7-29.18,51.07-32.1-4-14.59-5.84-13.5-43,16.27-46,15.8-16.78-21.27-25.53-23.46-21.16-5.47-21.16-5.47-2.18,10.58-4.74,10.58S381.07,448.24,381.07,448.24Z" fill="#f16f5c"/><path d="M405.92,522.54l-1.1,0c0-.22.69-21.53,1.41-32.58s-2.86-27.18-2.9-27.34l1.07-.24c0,.16,3.65,16.54,2.93,27.66S405.92,522.33,405.92,522.54Z" fill="#e8887e"/><path d="M361.92,522.53s-3-8.63-2.74-14.38a92.74,92.74,0,0,0,0-9.84l-6.55,24.23Z" fill="#e8887e"/><polygon points="433.04 489.97 430.03 475.87 442.71 502.32 433.04 489.97" fill="#e8887e"/><path d="M409.52,441s-10.4-.55-14.23-3.1l-3.83-2.56s9.69,16.42,11.87,13.86S409.52,441,409.52,441Z" fill="#c43f52"/><path d="M398.66,412c0,1.71-.85,3.1-1.91,3.1s-1.92-1.39-1.92-3.1.86-3.1,1.92-3.1S398.66,410.24,398.66,412Z" fill="#481f54"/><path d="M415.72,412c0,1.71-.86,3.1-1.92,3.1s-1.91-1.39-1.91-3.1.85-3.1,1.91-3.1S415.72,410.24,415.72,412Z" fill="#481f54"/><path d="M404.64,423.53a.55.55,0,0,1-.49-.3.54.54,0,0,1,.24-.73c1.63-.83,3.13-1.91,3.21-2.31s-.67-1.05-1.29-1.68a16,16,0,0,1-1.8-2.05c-1.53-2.18,1.66-5.32,1.8-5.45a.55.55,0,0,1,.76.79c-.74.72-2.49,2.85-1.66,4a15,15,0,0,0,1.68,1.92c.94.95,1.68,1.7,1.6,2.55-.1,1.17-2.69,2.61-3.8,3.17A.57.57,0,0,1,404.64,423.53Z" fill="#c43f52"/><path d="M405.63,430.75a7.49,7.49,0,0,1-2.11-.31c-3.62-1.07-5.09-2.75-5.36-3.49a.76.76,0,0,1,0-.71.55.55,0,0,1,1,.37c.16.36,1.29,1.79,4.62,2.78a6.23,6.23,0,0,0,6.1-1.53.55.55,0,0,1,.78,0,.56.56,0,0,1,0,.78A7.41,7.41,0,0,1,405.63,430.75Zm-6.51-3.91Z" fill="#c43f52"/><path d="M392.26,407.16a5.19,5.19,0,0,1,3.78-3.42c1-.24.59-1.83-.43-1.58a6.84,6.84,0,0,0-4.93,4.56c-.33,1,1.25,1.44,1.58.44Z" fill="#481f54"/><path d="M412.75,403.63c.7.31,1.42.61,2.12.94.47.23,1,.49,1.15,1a.82.82,0,0,0,1.58-.44c-.45-1.75-2.57-2.31-4-3-1-.43-1.8,1-.83,1.42Z" fill="#481f54"/><path d="M450,395.17c-.74.32-24.87.89-45.15,1.12-14.53.17-27.08.17-27.61-.21a32.74,32.74,0,0,1-3.11-2.73s-2.73-34.11,20.71-34.11,27.81,16.42,28.9,22.62-.55,11.49,1.46,11.49S451.28,394.62,450,395.17Z" fill="#f16f5c"/><path d="M450,395.17c-.74.32-24.87.89-45.15,1.12l20.35-2.94C427.2,393.35,451.28,394.62,450,395.17Z" fill="#f9b9b3"/><rect x="186.85" y="294.01" width="17.72" height="229.54" fill="#92b2dd"/><rect x="551.28" y="294.01" width="17.72" height="229.54" fill="#92b2dd"/><rect x="157.9" y="165.99" width="437.41" height="128.02" rx="13" fill="#92b2dd"/><rect x="166.92" y="175.01" width="419.35" height="109.97" rx="13" fill="#e9eef8"/><path d="M235,239.42a1.23,1.23,0,0,1,.93.42l2.62,2.84a14.5,14.5,0,0,1-5.34,4.12,18.49,18.49,0,0,1-7.61,1.43,18,18,0,0,1-7.14-1.36A15.68,15.68,0,0,1,213,243.1a16.74,16.74,0,0,1-3.44-5.78,21.53,21.53,0,0,1-1.19-7.32,19.63,19.63,0,0,1,1.33-7.36,16.63,16.63,0,0,1,9.53-9.52,19.82,19.82,0,0,1,7.44-1.35,17.51,17.51,0,0,1,6.94,1.27,16.2,16.2,0,0,1,5.09,3.37l-2.22,3.08a2.05,2.05,0,0,1-.5.52,1.43,1.43,0,0,1-.85.22,2,2,0,0,1-1.16-.44,13.45,13.45,0,0,0-1.51-1,11.86,11.86,0,0,0-2.3-1,12.09,12.09,0,0,0-3.54-.44,11.86,11.86,0,0,0-4.63.88,10.18,10.18,0,0,0-3.62,2.5,11.48,11.48,0,0,0-2.37,4,15.12,15.12,0,0,0-.85,5.24,15.52,15.52,0,0,0,.85,5.35,11.87,11.87,0,0,0,2.31,4,9.87,9.87,0,0,0,3.42,2.45,10.58,10.58,0,0,0,4.25.85,18.2,18.2,0,0,0,2.45-.15,10,10,0,0,0,2-.46,9.44,9.44,0,0,0,1.76-.83,11.15,11.15,0,0,0,1.64-1.25,2.44,2.44,0,0,1,.51-.35A1.33,1.33,0,0,1,235,239.42Z" fill="#92b2dd"/><path d="M284.39,247.83h-5.13a2.24,2.24,0,0,1-1.42-.43,2.54,2.54,0,0,1-.8-1.07l-2.66-7.28H259.6l-2.66,7.28a2.27,2.27,0,0,1-.78,1,2.13,2.13,0,0,1-1.41.47h-5.16l14-35.66h6.78Zm-23.08-13.47h11.37l-4.34-11.86q-.3-.8-.66-1.86c-.24-.72-.47-1.49-.7-2.33-.23.84-.46,1.62-.68,2.34s-.44,1.36-.65,1.9Z" fill="#92b2dd"/><path d="M316.7,218.65a1.86,1.86,0,0,1-.63.77,1.54,1.54,0,0,1-.85.22,2.2,2.2,0,0,1-1.11-.38c-.41-.26-.89-.54-1.45-.85a11.2,11.2,0,0,0-2-.85,8.13,8.13,0,0,0-2.65-.39,7.53,7.53,0,0,0-2.41.34,5.18,5.18,0,0,0-1.73.92,3.82,3.82,0,0,0-1,1.42,4.64,4.64,0,0,0-.35,1.81,3.15,3.15,0,0,0,.7,2.1,5.9,5.9,0,0,0,1.87,1.43,17.55,17.55,0,0,0,2.63,1.06c1,.31,2,.65,3,1a29,29,0,0,1,3,1.23,10.65,10.65,0,0,1,2.64,1.78,8.08,8.08,0,0,1,1.86,2.62,9.15,9.15,0,0,1,.7,3.78,12.26,12.26,0,0,1-.82,4.52,10.53,10.53,0,0,1-2.42,3.68,11.46,11.46,0,0,1-3.89,2.47,14.3,14.3,0,0,1-5.25.9,16.34,16.34,0,0,1-3.35-.34,17.36,17.36,0,0,1-3.17-.95,16.25,16.25,0,0,1-2.84-1.48,13.93,13.93,0,0,1-2.36-1.92l1.93-3.18a2.4,2.4,0,0,1,.65-.58,1.58,1.58,0,0,1,.85-.24,2.32,2.32,0,0,1,1.33.51c.48.34,1,.71,1.69,1.12a12.64,12.64,0,0,0,2.3,1.12,8.78,8.78,0,0,0,3.17.51,6.54,6.54,0,0,0,4.39-1.34,4.86,4.86,0,0,0,1.55-3.86,3.58,3.58,0,0,0-.7-2.3,5.69,5.69,0,0,0-1.86-1.49,14.52,14.52,0,0,0-2.64-1c-1-.28-2-.59-3-.92a26.42,26.42,0,0,1-3-1.18,9.65,9.65,0,0,1-2.64-1.8,8.27,8.27,0,0,1-1.86-2.78,10.51,10.51,0,0,1-.7-4.1,9.67,9.67,0,0,1,.77-3.8,9.82,9.82,0,0,1,2.27-3.28,11.47,11.47,0,0,1,3.66-2.3,13.46,13.46,0,0,1,5-.86,16.54,16.54,0,0,1,5.82,1,13.2,13.2,0,0,1,4.54,2.76Z" fill="#92b2dd"/><path d="M363.66,247.83H357V232.24H340.26v15.59h-6.69V212.17h6.69v15.34H357V212.17h6.68Z" fill="#92b2dd"/><path d="M380.39,247.83V212.17h12.3a23.6,23.6,0,0,1,6,.66,11.65,11.65,0,0,1,4.07,1.9,7.41,7.41,0,0,1,2.33,3,10.06,10.06,0,0,1,.74,3.94,8,8,0,0,1-.37,2.41,7,7,0,0,1-1.15,2.14,8.88,8.88,0,0,1-2,1.82,12.19,12.19,0,0,1-2.85,1.38q7.35,1.65,7.35,7.94a10,10,0,0,1-.87,4.19,9.23,9.23,0,0,1-2.51,3.32,11.89,11.89,0,0,1-4.07,2.18,17.66,17.66,0,0,1-5.53.79ZM387,227.61h5.3a8.79,8.79,0,0,0,5.13-1.24,4.46,4.46,0,0,0,1.76-3.92,4.65,4.65,0,0,0-1.58-4,8.28,8.28,0,0,0-4.94-1.18H387Zm0,4.58v10.46h6.73a9.47,9.47,0,0,0,3.1-.44,5.35,5.35,0,0,0,2-1.19,4.26,4.26,0,0,0,1.08-1.72,6.33,6.33,0,0,0,.34-2.1,5.67,5.67,0,0,0-.37-2.08,3.94,3.94,0,0,0-1.16-1.58,5.36,5.36,0,0,0-2-1,11.12,11.12,0,0,0-3-.35Z" fill="#92b2dd"/><path d="M453.39,247.83h-5.13a2.2,2.2,0,0,1-1.41-.43,2.57,2.57,0,0,1-.81-1.07l-2.66-7.28H428.61l-2.67,7.28a2.27,2.27,0,0,1-.78,1,2.11,2.11,0,0,1-1.41.47h-5.16l14-35.66h6.78Zm-23.08-13.47h11.37l-4.34-11.86q-.3-.8-.66-1.86c-.24-.72-.47-1.49-.7-2.33-.23.84-.46,1.62-.68,2.34s-.44,1.36-.65,1.9Z" fill="#92b2dd"/><path d="M491.11,239.42a1.23,1.23,0,0,1,.93.42l2.62,2.84a14.5,14.5,0,0,1-5.34,4.12,18.49,18.49,0,0,1-7.61,1.43,18,18,0,0,1-7.14-1.36,15.68,15.68,0,0,1-5.42-3.77,16.74,16.74,0,0,1-3.44-5.78,21.78,21.78,0,0,1-1.19-7.32,19.63,19.63,0,0,1,1.33-7.36,16.63,16.63,0,0,1,9.53-9.52,19.86,19.86,0,0,1,7.44-1.35,17.47,17.47,0,0,1,6.94,1.27,16.2,16.2,0,0,1,5.09,3.37l-2.22,3.08a2.05,2.05,0,0,1-.5.52,1.43,1.43,0,0,1-.85.22,2,2,0,0,1-1.16-.44,13.45,13.45,0,0,0-1.51-1,11.86,11.86,0,0,0-2.3-1,12.09,12.09,0,0,0-3.54-.44,11.86,11.86,0,0,0-4.63.88,10.18,10.18,0,0,0-3.62,2.5,11.48,11.48,0,0,0-2.37,4,15.12,15.12,0,0,0-.85,5.24,15.52,15.52,0,0,0,.85,5.35,11.87,11.87,0,0,0,2.31,4,9.82,9.82,0,0,0,3.43,2.45,10.5,10.5,0,0,0,4.24.85,18.2,18.2,0,0,0,2.45-.15,10,10,0,0,0,2-.46,9.44,9.44,0,0,0,1.76-.83,11.15,11.15,0,0,0,1.64-1.25,2.44,2.44,0,0,1,.51-.35A1.33,1.33,0,0,1,491.11,239.42Z" fill="#92b2dd"/><path d="M516,227.11h1.55a3.91,3.91,0,0,0,1.56-.26,2.61,2.61,0,0,0,1.06-.82l9.84-12.46a3.69,3.69,0,0,1,1.29-1.1,4.31,4.31,0,0,1,1.72-.3h5.72l-12,14.82a10.42,10.42,0,0,1-1.09,1.16,4.56,4.56,0,0,1-1.11.76,4.85,4.85,0,0,1,1.47.84,7.45,7.45,0,0,1,1.27,1.38l12.38,16.7h-5.87a3.66,3.66,0,0,1-1.76-.33,2.68,2.68,0,0,1-1-1L521,233.35a3.07,3.07,0,0,0-1.11-.92,4.29,4.29,0,0,0-1.75-.29H516v15.69h-6.63V212.14H516Z" fill="#92b2dd"/><g opacity="0.61"><rect x="186.85" y="294.01" width="17.72" height="38.57" fill="#2d4d9d"/><rect x="551.28" y="294.01" width="17.72" height="38.57" fill="#2d4d9d"/></g><rect x="203.54" y="474.19" width="52.6" height="16.21" rx="2" fill="#e8887e"/><line x1="206.49" y1="479.36" x2="223.04" y2="479.36" fill="#f1563e"/><path d="M223,479.83H206.49a.47.47,0,1,1,0-.94H223a.47.47,0,1,1,0,.94Z" fill="#f1563e"/><line x1="228.11" y1="485.11" x2="251.23" y2="485.11" fill="#f1563e"/><path d="M251.23,485.58H228.11a.47.47,0,1,1,0-.94h23.12a.47.47,0,1,1,0,.94Z" fill="#f1563e"/><rect x="224.87" y="474.19" width="9.96" height="16.21" fill="#f9b9b3"/><rect x="267.36" y="474.19" width="52.6" height="16.21" rx="2" fill="#e8887e"/><rect x="308.26" y="507.14" width="52.6" height="16.21" rx="2" fill="#e8887e"/><line x1="270.31" y1="479.36" x2="286.86" y2="479.36" fill="#f1563e"/><path d="M286.86,479.83H270.31a.47.47,0,1,1,0-.94h16.55a.47.47,0,1,1,0,.94Z" fill="#f1563e"/><line x1="291.93" y1="485.11" x2="315.05" y2="485.11" fill="#f1563e"/><path d="M315.05,485.58H291.93a.47.47,0,1,1,0-.94h23.12a.47.47,0,1,1,0,.94Z" fill="#f1563e"/><rect x="288.69" y="474.19" width="9.95" height="16.21" fill="#f9b9b3"/><rect x="256.14" y="490.4" width="52.6" height="16.21" rx="2" fill="#e8887e"/><line x1="259.09" y1="495.57" x2="275.64" y2="495.57" fill="#f1563e"/><path d="M275.64,496H259.09a.47.47,0,1,1,0-.94h16.55a.47.47,0,1,1,0,.94Z" fill="#f1563e"/><line x1="280.71" y1="501.33" x2="303.83" y2="501.33" fill="#f1563e"/><path d="M303.83,501.8H280.71a.47.47,0,1,1,0-.94h23.12a.47.47,0,1,1,0,.94Z" fill="#f1563e"/><rect x="277.47" y="490.4" width="9.95" height="16.21" fill="#f9b9b3"/><rect x="203.54" y="506.21" width="52.6" height="16.21" rx="2" fill="#e8887e"/><line x1="206.49" y1="511.38" x2="223.04" y2="511.38" fill="#f1563e"/><path d="M223,511.85H206.49a.47.47,0,1,1,0-.94H223a.47.47,0,1,1,0,.94Z" fill="#f1563e"/><line x1="228.11" y1="517.14" x2="251.23" y2="517.14" fill="#f1563e"/><path d="M251.23,517.61H228.11a.47.47,0,1,1,0-.94h23.12a.47.47,0,1,1,0,.94Z" fill="#f1563e"/><rect x="224.87" y="506.21" width="9.96" height="16.21" fill="#f9b9b3"/><rect x="203.54" y="490.4" width="52.6" height="16.21" rx="2" fill="#f16f5c"/><line x1="206.49" y1="495.57" x2="223.04" y2="495.57" fill="#dd6a5e"/><path d="M223,496H206.49a.47.47,0,1,1,0-.94H223a.47.47,0,1,1,0,.94Z" fill="#dd6a5e"/><line x1="228.11" y1="501.33" x2="251.23" y2="501.33" fill="#dd6a5e"/><path d="M251.23,501.8H228.11a.47.47,0,1,1,0-.94h23.12a.47.47,0,1,1,0,.94Z" fill="#dd6a5e"/><rect x="224.87" y="490.4" width="9.96" height="16.21" fill="#f9b9b3"/><rect x="255.95" y="506.21" width="52.6" height="16.21" rx="2" fill="#f16f5c"/><line x1="258.89" y1="511.38" x2="275.44" y2="511.38" fill="#dd6a5e"/><path d="M275.44,511.85H258.89a.47.47,0,1,1,0-.94h16.55a.47.47,0,1,1,0,.94Z" fill="#dd6a5e"/><line x1="280.52" y1="517.14" x2="303.63" y2="517.14" fill="#dd6a5e"/><path d="M303.63,517.61H280.52a.47.47,0,1,1,0-.94h23.11a.47.47,0,1,1,0,.94Z" fill="#dd6a5e"/><rect x="277.27" y="506.21" width="9.96" height="16.21" fill="#f9b9b3"/><line x1="311.62" y1="511.38" x2="328.17" y2="511.38" fill="#dd6a5e"/><path d="M328.17,511.85H311.62a.47.47,0,1,1,0-.94h16.55a.47.47,0,1,1,0,.94Z" fill="#dd6a5e"/><line x1="333.24" y1="517.14" x2="356.36" y2="517.14" fill="#dd6a5e"/><path d="M356.36,517.61H333.24a.47.47,0,1,1,0-.94h23.12a.47.47,0,1,1,0,.94Z" fill="#dd6a5e"/><rect x="330" y="506.21" width="9.96" height="16.21" fill="#f9b9b3"/><rect x="222.84" y="457.86" width="52.6" height="16.21" rx="2" fill="#f16f5c"/><line x1="225.79" y1="463.03" x2="242.34" y2="463.03" fill="#dd6a5e"/><path d="M242.34,463.5H225.79a.47.47,0,1,1,0-.94h16.55a.47.47,0,1,1,0,.94Z" fill="#dd6a5e"/><line x1="247.41" y1="468.79" x2="270.53" y2="468.79" fill="#dd6a5e"/><path d="M270.53,469.26H247.41a.47.47,0,1,1,0-.94h23.12a.47.47,0,1,1,0,.94Z" fill="#dd6a5e"/><rect x="244.17" y="457.86" width="9.96" height="16.21" fill="#f9b9b3"/><rect x="204.7" y="441.06" width="52.6" height="16.21" rx="2" fill="#f16f5c"/><line x1="207.64" y1="446.23" x2="224.2" y2="446.23" fill="#dd6a5e"/><path d="M224.2,446.7H207.64a.47.47,0,1,1,0-.94H224.2a.47.47,0,1,1,0,.94Z" fill="#dd6a5e"/><line x1="229.27" y1="451.99" x2="252.38" y2="451.99" fill="#dd6a5e"/><path d="M252.38,452.46H229.27a.47.47,0,1,1,0-.94h23.11a.47.47,0,1,1,0,.94Z" fill="#dd6a5e"/><rect x="226.02" y="441.06" width="9.95" height="16.21" fill="#f9b9b3"/><path d="M626.52,377.23s-4.58-4.12-5.57-13.3,14.43-18.36,14.43-18.36-3.61-2-2.3-4.26,12.38,0,12.38,0-2.37-2.95,0-3.28,26.63-1.64,33.18,16.06,5.91,21.31,5.91,21.31,2.62-5.24,3.6-1.64-3.28,21-9.18,23.6l-5.9,2.62s0,10-1.27,7.87l-1.23-2.09s-.12,4.55-1.47,5.16-3.24-1.1-3.24-1.1Z" fill="#481f54"/><path d="M627.84,363.93s-4.1,6.72-2,11.47,1.07,11.31-.61,14.09-3,3.94-1.52,5.41,2.62,2.79,2.79,4.1,2.78,14.92,8.68,13.77,5.3-.77,6.48,2.29-.74,7.05-.74,7.05l23-1.48s1.21-6.22,1.86-10.81a23.35,23.35,0,0,1,2-7.05s-4.26-3.61-5.9-6.39-2.3-3.44-1-4.92,4.31-4.1,3.06-7-2.24-7.21-5.19-6.22-5.73,4.91-5.73,4.91a23.13,23.13,0,0,1-7.62-5.24c-3.36-3.61-10.74-13.93-10.74-13.93s2.95,8.68,1.31,9.18-7.4-6.72-7.4-6.72,2.65,4.09,1.67,3.93S627.84,363.93,627.84,363.93Z" fill="#c43f52"/><path d="M639.23,412.17a63.6,63.6,0,0,0,9-2.35c5.33-2,7-3,7.71-3.94a19.6,19.6,0,0,0,1.72-4.09s.08,7.62-4.84,10.73A105.56,105.56,0,0,1,642,418.34S641.44,413.14,639.23,412.17Z" fill="#67222f"/><ellipse cx="633.49" cy="382.37" rx="2.05" ry="4.02" fill="#481f54"/><path d="M632,403.36a13.3,13.3,0,0,1-3.56-.51.49.49,0,0,1,.29-.94s3.41,1,5.91,0,2.74-2.07,2.74-2.08a.51.51,0,0,1,.61-.33.47.47,0,0,1,.34.58c0,.16-.47,1.59-3.32,2.74A8.13,8.13,0,0,1,632,403.36Z" fill="#67222f"/><path d="M635.05,760.63c0,1.48-.25,10.33,0,15.49s4.92,9.1,3.19,12-23.6,3-30.73,2.7-14.5,2.21-17.45-1.23-5.41-7.13,2.21-10.08,17.7-1.34,21.88-3.5,5.41-9.77,6.64-11S635.05,760.63,635.05,760.63Z" fill="#51759f"/><path d="M714,743.18c2.71,1,5.66,11.06,9.59,12.78s2.21,8.43-1,11-8.61,3.53-13,8.2-18.44,11.8-20.41,9.09-3.44-3.68,2.22-9.34,9.58-9.09,12.53-12.78,2.72-15.49,2.72-15.49Z" fill="#51759f"/><path d="M674.92,530.35s13.72,42.71,6.84,69.75-9,48.68-6.46,53.1,15.8,24.58,27.11,53.1,15.73,35.9,14.26,37.86-11.31,6.89-11.31,6.89l-55.13-73.27s-8.79,85.56-12.72,87-19.18,3.94-19.18,0-5.64-143.28-5.58-146.91,4.73-76.72,4.73-76.72Z" fill="#2d4d9d"/><path d="M571.72,617c1.1-2.92,1.1-60.24,7.66-61.7s41.58-5.6,42.68,0-9.31,61.12-9.31,61.12Z" fill="#e8887e"/><path d="M559.25,617s-8.15-44.15-5.13-43.08,39.49-3.3,41.31,2.54S600,618.2,600,618.2Z" fill="#f16f5c"/><path d="M624.86,569.23l-2,7.47H610.18l1.24-8.13-1.56-.08-1.26,8.21H593l.39-7.65-1.57,0-.4,7.67H575.05l-.39-7.67-1.57,0,.39,7.65H557.82l-1.26-8.21-1.56.08,1.25,8.13H543.56l-2-7.47-1.55.13,12,45c.54,2,3.57,3.5,7.19,3.5h47.92c3.63,0,6.65-1.47,7.19-3.5l12.06-45Zm-32,8.36h15.56L607,586.88H592.43Zm-.52,10.18H606.9l-2.32,15.07h-13Zm-17.57,15.07h-13l-2.32-15.07H574Zm-1.29-25.25.48,9.29H559.39L558,577.59Zm-29.72,0h12.58l1.43,9.29H546.28Zm2.72,10.18H558l2.31,15.07h-9.7ZM559.25,617c-2.84,0-5.21-1.15-5.63-2.74l-2.83-10.54h9.61l2,13.28Zm4.76,0-2-13.28h12.89l.68,13.28Zm25.3,0h-12.2l-.68-13.28H590Zm.73-14.17H576.39l-.78-15.07h15.2Zm.32-16H575.57l-.48-9.29h16.24l-.48,9.29Zm.53,30.13.67-13.28h12.89l-2,13.28Zm21.92-2.74c-.43,1.59-2.8,2.74-5.64,2.74H604l2-13.28h9.6Zm3.06-11.43h-9.71l2.32-15.07H619.9Zm4.27-16H608.61l1.43-9.29h12.59Z" fill="#fff"/><path d="M628.84,560.91H537.58a2,2,0,0,0-2,2v4.52a2,2,0,0,0,2,2h91.26a2,2,0,0,0,2-2v-4.52A2,2,0,0,0,628.84,560.91Z" fill="#51759f"/><path d="M589.17,519.5H577.25A25.57,25.57,0,0,0,551.71,545V564.3h3.93V545a21.63,21.63,0,0,1,21.61-21.61h11.92A21.64,21.64,0,0,1,610.79,545V564.3h3.93V545A25.57,25.57,0,0,0,589.17,519.5Z" fill="#51759f"/><path d="M617.48,565.19a4.73,4.73,0,1,1-4.73-4.73A4.72,4.72,0,0,1,617.48,565.19Z" fill="#e9eef8"/><path d="M548.94,565.19a4.73,4.73,0,1,0,4.73-4.73A4.72,4.72,0,0,0,548.94,565.19Z" fill="#e9eef8"/><path d="M600,513.4a23.41,23.41,0,0,0-8.85,4.59c-3.61,3.28-1.64,7.21-4.92,7.86s-8.85,1.32-10.16,0-1-6.88,1.64-10.81,2.95-5.9,6.55-6.23a30.68,30.68,0,0,0,9.51-2.18C596,505.53,600,513.4,600,513.4Z" fill="#c43f52"/><path d="M564.49,468.33c-.74-1.23-7.23-4.67-10.37-9.1s-10.52-8.85-9.54-6.39,3.44,7.13,1.23,6.39a97.47,97.47,0,0,1-11.06-4.91c-3.2-1.73-8.61,10.81-4.18,14s16.22,2.47,19.42,4.55a57.84,57.84,0,0,0,9.34,4.3Z" fill="#c43f52"/><path d="M625.29,436.86s-15.56,46.85-26.38,43.46-32.7-17.89-36.38-16.17-9.84,14.89-8.12,16.17,40.81,28.08,54.09,20.46,33.19-31.28,33.19-31.28Z" fill="#92b2dd"/><g opacity="0.56"><path d="M625.29,436.86s-15.56,46.85-26.38,43.46-32.7-17.89-36.38-16.17-9.84,14.89-8.12,16.17,40.81,28.08,54.09,20.46,33.19-31.28,33.19-31.28Z" fill="#51759f"/></g><path d="M676.6,540.36a3.66,3.66,0,0,1-1.68.82h0a26.93,26.93,0,0,1-3.35.7c-12.55,2-44,2.72-49.28,1.91-6.4-1-7.13-3.19-8.12-31.47,0-.86,0-1.74-.07-2.63-.6-28.25,8.59-70.94,14.55-80.71,6.15-10.08,15.27-11.06,15.27-11.06s21.14-3.2,24.09,0,16.47,33.93,18.19,49.91S679.05,537.16,676.6,540.36Z" fill="#92b2dd"/><path d="M671.55,541.89c-12.55,2-44,2.72-49.28,1.91-6.4-1-7.13-3.19-8.12-31.47,0-.86,0-1.74-.07-2.63,2.91-2.89,5.48-5.35,7.2-7.33,7.38-8.47,42.71-61.58,42.71-61.58s6.46,16-4.11,42.29-41.06,45.73-36.14,52.61,34.42,4.42,43.76-1.72,9.83-3.69,3.93,1.47C667.3,539.06,668.35,541.82,671.55,541.89Z" fill="#51759f"/><path d="M676.6,540.36a3.66,3.66,0,0,1-1.68.82A14.33,14.33,0,0,0,676.6,540.36Z" fill="#fff"/><path d="M676.6,540.36a14.33,14.33,0,0,1-1.68.82,3.66,3.66,0,0,0,1.68-.82Z" fill="#010101"/><path d="M663.81,435.63s3.44,41.3-19.17,64.17-43.27,23.6-45.24,20.4-7.87-15.73-5.65-19.18,23.84.74,35.89-24.58-1-40.81,11.55-48.43S663.73,424.81,663.81,435.63Z" fill="#92b2dd"/><path d="M650.23,677.78s2.52-38.35,3-49.65,0-49.17,0-49.17,7.87,54.57,6.39,75.22-3.93,25.57,7.38,36.88,14.64,28.48,14.64,28.48Z" fill="#23375c"/><path d="M149.15,339s-3.83-4.56-12.8-5.57-25.67,9.87-26.68,17.46-3.73,11.64-12.49,8.86S85.24,369.87,90,379s-9.12,2.28-17.49,8.86,5,31.28.74,36.64,9.11,22.06,18,22.82,41.49-.51,54.15-3,13.41-17.61,12.9-25.25-6.07-11.9-2-17.11,2-11.53,4.3-15.84,7.34-31.12,0-39.22S149.15,339,149.15,339Z" fill="#481f54"/><path d="M146.81,788.11c-6.21-.66-21.2-7.09-27.39-11.12s-10.88.12-13.17-6,4.14-11.77,6.51-17.21c.28-.64.58-1.35.89-2.17,2.35-6.15,5.65-17.73,8.8-40.14,3.56-25.38,7.74-43.36,7.8-45.36l25.42,9.55S135.18,737.56,134.26,740s-3.76,11.49-1.61,16.84c.67,1.69,1.44,3.47,2.34,5.3a48.24,48.24,0,0,0,8.27,12.1c5.42,5.73,11.93,8.34,12,9.09S153,788.79,146.81,788.11Z" fill="#f79e86"/><path d="M146.81,788.11c-6.21-.66-21.2-7.09-27.39-11.12s-10.88.12-13.17-6,4.14-11.77,6.51-17.21c.28-.64.58-1.35.89-2.17a23.58,23.58,0,0,1,4.75,5.33c2.48,4.36,11.16,6.13,16.59,5.19a48.24,48.24,0,0,0,8.27,12.1c5.42,5.73,11.93,8.34,12,9.09S153,788.79,146.81,788.11Z" fill="#b04f3b"/><path d="M112.36,791.92c-6.2.73-22.25-2.19-29.18-4.74S72.6,789.73,69,784.26s1.42-12.4,2.51-18.24c.13-.68.26-1.44.38-2.31.92-6.52,1.55-18.54-.38-41.09-2.19-25.54-2.12-44-2.51-46l26.91,3.64s-6.16,64.93-6.53,67.48-1.09,12,2.19,16.78c1,1.49,2.18,3.06,3.47,4.64a48.17,48.17,0,0,0,10.76,9.95c6.56,4.38,13.49,5.47,13.68,6.2S118.56,791.19,112.36,791.92Z" fill="#f79e86"/><path d="M112.36,791.92c-6.2.73-22.25-2.19-29.18-4.74S72.6,789.73,69,784.26s1.42-12.4,2.51-18.24c.13-.68.26-1.44.38-2.31a23.67,23.67,0,0,1,5.82,4.13C81.1,771.54,90,771.33,95,769.2a48.17,48.17,0,0,0,10.76,9.95c6.56,4.38,13.49,5.47,13.68,6.2S118.56,791.19,112.36,791.92Z" fill="#b04f3b"/><path d="M76.67,399c1.17.42,2.33.84,3.49,1.29s2.7.79,3.37,1.82,2,.06,1.42-.82a5.41,5.41,0,0,0-2.76-1.95q-2.52-1-5.08-1.92c-1-.35-1.43,1.23-.44,1.58Z" fill="#e8887e"/><path d="M75,403.67c.8-.83,2.64-.68,3.65-.52a7.82,7.82,0,0,1,3.23,1.35c.87.61,1.69-.82.82-1.41-2.17-1.51-6.7-2.83-8.86-.58-.73.76.43,1.92,1.16,1.16Z" fill="#e8887e"/><path d="M73.85,408.08a4.27,4.27,0,0,1,5.46-.1c.86.62,1.68-.8.83-1.42a5.91,5.91,0,0,0-7.45.35c-.81.69.35,1.84,1.16,1.17Z" fill="#e8887e"/><path d="M110.76,404.33v11.34a53,53,0,0,1-10.31,2.57c-.57.06-1.12.11-1.65.12a12.67,12.67,0,0,1-1.76,0c-2.15-.22-5.55-1.56-8.86-3.23l-1.57-.81c-1.47-.79-2.88-1.61-4.1-2.39-.57-.37-1.1-.72-1.58-1.07a10.46,10.46,0,0,1-2.49-2.18c-1.46-2.3,1.1-7.37,3.47-9.74.88-.89,2-.7,3.44.1a14.64,14.64,0,0,1,1.4.87c1.09.73,2.34,1.68,3.77,2.69l1.34.93c1.23.84,2.6,1.7,4.09,2.52a11.88,11.88,0,0,0,1.72.78,11.74,11.74,0,0,0,1.62.47C105.56,408.6,110.76,404.33,110.76,404.33Z" fill="#e8887e"/><path d="M86.75,399.87a22.24,22.24,0,0,0-4.24,12c-.57-.37-1.1-.72-1.58-1.07A23.72,23.72,0,0,1,85.35,399,14.64,14.64,0,0,1,86.75,399.87Z" fill="#f16f5c"/><path d="M91.86,403.49a27.4,27.4,0,0,0-3.68,11.6l-1.57-.81a29,29,0,0,1,3.91-11.72Z" fill="#f16f5c"/><path d="M100.45,418.24c-.57.06-1.12.11-1.65.12a35.53,35.53,0,0,1-1.13-11.57,11.74,11.74,0,0,0,1.62.47A33.92,33.92,0,0,0,100.45,418.24Z" fill="#f16f5c"/><path d="M144,418.32s8.77,1.92,11.77,8.48,4.65,33.38,5.74,46.51.55,20.24,3,20.79S191.06,488.63,196,487s8.21-2.18,10.67-5.74,4.93-3,4.93-3l-7.39,22.71a37,37,0,0,0-5.75,0c-1.91.27-23,5.74-30.91,8.75s-18,.15-21.24-10.94-7.76-39.4-9.67-47.6S144,418.32,144,418.32Z" fill="#f79e86"/><g opacity="0.21"><path d="M144,418.32s8.77,1.92,11.77,8.48,4.65,33.38,5.74,46.51.55,20.24,3,20.79S191.06,488.63,196,487s8.21-2.18,10.67-5.74,4.93-3,4.93-3l-7.39,22.71a37,37,0,0,0-5.75,0c-1.91.27-23,5.74-30.91,8.75s-18,.15-21.24-10.94-7.76-39.4-9.67-47.6S144,418.32,144,418.32Z" fill="#c43f52"/></g><path d="M211.58,478.23,215.69,463a2.2,2.2,0,0,1,2.54-1.57l14,2.73a2.18,2.18,0,0,1,1.69,2.71l-10.78,40.06a2.19,2.19,0,0,1-2.64,1.56l-15.09-3.74a2.2,2.2,0,0,1-1.56-2.8Z" fill="#481f54"/><path d="M217.46,465.24s13.4,1.77,13.54,4.24-7.83,33.51-9.46,33.78-13.38-.13-13-3.55S216.1,465,217.46,465.24Z" fill="#cdddf1"/><path d="M230.86,485.48s-.55-4.51-3-4.38-3.83,2.33-4.65,5.34-3.28,11.76,0,12S231.94,488.69,230.86,485.48Z" fill="#f79e86"/><path d="M178.92,677.58a5.89,5.89,0,0,1-.72,2c-3,4.65-8.75,1.1-18.88,7.12a108.28,108.28,0,0,1-20,9.39A53.47,53.47,0,0,1,125.4,699H125c-9.47.34-16.25-4.43-31.15-4.11-1.52,0-3.12.12-4.82.27-.72.06-1.44.1-2.17.12A57.46,57.46,0,0,1,70.3,693a108.83,108.83,0,0,1-20-7.91,56.33,56.33,0,0,1-8.3-4.93c-1.72-1.37-2.38-5.74-1.9-13.56.35-5.71,1.32-13.25,2.92-22.81,1-5.74,2.17-12.2,3.61-19.43q1.14-5.7,2.48-12,.75-3.53,1.56-7c9.7-41.6,26.7-81.28,28.26-85.16,1.64-4.11,3-5.48,2.46-11.22s7.93-39.39,9.3-46,6.29-11.49,7.11-28.18-5.2-23.52-5.2-23.52l15.32-1.64a6.44,6.44,0,0,1,5.75,1.64c2.46,2.46,14.22,14.77,20.52,13.4a17.86,17.86,0,0,0,9.84-6.29l1.92,3.28c1.91,3.29,9.3,36.11,9.3,39.12s-2.46,9.3-6.29,16.69-2.19,24.89-2.74,29.82,1.64,11.21,2.74,14.77,7.66,24.35,9,29.55,19.15,93.83,18.87,98.21a70.73,70.73,0,0,0,.95,9C178.68,665.24,179.75,673.34,178.92,677.58Z" fill="#ffd38e"/><path d="M178.92,677.58c-7.14-2.37-24.3-.7-29.72,6-6.2,7.66-24.79,5.11-29.72,0s-23.9,1.1-30.46,2.19-19-5.1-25.17-12-10.94-9-20.79-7.8a18.8,18.8,0,0,0-3,.62c.35-5.71,1.32-13.25,2.92-22.81,7.73.53,17.82,3,24.14,13.21C77.71,674.1,81.54,668.27,96,665.72s15.6-5.21,23.44,3,14,10.45,21.7,3.52,14.59-9.49,21.15-7.3c5.23,1.74,10.69-5.68,15.45-6.23C178.68,665.24,179.75,673.34,178.92,677.58Z" fill="#f69782"/><path d="M50.64,605.25c8.54-2.37,25.21-3.7,25.25-3.86S73.15,668.53,70.3,693a108.83,108.83,0,0,1-20-7.91c5.64-14.1,14.58-31.23,16.14-37.21C69,638,56.92,632.52,50,628.14a9.94,9.94,0,0,1-3.44-3.82q1.14-5.7,2.48-12Q49.83,608.75,50.64,605.25Z" fill="#f69782" opacity="0.72"/><path d="M93.84,694.9c-1.52,0-3.12.12-4.82.27-.72.06-1.44.1-2.17.12C93,673.91,99.59,631.45,101,626.68,102.64,621,96.84,677.08,93.84,694.9Z" fill="#f69782" opacity="0.72"/><path d="M139.28,696.08A53.47,53.47,0,0,1,125.4,699H125c1.87-25.76,7.5-87.08,9.62-82.54S137.89,672.89,139.28,696.08Z" fill="#f69782" opacity="0.72"/><path d="M155.77,496.84c.12-3-2.52-8.71-2.78-9a4.32,4.32,0,0,0-1.42-.85c-2.37-.91-8.93,1.1-12.22,1.1s-6.19-.55-8.38-.18-30.64-.37-32.83-.73-10-3.47-10.4-4S91,461.67,91,461.67s16.83-42.35,1.6-50.46c0,0-8.48-3-14.22,12.58s-18.88,76-3.28,80.43,39.12-2.19,46-3.56,17-7.66,20.24-4.37c.6.59,1.22,1.19,1.87,1.8l0,0,.05.05,1.34,1.26c-.16-.15-1.5.7,0,2.61s4.11,1.37,7.11,0a7.66,7.66,0,0,0,3.42-3.53l.28-.3a2.24,2.24,0,0,0,.41-1.36Z" fill="#f79e86"/><path d="M138.25,427.52a41.67,41.67,0,0,1-6.93,9.07c-.41.41-.83.8-1.27,1.18a22.67,22.67,0,0,1-7.8,4.67c-.51.17-1,.31-1.57.44a14.79,14.79,0,0,1-4.12.33,10.33,10.33,0,0,1-3.17-.66h0a9.22,9.22,0,0,1-1.81-.89c-3.14-1.94-5.24-5.48-6.65-9.32-.25-.67-.47-1.36-.68-2a55.38,55.38,0,0,1-1.85-9.22c-.08-.59-.14-1.15-.2-1.65-.11-1.17-.18-2.08-.23-2.65a4.61,4.61,0,0,1,.64-2.61,9.64,9.64,0,0,1,1.25-1.77,21.78,21.78,0,0,1,4.47-3.75l3.41,3.21-.17.48c-.12.37-.29.91-.5,1.6-.3,1-.65,2.39-.94,3.91-.1.53-.19,1.09-.27,1.66a26.7,26.7,0,0,0-.29,4c0,.27,0,.52,0,.77a7.64,7.64,0,0,0,.37,1.88,6.65,6.65,0,0,0,3.78,4,13.33,13.33,0,0,0,1.54.6,24.81,24.81,0,0,0,4.31.88c.16,0,.33,0,.5.06a6.45,6.45,0,0,0,1.15,0,6.31,6.31,0,0,0,4-1.48,7.54,7.54,0,0,0,1.15-1.19,9.8,9.8,0,0,0,1.61-3.16Z" fill="#e8887e"/><path d="M81.36,508.87a72.52,72.52,0,0,0,29.47,8.21c17.31,1.09,33.52-6.29,35.68-4.1s3.51,6.83,2.42,9-22.93,5.11-33.59,4.62-33.71-5.21-35.08-9.7A10,10,0,0,1,81.36,508.87Z" fill="#f69782"/><path d="M135.39,510.24c-1.1.13-20.14-.41-20.18,2.32,0,0-.12,5.92,0,10s.34,6.15,3.49,6.84,18.47-.41,19.56-2S136.48,510.1,135.39,510.24Zm-1.6,15.32c-2.78,1.23-11.94,1-12.9,0s-2.41-10.52-1.41-10.74c0,0,13.73-3.13,13.86-.76S136.58,524.33,133.79,525.56Z" fill="#b04f3b"/><path d="M111.57,412.33c-.12.37-.29.91-.5,1.6a32.61,32.61,0,0,0-6.17,0c-.63.06-1.43.13-2.29.25a9.64,9.64,0,0,1,1.25-1.77A34.86,34.86,0,0,1,111.57,412.33Z" fill="#f16f5c"/><path d="M110.13,417.84c-.1.53-.19,1.09-.27,1.66a23,23,0,0,0-7.46,1.57c-.08-.59-.14-1.15-.2-1.65A27.72,27.72,0,0,1,110.13,417.84Z" fill="#f16f5c"/><path d="M110,426.17a26,26,0,0,0-5,6.17c-.25-.67-.47-1.36-.68-2a30.52,30.52,0,0,1,5.36-6A7.64,7.64,0,0,0,110,426.17Z" fill="#f16f5c"/><path d="M113.39,442.55a9.22,9.22,0,0,1-1.81-.89,21.12,21.12,0,0,1,2.18-11.48,13.33,13.33,0,0,0,1.54.6A19.05,19.05,0,0,0,113.39,442.55Z" fill="#f16f5c"/><path d="M122.25,442.44c-.51.17-1,.31-1.57.44a23.42,23.42,0,0,1-1.07-11.22c.16,0,.33,0,.5.06a6.45,6.45,0,0,0,1.15,0A21.66,21.66,0,0,0,122.25,442.44Z" fill="#f16f5c"/><path d="M131.32,436.59c-.41.41-.83.8-1.27,1.18-.22-.48-.46-.95-.72-1.42a57,57,0,0,0-4-6.06,7.54,7.54,0,0,0,1.15-1.19,55.88,55.88,0,0,1,4.76,7.25Z" fill="#f16f5c"/><path d="M133,487.26s-3,2.67-1.89,6.2,2.3,4.29,1.75,4.65-3.06.18-3.12-.36-2-6-1.05-8.58,1.78-2.74,2-2.74S133,487.26,133,487.26Z" fill="#481f54"/><path d="M145.86,359.75s-11,9.36-18.9,11.13a29.34,29.34,0,0,1-13.73,0l2.39,4.3s-4.9.51-6.69,4.31.73,9.61,3.4,10.62a38.4,38.4,0,0,0,3.71,1.27s-2.76,13,1.77,17.69,18.81,9.55,21.28,8.58,8.54-7.85,10.82-14.66,1.52-10.85,2.53-12.62,4.56-7.85,4.81-10.88-3.28-9.87-3.28-9.87-.52,3-3.05-1.27Z" fill="#f79e86"/><path d="M133.83,382c-.41,2-1.54,3.43-2.53,3.23s-1.47-2-1.06-4,1.54-3.43,2.53-3.23S134.24,380,133.83,382Z" fill="#481f54"/><path d="M150,386.44c-.41,2-1.54,3.43-2.53,3.22s-1.47-2-1.06-4,1.54-3.43,2.53-3.22S150.44,384.45,150,386.44Z" fill="#481f54"/><path d="M134.48,397.32A.51.51,0,0,1,134,397a.5.5,0,0,1,.29-.65,12.45,12.45,0,0,0,3.5-1.83c-.09-.63-.31-1.28-1.87-3.81a2.49,2.49,0,0,1-.28-2c.63-2.45,4.5-4.66,4.66-4.75a.51.51,0,1,1,.5.88c-1,.58-3.75,2.44-4.18,4.12a1.52,1.52,0,0,0,.16,1.2c1.68,2.72,1.91,3.43,2,4.3,0,.28.15,1.15-4.14,2.81Z" fill="#c43f52"/><path d="M135.32,405.94a8.68,8.68,0,0,1-3.45-.68,6.2,6.2,0,0,1-3.63-5.68.48.48,0,0,1,.52-.48.5.5,0,0,1,.49.52,5.06,5.06,0,0,0,3,4.71,9.2,9.2,0,0,0,6.64-.1.51.51,0,0,1,.67.26.51.51,0,0,1-.26.67A10.64,10.64,0,0,1,135.32,405.94Z" fill="#c43f52"/><path d="M131.05,374.55a4.57,4.57,0,0,1,5.37.22c.78.59,1.54-.73.76-1.31a6,6,0,0,0-6.9-.22c-.82.53-.06,1.84.77,1.31Z" fill="#481f54"/><path d="M149,378.6a3.79,3.79,0,0,1,3.92,1.79c.51.83,1.83.07,1.31-.77a5.38,5.38,0,0,0-5.63-2.49c-1,.18-.56,1.64.4,1.47Z" fill="#481f54"/><path d="M41.14,618.57S68.77,531,71.24,532s14,4,25.71,5.34,25.86.27,27.43,4.1,4.58,87.27,2.12,90.83S42,631.43,41.14,618.57Z" fill="#e9eef8"/><path d="M28.83,609.54c-.14-2.47,34.75-76.9,35.57-77.57s6.84,0,6.84,0l-29.61,88.1S29.11,614.19,28.83,609.54Z" fill="#92b2dd"/><path d="M87.09,544.62a2.81,2.81,0,1,1-2.8-2.81A2.8,2.8,0,0,1,87.09,544.62Z" fill="#51759f"/><path d="M106.59,547.42a2.8,2.8,0,1,1-2.8-2.8A2.8,2.8,0,0,1,106.59,547.42Z" fill="#51759f"/><path d="M84.83,544.68l-1.09-.12C83.92,543,88,506.39,94,495.48c3.75-6.83,7.21-10.36,10.28-10.51a4.6,4.6,0,0,1,4,2.34l-.9.62a3.57,3.57,0,0,0-3.08-1.87c-1.84.09-4.95,1.89-9.38,9.94C89.07,506.73,84.87,544.3,84.83,544.68Z" fill="#51759f"/><rect x="83.35" y="525.01" width="43.82" height="1.09" transform="translate(-426.21 595.13) rotate(-86.13)" fill="#51759f"/><path d="M83.18,643.46s6.93-90.82,11.31-91.55,57.63-3,58,2.32,3.29,79.39,3.28,81.94S85.37,646.75,83.18,643.46Z" fill="#fff"/><path d="M94.49,551.91s-4.37-1.84-4.92-.56S66,633.07,69.32,636.62s13.86,6.84,13.86,6.84Z" fill="#92b2dd"/><path d="M115.21,566.75a2.81,2.81,0,1,1-2.8-2.8A2.8,2.8,0,0,1,115.21,566.75Z" fill="#51759f"/><path d="M135.39,566.75a2.81,2.81,0,1,1-2.81-2.8A2.81,2.81,0,0,1,135.39,566.75Z" fill="#51759f"/><path d="M133.08,567l-1-.45c3.71-8.28-.93-68.85-1-69.46l1.09-.08C132.39,499.49,136.9,558.44,133.08,567Z" fill="#51759f"/><path d="M111.86,566.8c-.2-2.28-4.83-56,0-70.14,2-5.75,4.5-9.11,7.53-10a5.77,5.77,0,0,1,5,.89l-.68.86a4.6,4.6,0,0,0-4-.69c-2.62.77-5,4-6.78,9.29-4.79,13.95,0,69.14,0,69.69Z" fill="#51759f"/><path d="M144.28,424.61a14.88,14.88,0,0,1-4.88,2.5c-.55.21-1.13.41-1.73.6a47,47,0,0,1-11.15,2.36c-.42,0-.83,0-1.21,0a2.37,2.37,0,0,1-.52-.06h0c-2.55-.51-6.14-3.95-9.36-7.9-.37-.45-.74-.92-1.1-1.39-1-1.28-1.92-2.58-2.75-3.82-.4-.59-.78-1.17-1.12-1.73-1.62-2.61-2.64-4.77-2.56-5.61,0,0,4.65-10.67,7.76-8.12l2.19,1.81c.39.33.81.67,1.25,1,1.33,1.06,2.85,2.24,4.43,3.35.44.32.9.62,1.35.92a36.77,36.77,0,0,0,3.91,2.3c.53.26,1.06.49,1.57.7a12.73,12.73,0,0,0,1.53.48,14.37,14.37,0,0,0,4.85.15c.57-.05,1.11-.13,1.65-.2,3-.4,5.47-.77,5.9,1.51C145,417.32,146.1,422.6,144.28,424.61Z" fill="#f16f5c"/><path d="M119.09,404.28a32,32,0,0,0-3.69,5.54c-1.34,2.3-3.06,4.54-3.83,7.09-.4-.59-.78-1.17-1.12-1.73a61.39,61.39,0,0,1,4-7,28.91,28.91,0,0,1,3.37-4.88C118.23,403.59,118.65,403.93,119.09,404.28Z" fill="#f49a82"/><path d="M124.87,408.55a81.41,81.41,0,0,0-9.45,13.57c-.37-.45-.74-.92-1.1-1.39a86.08,86.08,0,0,1,9.2-13.1C124,408,124.42,408.25,124.87,408.55Z" fill="#f49a82"/><path d="M130.35,411.55c-.64,6.31-1.53,12.61-3.83,18.52-.42,0-.83,0-1.21,0a2.37,2.37,0,0,1-.52-.06c2.48-6.08,3.34-12.64,4-19.17C129.31,411.11,129.84,411.34,130.35,411.55Z" fill="#f49a82"/><path d="M139.4,427.11c-.55.21-1.13.41-1.73.6a39.41,39.41,0,0,0-.94-15.53c.57-.05,1.11-.13,1.65-.2A40.94,40.94,0,0,1,139.4,427.11Z" fill="#f49a82"/><path d="M751.31,239.3H668a4.92,4.92,0,0,0-4.92,4.92V296.6a4.92,4.92,0,0,0,4.92,4.92h9.76L675.58,314a1.64,1.64,0,0,0,2.77,1.45l14.15-13.94h58.81a4.93,4.93,0,0,0,4.93-4.92V244.22A4.93,4.93,0,0,0,751.31,239.3Z" fill="#e9eef8"/><path d="M723.84,264c-3.29-11.69-15.16-1.46-15.16-1.46S696.8,252.29,693.51,264s15.17,22.35,15.17,22.35S727.13,275.68,723.84,264Z" fill="#92b2dd"/><path d="M4.92,246.66H88.27a4.93,4.93,0,0,1,4.93,4.93V304a4.93,4.93,0,0,1-4.93,4.92H78.51l2.15,12.49a1.64,1.64,0,0,1-2.77,1.44L63.74,308.89H4.92A4.92,4.92,0,0,1,0,304V251.59A4.93,4.93,0,0,1,4.92,246.66Z" fill="#e9eef8"/><path d="M32.4,271.35c3.29-11.69,15.16-1.46,15.16-1.46s11.88-10.23,15.17,1.46-15.17,22.34-15.17,22.34S29.11,283,32.4,271.35Z" fill="#92b2dd"/><rect x="46.6" y="784.76" width="699.11" height="12" rx="3" fill="#cdddf1"/><rect x="120.63" y="808.83" width="288.07" height="12" rx="3" fill="#cdddf1"/><rect x="449.23" y="808.83" width="288.07" height="12" rx="3" fill="#cdddf1"/><path d="M531.65,736c-5.43-4.34-14.11-4.57-20.68-5.3-9.2-1-17.18-2-26.34-.26-5.88,1.14-16.62,1.66-21.5,5.56-5.91,4.74-.74,34.21,2.61,50.29a13.12,13.12,0,0,0,12.85,10.44h37.6a13.13,13.13,0,0,0,12.86-10.44C532.39,770.24,537.57,740.77,531.65,736Z" fill="#51759f"/><path d="M500.43,717.89s1.28-19.61,25.9-30,26.53-6.84,21.88,1.36-25.52,23.26-31.91,27.09S500.25,724.63,500.43,717.89Z" fill="#f16f5c"/><path d="M489,718.91S488,712,475.17,704.3s-29-11.22-26.53-7.11,7.66,12.58,15,18S489,718.91,489,718.91Z" fill="#e8887e"/><path d="M492.22,689.35c-.31-.56-19.78-.53-38.39-12.08s-19.42-21.67-14.77-20.84,25.44.54,38.3,9S492.22,689.35,492.22,689.35Z" fill="#f16f5c"/><path d="M494.06,668.27s-13.14-10.48-21.9-22.79S447.54,614,456.57,617s16.59,3.51,27.31,16.8S494.06,668.27,494.06,668.27Z" fill="#e8887e"/><path d="M497.57,668.27s-3.73-8.84.34-32.64,21.31-44.19,22.95-37.69-4.51,38.52-11.42,50.83S497.57,668.27,497.57,668.27Z" fill="#f16f5c"/><path d="M500.43,687s-2.4-11.41,9-25.63,33.85-24.31,32.48-18.86S529.78,682.25,500.43,687Z" fill="#e8887e"/><path d="M497.94,729.55l-1.09,0c0-.38-1.15-38.29,0-55.35s10.84-35.87,10.94-36l1,.5c-.1.19-9.69,18.71-10.82,35.62-.9,13.38-.39,39.64-.13,50.44a38.08,38.08,0,0,1,5.92-12.22c6.09-8.31,18.21-9.48,18.72-9.53l.1,1.09c-.12,0-12.14,1.18-17.94,9.08A36.67,36.67,0,0,0,497.94,729.55Z" fill="#51759f"/><path d="M497.57,683.14h-1.1c0-28-26-48.24-26.28-48.44l.66-.87C471.12,634,497.58,654.65,497.57,683.14Z" fill="#51759f"/><path d="M497.05,700.06l-.68-1.86c-.05-.14-5.07-13.63-13-20.52s-22.89-8.85-23-8.87l.14-1.09c.62.08,15.5,2,23.62,9.14,6.51,5.68,11,15.39,12.6,19.29,3.65-14.4,18.19-27.71,18.84-28.29l.73.81c-.16.15-16.12,14.75-18.88,29.44Z" fill="#51759f"/><path d="M496.88,729.68c-5.78-16.95-31.64-20.43-31.9-20.46l.14-1.09c.27,0,26.79,3.61,32.79,21.2Z" fill="#51759f"/><rect x="256.22" y="648.08" width="146.53" height="28.81" rx="4" fill="#f16f5c"/><rect x="213.77" y="648.08" width="46.87" height="28.81" rx="4" fill="#e8887e"/><path d="M236.66,784.47H343.3a17,17,0,0,0,17-17V676.89H219.66v90.58A17,17,0,0,0,236.66,784.47Z" fill="#c1736b"/><path d="M281.3,784.47h98.08a17,17,0,0,0,17-17V676.89H264.3v90.58A17,17,0,0,0,281.3,784.47Z" fill="#e8887e"/><rect x="318.54" y="648.08" width="28.81" height="28.81" transform="translate(665.9 1324.97) rotate(180)" fill="#fff"/><g opacity="0.71"><rect x="227.58" y="648.08" width="11.25" height="28.81" fill="#fff"/></g><g opacity="0.71"><rect x="229.6" y="676.89" width="11.05" height="107.58" fill="#fff"/></g><g opacity="0.71"><rect x="316.26" y="676.89" width="25.06" height="107.58" fill="#fff"/></g><path d="M289.18,635.55s-25-17.7-33-11.94-4.08,24.47-4.08,24.47h7.68s-4.39-11.18,1.92-15.63,27.44,7.82,27.44,7.82Z" fill="#fff"/><path d="M317.45,638.16s28.26-26.62,37.59-18.11,3.07,28,3.07,28H352s2.2-24.19-4.66-23.64-27.17,15.83-27.17,15.83Z" fill="#fff"/><path d="M327.23,648.08s3.48-15.23-8.69-15.23-27.9-1.93-29.36,2.7S287,648.08,287,648.08Z" fill="#fff"/><rect x="119.59" y="75.1" width="8.84" height="173.13" rx="4" fill="#e9eef8"/><rect x="633.97" y="196.23" width="8.84" height="95.43" rx="4" fill="#e9eef8"/><rect x="633.97" y="61.31" width="8.84" height="95.43" rx="4" fill="#e9eef8"/><path d="M682.15,188.9a28.68,28.68,0,0,1-8.29-2.42,23.31,23.31,0,0,1-6.6-4.5l2.87-4.27a2.85,2.85,0,0,1,1-.92,2.59,2.59,0,0,1,1.31-.36,3.39,3.39,0,0,1,1.77.58q.94.59,2.16,1.38a28.18,28.18,0,0,0,2.76,1.59,13.23,13.23,0,0,0,3.66,1.17l1.44-16.92c-1.79-.51-3.56-1.1-5.31-1.79a17.44,17.44,0,0,1-4.72-2.71,12.55,12.55,0,0,1-3.39-4.26,15.58,15.58,0,0,1-.13-12.07,14.91,14.91,0,0,1,3.35-4.91,17.56,17.56,0,0,1,5.4-3.56,18.18,18.18,0,0,1,7.37-1.41l.42-4.81a2.7,2.7,0,0,1,.75-1.64,2.35,2.35,0,0,1,1.78-.72h3.44l-.64,7.42a21,21,0,0,1,6.91,2.27,25.16,25.16,0,0,1,5.07,3.66l-2.27,3.44a4.67,4.67,0,0,1-1.06,1.13,2.09,2.09,0,0,1-1.28.38,3.32,3.32,0,0,1-1.35-.36q-.77-.36-1.77-.87c-.67-.34-1.41-.68-2.21-1a14.15,14.15,0,0,0-2.69-.87l-1.32,15.64c1.82.56,3.61,1.17,5.39,1.83a20.08,20.08,0,0,1,4.8,2.59,12.65,12.65,0,0,1,3.46,3.95,12,12,0,0,1,1.32,5.91,18.39,18.39,0,0,1-1.17,6.59,16.13,16.13,0,0,1-3.42,5.44,17.25,17.25,0,0,1-5.54,3.84,22.15,22.15,0,0,1-7.52,1.77l-.46,5.56a2.67,2.67,0,0,1-.75,1.6,2.33,2.33,0,0,1-1.78.74h-3.44Zm-3.82-40.73a6.08,6.08,0,0,0,.5,2.53,6,6,0,0,0,1.38,2,10.09,10.09,0,0,0,2.09,1.51,19.61,19.61,0,0,0,2.65,1.19l1.17-14a13.44,13.44,0,0,0-3.55.88,8,8,0,0,0-2.42,1.53,5.65,5.65,0,0,0-1.38,2A6.43,6.43,0,0,0,678.33,148.17Zm18.37,24.71a5.8,5.8,0,0,0-.51-2.51,6.14,6.14,0,0,0-1.43-1.91,9.25,9.25,0,0,0-2.18-1.43,21.4,21.4,0,0,0-2.72-1.1l-1.28,15.34a9.9,9.9,0,0,0,6.06-2.7A7.91,7.91,0,0,0,696.7,172.88Z" fill="#cdddf1"/><path d="M17.91,473.93a28.76,28.76,0,0,1-8.29-2.41A23.45,23.45,0,0,1,3,467l2.87-4.27a2.92,2.92,0,0,1,1-.93,2.55,2.55,0,0,1,1.3-.36,3.44,3.44,0,0,1,1.78.59c.63.39,1.34.85,2.15,1.38s1.73,1.05,2.76,1.58a12.87,12.87,0,0,0,3.67,1.17L20,449.26c-1.79-.5-3.56-1.1-5.31-1.78A17.44,17.44,0,0,1,10,444.77a12.55,12.55,0,0,1-3.39-4.26,15.61,15.61,0,0,1-.13-12.08,14.87,14.87,0,0,1,3.35-4.9,17.76,17.76,0,0,1,5.4-3.57,18.35,18.35,0,0,1,7.37-1.4l.42-4.81a2.67,2.67,0,0,1,.75-1.64,2.36,2.36,0,0,1,1.78-.73H29l-.64,7.43a20.74,20.74,0,0,1,6.91,2.27,25.16,25.16,0,0,1,5.07,3.66L38,428.18A4.49,4.49,0,0,1,37,429.31a2.15,2.15,0,0,1-1.28.38,3.24,3.24,0,0,1-1.34-.36c-.52-.24-1.11-.53-1.78-.87s-1.41-.69-2.21-1a15.72,15.72,0,0,0-2.69-.87L26.34,442.2c1.82.55,3.61,1.16,5.39,1.83a19.74,19.74,0,0,1,4.8,2.59A12.54,12.54,0,0,1,40,450.57a12,12,0,0,1,1.32,5.91,18.39,18.39,0,0,1-1.17,6.59,16.07,16.07,0,0,1-3.42,5.44,17.56,17.56,0,0,1-5.54,3.84,22.15,22.15,0,0,1-7.52,1.77l-.46,5.55a2.7,2.7,0,0,1-.75,1.61,2.32,2.32,0,0,1-1.78.74H17.23ZM14.1,433.2a6.12,6.12,0,0,0,.49,2.54A5.84,5.84,0,0,0,16,437.68a9.77,9.77,0,0,0,2.09,1.52,20.94,20.94,0,0,0,2.65,1.19l1.17-14a13.53,13.53,0,0,0-3.55.89,8.1,8.1,0,0,0-2.42,1.53,5.7,5.7,0,0,0-1.38,2A6.46,6.46,0,0,0,14.1,433.2Zm18.37,24.72a5.63,5.63,0,0,0-.52-2.51,5.88,5.88,0,0,0-1.43-1.91,9.42,9.42,0,0,0-2.17-1.44A23.88,23.88,0,0,0,25.62,451L24.34,466.3a9.84,9.84,0,0,0,6.07-2.7A7.93,7.93,0,0,0,32.47,457.92Z" fill="#cdddf1"/><path d="M727.41,535.81a21.09,21.09,0,0,1-6.19-1.81,17.43,17.43,0,0,1-4.92-3.35l2.14-3.19a2.26,2.26,0,0,1,.75-.69,1.9,1.9,0,0,1,1-.27,2.56,2.56,0,0,1,1.33.44c.47.29,1,.63,1.61,1a21,21,0,0,0,2.06,1.18,9.62,9.62,0,0,0,2.73.88L729,517.4c-1.33-.38-2.65-.82-4-1.33a13.34,13.34,0,0,1-3.53-2,9.4,9.4,0,0,1-2.52-3.19,11.57,11.57,0,0,1-.1-9,11.19,11.19,0,0,1,2.5-3.67,13.07,13.07,0,0,1,4-2.65,13.59,13.59,0,0,1,5.5-1.05l.31-3.59a2,2,0,0,1,.57-1.23,1.72,1.72,0,0,1,1.32-.54h2.57l-.48,5.54a15.82,15.82,0,0,1,5.16,1.7,18.51,18.51,0,0,1,3.78,2.73l-1.69,2.56a3.67,3.67,0,0,1-.79.85,1.62,1.62,0,0,1-1,.28,2.55,2.55,0,0,1-1-.26c-.39-.18-.83-.4-1.33-.65s-1.05-.52-1.65-.78a11.73,11.73,0,0,0-2-.65l-1,11.68c1.36.41,2.69.87,4,1.37a14.13,14.13,0,0,1,3.58,1.93,9.23,9.23,0,0,1,2.58,2.94,8.93,8.93,0,0,1,1,4.41,13.76,13.76,0,0,1-.87,4.92,12.11,12.11,0,0,1-2.56,4.06,12.75,12.75,0,0,1-4.13,2.86A16.33,16.33,0,0,1,731.7,536l-.34,4.14a2.08,2.08,0,0,1-.56,1.2,1.71,1.71,0,0,1-1.33.55H726.9Zm-2.85-30.39a4.52,4.52,0,0,0,.37,1.89,4.58,4.58,0,0,0,1,1.45,7.44,7.44,0,0,0,1.56,1.13,15.74,15.74,0,0,0,2,.89l.87-10.44a10.16,10.16,0,0,0-2.65.66,5.75,5.75,0,0,0-1.8,1.15,4.12,4.12,0,0,0-1,1.5A4.8,4.8,0,0,0,724.56,505.42Zm13.71,18.44a4.18,4.18,0,0,0-1.45-3.3,7,7,0,0,0-1.62-1.07,18.25,18.25,0,0,0-2-.82l-1,11.44a7.3,7.3,0,0,0,4.52-2A5.9,5.9,0,0,0,738.27,523.86Z" fill="#cdddf1"/><path d="M68.06,182a21.38,21.38,0,0,1-6.19-1.8A17.43,17.43,0,0,1,57,176.83l2.14-3.19a2.26,2.26,0,0,1,.75-.69,1.92,1.92,0,0,1,1-.27,2.47,2.47,0,0,1,1.33.44l1.61,1a22.15,22.15,0,0,0,2.06,1.19,10,10,0,0,0,2.73.87l1.07-12.63c-1.33-.37-2.65-.82-4-1.32a13.31,13.31,0,0,1-3.52-2A9.36,9.36,0,0,1,59.6,157a10.7,10.7,0,0,1-1-4.81,10.85,10.85,0,0,1,.86-4.2,11.42,11.42,0,0,1,2.5-3.66,13.27,13.27,0,0,1,4-2.66,13.59,13.59,0,0,1,5.5-1l.31-3.59a2,2,0,0,1,.57-1.23,1.73,1.73,0,0,1,1.32-.54H76.3l-.48,5.54A15.82,15.82,0,0,1,81,142.54a18.54,18.54,0,0,1,3.78,2.74l-1.69,2.56a3.67,3.67,0,0,1-.79.85,1.6,1.6,0,0,1-1,.28,2.42,2.42,0,0,1-1-.27c-.39-.18-.83-.39-1.33-.65s-1-.51-1.65-.77a11.73,11.73,0,0,0-2-.65l-1,11.67c1.36.42,2.7.87,4,1.37A14.45,14.45,0,0,1,82,161.6a9,9,0,0,1,2.58,3,8.88,8.88,0,0,1,1,4.41,13.76,13.76,0,0,1-.87,4.92,12.35,12.35,0,0,1-2.55,4.06A13,13,0,0,1,78,180.8a16.51,16.51,0,0,1-5.61,1.32L72,186.27a2,2,0,0,1-.56,1.2,1.75,1.75,0,0,1-1.33.55H67.56Zm-2.85-30.39a4.62,4.62,0,0,0,.37,1.89,4.78,4.78,0,0,0,1,1.46,7.23,7.23,0,0,0,1.57,1.12,14.29,14.29,0,0,0,2,.89L71,146.52a10.16,10.16,0,0,0-2.65.66,5.91,5.91,0,0,0-1.8,1.14,4.28,4.28,0,0,0-1,1.51A4.74,4.74,0,0,0,65.21,151.59ZM78.92,170a4.25,4.25,0,0,0-.38-1.87,4.33,4.33,0,0,0-1.07-1.42,6.7,6.7,0,0,0-1.62-1.07,15.07,15.07,0,0,0-2-.82l-1,11.44a7.36,7.36,0,0,0,4.53-2A5.94,5.94,0,0,0,78.92,170Z" fill="#cdddf1"/></g></g></svg>