<svg xmlns="http://www.w3.org/2000/svg" viewBox="0 0 974.41 797.37"><g id="b72a428a-4ba6-4ed8-aa83-67e1e0e03ab2" data-name="Layer 2"><g id="acc7a1e7-48f1-4986-95f2-8924d2998e1e" data-name="Layer 1"><path d="M893.14,768.66H72.9a7.61,7.61,0,0,1-7.6-7.61h0a7.61,7.61,0,0,1,7.6-7.61H893.14a7.61,7.61,0,0,1,7.61,7.61h0A7.61,7.61,0,0,1,893.14,768.66Z" fill="#e9eef8"/><rect x="179.63" y="779.43" width="374.56" height="15.22" rx="7.61" fill="#e9eef8"/><path d="M761.52,794.64H594.23a6.13,6.13,0,0,1-6.13-6.13h0a6.13,6.13,0,0,1,6.13-6.13H761.52a6.13,6.13,0,0,1,6.13,6.13h0A6.13,6.13,0,0,1,761.52,794.64Z" fill="#e9eef8"/><rect x="273.8" width="423.01" height="671.83" rx="40" fill="#cdddf1"/><path d="M657.35,23.72h-96V33.93a4.91,4.91,0,0,1-4.91,4.91H422a4.91,4.91,0,0,1-4.9-4.91V23.72H313.27a24.53,24.53,0,0,0-24.53,24.53V623.58a24.53,24.53,0,0,0,24.53,24.53H657.35a24.53,24.53,0,0,0,24.53-24.53V48.25A24.53,24.53,0,0,0,657.35,23.72Z" fill="#fff"/><rect x="320.95" y="69.98" width="328.7" height="33.65" rx="4" fill="#e9eef8"/><path d="M629.89,80.59a7.36,7.36,0,1,0-.69,11l3.29,3.3a.92.92,0,0,0,1.31-1.3l-3.3-3.3A7.36,7.36,0,0,0,629.89,80.59Zm-1.3,9.11a5.52,5.52,0,1,1,0-7.81A5.52,5.52,0,0,1,628.59,89.7Z" fill="#fff"/><rect x="320.95" y="129.18" width="176.26" height="117.39" rx="8" fill="#e9eef8"/><path d="M620.79,149.45H521.46a4.9,4.9,0,0,1-4.91-4.9h0a4.91,4.91,0,0,1,4.91-4.91h99.33a4.91,4.91,0,0,1,4.91,4.91h0A4.9,4.9,0,0,1,620.79,149.45Z" fill="#e9eef8"/><path d="M574.07,173.32H521.46a4.91,4.91,0,0,1-4.91-4.91h0a4.91,4.91,0,0,1,4.91-4.91h52.61a4.9,4.9,0,0,1,4.9,4.91h0A4.9,4.9,0,0,1,574.07,173.32Z" fill="#e9eef8"/><rect x="516.55" y="204.6" width="84.19" height="21.22" rx="8" fill="#e9eef8"/><rect x="320.95" y="291.09" width="176.26" height="117.39" rx="8" fill="#e9eef8"/><path d="M620.79,311.36H521.46a4.91,4.91,0,0,1-4.91-4.91h0a4.9,4.9,0,0,1,4.91-4.9h99.33a4.9,4.9,0,0,1,4.91,4.9h0A4.91,4.91,0,0,1,620.79,311.36Z" fill="#e9eef8"/><path d="M574.07,335.22H521.46a4.91,4.91,0,0,1-4.91-4.91h0a4.9,4.9,0,0,1,4.91-4.9h52.61a4.9,4.9,0,0,1,4.9,4.9h0A4.9,4.9,0,0,1,574.07,335.22Z" fill="#e9eef8"/><rect x="516.55" y="366.5" width="84.19" height="21.22" rx="8" fill="#e9eef8"/><path d="M513.16,387.26c-1.83,0-3.26-2.27-3.26-5.17s1.43-5.17,3.26-5.17,3.26,2.27,3.26,5.17S515,387.26,513.16,387.26Zm0-9.34c-1.23,0-2.26,1.91-2.26,4.17s1,4.17,2.26,4.17,2.26-1.91,2.26-4.17S514.38,377.92,513.16,377.92Z" fill="#010101"/><path d="M461.05,182c.86,5.53-2.22,10.59-6.88,11.31s-9.13-3.16-10-8.69,2.23-10.58,6.88-11.3S460.19,176.5,461.05,182Z" fill="#f79e86"/><path d="M513.27,182c-.86,5.53,2.22,10.59,6.88,11.31s9.13-3.16,10-8.69-2.23-10.58-6.88-11.3S514.13,176.5,513.27,182Z" fill="#f79e86"/><path d="M448.56,158s-2.62,16,2.46,25.38-1.23,16.91,4.91,24.31,1.76,11.68,3.33,14,2.34,5.44,3.39,2.46-1.46-5.47,0-9.53.9-4.41-1.28-10.37-3.68-.34-2.11-10.31,24.49-20.36,29.39-26.83,19.2-23.53,22.06-17.64-4.5,40.13-2.46,44.47,6.78,2.08,5.44,9.35,1.41,9.67.23,11.94,2.63,7.18,2.63,1.45.8-7.45,0-12.16,4.75-5.61,5-13.39,1.87-22,2.07-26.91-3.87,2.22-4.69-1.68,3.93-3.09-2.33-10.45-9.3-7.28-13.91-12.43S448.56,158,448.56,158Z" fill="#1d283a"/><path d="M547.5,369.74C549,298,503,294,488.65,294.42c-14.31-.46-60.3,3.61-58.85,75.32,0,0,4.17,23-2.37,38.71H549.87C543.33,392.77,547.5,369.74,547.5,369.74Z" fill="#e8887e"/><ellipse cx="486.63" cy="103.63" rx="24.08" ry="18.6" fill="#1d283a"/><path d="M520.89,152.69c1-30.4-33.73-32.91-33.73-32.91s-34.73,2.51-33.73,32.91c0,0-1.84,18.19,0,24.93S454.66,198.06,463,206s9.61,5.31,10.22,9.6-4.7,19.22-4.7,19.22h37.2s-5.31-14.93-4.7-19.22,1.84-1.63,10.22-9.6,7.77-21.67,9.61-28.42S520.89,152.69,520.89,152.69Z" fill="#f79e86"/><path d="M483.49,111.74a38.7,38.7,0,0,0-11.17,2.35c-14.24,5.29-26.36,16.1-25,32.46,1.83,22.23,5.32,27.19,5.32,27.19s.4-17,1.22-14.51,10.84,9,9.4,7.56-4.7-8.58-4.7-8.58,11.86,4.49,19.42,7.15,14.51,1.23,9.2-2a15.9,15.9,0,0,1-6.75-8.18S503.31,165,508,166s-1.23-5.72-1.23-5.72l14.92,9.2s11.45-26.78,0-42.31c-6-8.09-15.94-12.2-25.47-14.32A46.24,46.24,0,0,0,483.49,111.74Z" fill="#1d283a"/><path d="M521.5,173.13h-7.87c-1.68-5.2-6.16-8.93-11.41-8.93-5.83,0-10.72,4.61-11.86,10.72a5.31,5.31,0,0,0-3.81-1.79,4.27,4.27,0,0,0-3.36,1.62c-1.2-6-6-10.55-11.82-10.55-5.25,0-9.73,3.73-11.41,8.93h-7.34v1.22h7a14.42,14.42,0,0,0-.37,3.31c0,7.42,5.43,13.45,12.11,13.45s12.11-6,12.11-13.45c0-.34,0-.67,0-1a3.6,3.6,0,0,1,3.11-2.31,4.74,4.74,0,0,1,3.6,2.26c0,.34,0,.69,0,1,0,7.42,5.43,13.45,12.11,13.45s12.12-6,12.12-13.45a14.42,14.42,0,0,0-.38-3.31h7.54Zm-50.13,16.76c-6,0-10.89-5.49-10.89-12.23s4.89-12.24,10.89-12.24,10.88,5.49,10.88,12.24S477.37,189.89,471.37,189.89Zm30.85,0c-6,0-10.88-5.49-10.88-12.23s4.88-12.24,10.88-12.24,10.89,5.49,10.89,12.24S508.23,189.89,502.22,189.89Z" fill="#fff"/><path d="M473.82,177c0,2.16-1.1,3.91-2.45,3.91s-2.45-1.75-2.45-3.91,1.1-3.9,2.45-3.9S473.82,174.83,473.82,177Z" fill="#1d283a"/><path d="M504.18,177c0,2.16-1.1,3.91-2.46,3.91s-2.45-1.75-2.45-3.91,1.1-3.9,2.45-3.9S504.18,174.83,504.18,177Z" fill="#1d283a"/><path d="M467.91,171.77a3.28,3.28,0,0,1,3.53-3c1.19.05,1.18-1.79,0-1.84a5.14,5.14,0,0,0-5.37,4.86c-.09,1.18,1.75,1.18,1.84,0Z" fill="#1d283a"/><path d="M500.05,168.9a2.74,2.74,0,0,1,3.67,1.59c.46,1.09,2,.15,1.59-.93a4.53,4.53,0,0,0-5.75-2.44c-1.1.41-.63,2.19.49,1.78Z" fill="#1d283a"/><path d="M470.61,212c-.21-.11,9.34,4.51,15,4.66s17-4,17-4-11.49,14-18.24,13.89S474.22,213.8,470.61,212Z" fill="#c43f52"/><path d="M498.51,200.69a13.18,13.18,0,0,1-3.75,4.5,12.28,12.28,0,0,1-7.67,2.45,12.15,12.15,0,0,1-7-2,12.31,12.31,0,0,1-4.14-5,1.23,1.23,0,0,1,1.11-1.75h20.37A1.23,1.23,0,0,1,498.51,200.69Z" fill="#c43f52"/><path d="M497.21,198.9a2.05,2.05,0,0,1-.56,1,2.12,2.12,0,0,1-1.52.64H479.65a2.15,2.15,0,0,1-2.08-1.62Z" fill="#fff"/><g opacity="0.54"><path d="M494.76,205.19a12.28,12.28,0,0,1-7.67,2.45,12.15,12.15,0,0,1-7-2,28.72,28.72,0,0,1,8.15-1.12A30.08,30.08,0,0,1,494.76,205.19Z" fill="#f79e86"/></g><path d="M485.7,193.92a.61.61,0,0,1-.3-1.14c.93-.52,2.51-1.66,2.79-2.5.12-.36-.26-.73-1.17-1.48a10,10,0,0,1-2.06-2.13c-1.4-2.15,1-8.63,1.46-9.91a.62.62,0,0,1,1.15.44c-1.05,2.74-2.41,7.54-1.58,8.8a8.7,8.7,0,0,0,1.82,1.86c.95.79,1.94,1.61,1.54,2.81-.52,1.56-3.06,3-3.35,3.18A.6.6,0,0,1,485.7,193.92Z" fill="#c43f52"/><path d="M377,265.14l25.69,106.2A11.64,11.64,0,0,0,416.34,380l175.05-35.15a11.66,11.66,0,0,0,9.13-13.72L577.79,217.9a11.64,11.64,0,0,0-14.11-9.05l-178,42.21A11.67,11.67,0,0,0,377,265.14Z" fill="#ffd38e"/><path d="M388.19,330.11s-2.66-5.11,3.68-10.43,19.62-1.84,21.26,2.66S415,340.12,411.7,343s-7.36,5.32-4.91,5.93,4.91.82,4.09,3.27-11,9-15.13,4.29S388.73,333.2,388.19,330.11Z" fill="#f79e86"/><path d="M606.77,292.65s2.09-5.36-4.79-10-19.71.31-20.84,5,.1,17.87,3.66,20.36,7.9,4.48,5.53,5.36-4.79,1.35-3.71,3.7,12,7.74,15.5,2.62S606.57,295.79,606.77,292.65Z" fill="#f79e86"/><polygon points="488.73 365.48 490.29 408.45 492.84 408.45 490.79 365.07 488.73 365.48" fill="#f16f5c"/><path d="M447.17,267.82a5.67,5.67,0,0,1-.67,4.46q-1.25,1.94-5,2.77l-19,4.27.76,15a44,44,0,0,1,8.33-2.87,26.59,26.59,0,0,1,9.92-.53,20.12,20.12,0,0,1,7.95,2.92,19.31,19.31,0,0,1,5.75,5.74,24.06,24.06,0,0,1,3.29,7.95,25.93,25.93,0,0,1,.32,10.45,23.05,23.05,0,0,1-3.62,9,24.63,24.63,0,0,1-7,6.81,29.52,29.52,0,0,1-9.83,4.07,28.37,28.37,0,0,1-6.3.71,31.2,31.2,0,0,1-15.74-4.27l2.5-5.82a3.66,3.66,0,0,1,2.68-2.31,4.66,4.66,0,0,1,2.58.22c.93.33,2,.67,3.22,1a24.45,24.45,0,0,0,4.14.82,16.1,16.1,0,0,0,5.37-.4,15,15,0,0,0,5.48-2.34,11.36,11.36,0,0,0,3.47-3.86,13,13,0,0,0,1.47-5,18.68,18.68,0,0,0-.44-5.84q-1.26-5.62-5.24-8.06t-10.32-1a30.53,30.53,0,0,0-9.66,4.07l-7.81-.44L412,270.48l34-7.67Z" fill="#d65f48"/><path d="M514.88,283.55a57.61,57.61,0,0,1,1.6,16.1,32.92,32.92,0,0,1-2.87,12.19,22.12,22.12,0,0,1-6.6,8.27,25.33,25.33,0,0,1-20,4.51,22,22,0,0,1-9.44-4.66,33,33,0,0,1-7.77-9.8,67,67,0,0,1-7-31.36,32.72,32.72,0,0,1,2.82-12.16,22,22,0,0,1,6.53-8.25,24,24,0,0,1,9.52-4.37,24.39,24.39,0,0,1,10.51-.14,22.15,22.15,0,0,1,9.51,4.65,32.73,32.73,0,0,1,7.81,9.76A57.3,57.3,0,0,1,514.88,283.55Zm-12.16,2.73a59.48,59.48,0,0,0-3.88-12.15,25.7,25.7,0,0,0-4.69-7.16,11.11,11.11,0,0,0-5.14-3.13,11.51,11.51,0,0,0-5.22,0,11.21,11.21,0,0,0-4.63,2.27,10.79,10.79,0,0,0-3.25,5,25.38,25.38,0,0,0-1.13,8.46,74.21,74.21,0,0,0,5.58,24.8,25.39,25.39,0,0,0,4.65,7.17,10.81,10.81,0,0,0,5.08,3.14,11.12,11.12,0,0,0,5.16.07,11.42,11.42,0,0,0,4.69-2.29,10.83,10.83,0,0,0,3.3-5,25.65,25.65,0,0,0,1.18-8.48A59.68,59.68,0,0,0,502.72,286.28Z" fill="#d65f48"/><path d="M537.48,258.38a9.7,9.7,0,0,1,.14,3.81,9,9,0,0,1-1.19,3.19,8.37,8.37,0,0,1-4,3.3,2.15,2.15,0,0,1-.27.1,9.1,9.1,0,0,1-4.43.4,7.67,7.67,0,0,1-3-1.18,8.22,8.22,0,0,1-2.34-2.39A10.29,10.29,0,0,1,521,262.1a11.15,11.15,0,0,1-.23-3.9,8.35,8.35,0,0,1,1.08-3.22,7.8,7.8,0,0,1,2.2-2.38,9.1,9.1,0,0,1,6.58-1.48,7.82,7.82,0,0,1,3,1.2,8.26,8.26,0,0,1,2.36,2.45A11.17,11.17,0,0,1,537.48,258.38ZM547.63,248a3,3,0,0,1,.59-.83,2.23,2.23,0,0,1,1.16-.58h0a2.25,2.25,0,0,1,2.53,3.13l-16.81,36.64a2.66,2.66,0,0,1-.6.83,2.24,2.24,0,0,1-1,.5l-.12,0a2.25,2.25,0,0,1-2.53-3.13Zm-14.87,11.42a9.59,9.59,0,0,0-.81-2.34,4.73,4.73,0,0,0-1.1-1.39,2.84,2.84,0,0,0-1.33-.59,3.79,3.79,0,0,0-1.46.05,3.73,3.73,0,0,0-1.32.57,2.73,2.73,0,0,0-.92,1.11,4.41,4.41,0,0,0-.38,1.71,9.79,9.79,0,0,0,.28,2.46,9.15,9.15,0,0,0,.78,2.25,4.2,4.2,0,0,0,1.06,1.33,2.64,2.64,0,0,0,1.3.56,3.92,3.92,0,0,0,1.44-.06,4.09,4.09,0,0,0,1.34-.56,2.82,2.82,0,0,0,1-1.07,4.22,4.22,0,0,0,.42-1.66A8.53,8.53,0,0,0,532.76,259.45Zm29.07,13.07a9.7,9.7,0,0,1,.14,3.81,8.74,8.74,0,0,1-1.19,3.18,8.28,8.28,0,0,1-5.24,3.71,8.62,8.62,0,0,1-3.42.11,7.82,7.82,0,0,1-3-1.19,8.47,8.47,0,0,1-2.34-2.39,10.43,10.43,0,0,1-1.44-3.52,11.09,11.09,0,0,1-.23-3.89,8.4,8.4,0,0,1,1.08-3.23,7.65,7.65,0,0,1,2.2-2.37,8.46,8.46,0,0,1,3.15-1.37,8.68,8.68,0,0,1,3.43-.12,8.14,8.14,0,0,1,3,1.2,8.39,8.39,0,0,1,2.36,2.45A11,11,0,0,1,561.83,272.52Zm-4.69,1.05a8.82,8.82,0,0,0-.83-2.33,4.42,4.42,0,0,0-1.11-1.38,3,3,0,0,0-1.33-.6,4,4,0,0,0-1.46.06,3.73,3.73,0,0,0-1.32.57,2.68,2.68,0,0,0-.91,1.1,4.81,4.81,0,0,0-.38,1.72,9.65,9.65,0,0,0,.27,2.45,8.31,8.31,0,0,0,.8,2.26,4.33,4.33,0,0,0,1.06,1.35,2.57,2.57,0,0,0,1.29.56,3.86,3.86,0,0,0,1.43-.06,4,4,0,0,0,1.34-.56,2.85,2.85,0,0,0,1-1.07,4.4,4.4,0,0,0,.42-1.68A8.56,8.56,0,0,0,557.14,273.57Z" fill="#d65f48"/><path d="M548.84,315.53a12.19,12.19,0,0,1,.19,4.6,10.81,10.81,0,0,1-1.45,4,10.6,10.6,0,0,1-3,3.09,12.76,12.76,0,0,1-9,2,10.48,10.48,0,0,1-4-1.54,10.66,10.66,0,0,1-3-3,13,13,0,0,1-2-8.85,10.71,10.71,0,0,1,1.46-4,10.54,10.54,0,0,1,3-3.1,12.8,12.8,0,0,1,9-2,10.56,10.56,0,0,1,4,1.55,10.72,10.72,0,0,1,3,3A12.35,12.35,0,0,1,548.84,315.53Zm-4.15.92a10.43,10.43,0,0,0-1.18-3.1,7,7,0,0,0-1.9-2.11,6,6,0,0,0-2.5-1,8.22,8.22,0,0,0-5.73,1.28,6.13,6.13,0,0,0-1.83,2,7,7,0,0,0-.84,2.72,11.17,11.17,0,0,0,1.43,6.42,6.77,6.77,0,0,0,1.91,2.09,6,6,0,0,0,2.51,1,8.28,8.28,0,0,0,5.73-1.27,6.09,6.09,0,0,0,1.82-2,6.83,6.83,0,0,0,.82-2.7A10.14,10.14,0,0,0,544.69,316.45Z" fill="#d65f48"/><path d="M554.9,325.59,552.09,313l-1.39.09a1.4,1.4,0,0,1-.76-.15.8.8,0,0,1-.41-.57l-.33-1.52,2.29-.51-.25-1.14a6.72,6.72,0,0,1-.13-2.46,5.19,5.19,0,0,1,.74-2.05,5.1,5.1,0,0,1,1.57-1.53,7.07,7.07,0,0,1,2.31-.92,6.92,6.92,0,0,1,2-.16l.34,1.88a.55.55,0,0,1-.28.63,3.14,3.14,0,0,1-.85.3,4.68,4.68,0,0,0-1.15.41,2,2,0,0,0-.77.69,2.29,2.29,0,0,0-.34,1.05,4.71,4.71,0,0,0,.13,1.48l.23,1,4-.89.59,2.64-3.89.87,2.81,12.64Z" fill="#d65f48"/><path d="M565.43,323.24l-2.81-12.62-1.38.08a1.44,1.44,0,0,1-.77-.14.79.79,0,0,1-.4-.57l-.34-1.52L562,308l-.25-1.15a6.72,6.72,0,0,1-.13-2.46,5,5,0,0,1,.74-2,5.18,5.18,0,0,1,1.56-1.53,7.14,7.14,0,0,1,2.32-.93,6.56,6.56,0,0,1,2.05-.15l.34,1.88a.56.56,0,0,1-.29.63,3.81,3.81,0,0,1-.85.3,4.84,4.84,0,0,0-1.15.4,2,2,0,0,0-.76.69,2.3,2.3,0,0,0-.35,1.06,5.12,5.12,0,0,0,.14,1.48l.22,1,4-.9.58,2.65-3.89.87,2.82,12.64Z" fill="#d65f48"/><path d="M332.57,338.49c.82.51,27,16.86,27,18.09s-3.07,4.59-5.21,4.59-36.18,3.12-37.41-3S324.17,333.31,332.57,338.49Z" fill="#f16f5c"/><path d="M316.81,301.88a1.07,1.07,0,0,1-.39-.07,1.22,1.22,0,0,1-.77-1.55,65.06,65.06,0,0,0,2.82-12.57c.09-.85-.08-1.08-.08-1.08-.61-.29-4.11,1-11,7.11-1,.89-1.9,1.12-2.68.69-1.56-.87-1.22-3.37-.23-9.44.66-4,1.49-9,.91-11.51-.2-.84-.46-1.13-.58-1.17-.83-.27-3.32,1.86-4.66,3a16.66,16.66,0,0,1-4.29,3,2,2,0,0,1-2.05-.34c-2.13-1.86-.64-10.46.43-15.43a1.23,1.23,0,0,1,2.4.52c-1.23,5.7-1.79,11.27-1.32,12.81a20.68,20.68,0,0,0,3.24-2.45c2.51-2.15,4.89-4.17,7-3.47,1.09.35,1.83,1.34,2.21,2.94.69,3-.14,8-.87,12.46a59.06,59.06,0,0,0-.83,6.25c6.69-5.88,11.21-8.29,13.41-7.17.76.39,1.61,1.3,1.39,3.49A66.37,66.37,0,0,1,318,301.05,1.22,1.22,0,0,1,316.81,301.88Zm-21.32-25.71Z" fill="#f16f5c"/><path d="M659.35,238.48a1.54,1.54,0,0,1,0-.48,1.45,1.45,0,0,1,1.65-1.2,77.93,77.93,0,0,0,15.17.72c1-.07,1.23-.31,1.23-.31.22-.77-2-4.56-10.48-11.29-1.23-1-1.68-2-1.34-3,.68-2,3.65-2.1,10.91-2.18,4.8,0,10.78-.11,13.54-1.29.94-.39,1.23-.76,1.25-.91.14-1-2.84-3.47-4.44-4.8a19.56,19.56,0,0,1-4.38-4.36,2.35,2.35,0,0,1,0-2.45c1.73-2.85,12-2.87,18-2.63a1.45,1.45,0,0,1-.11,2.89c-6.87-.27-13.45.21-15.14,1.07a24.45,24.45,0,0,0,3.5,3.26c3,2.48,5.84,4.83,5.46,7.44-.19,1.34-1.19,2.4-3,3.15-3.29,1.41-9.33,1.47-14.65,1.53a69.26,69.26,0,0,0-7.41.31c8.18,6.57,11.9,11.32,11,14.11-.3.95-1.19,2.13-3.76,2.32a79.38,79.38,0,0,1-15.84-.74A1.46,1.46,0,0,1,659.35,238.48Zm25.52-30h0Z" fill="#92b2dd"/><path d="M349.74,302s-3.37-27.67,3.37-20.29,6.75,12.91,6.44,14.45S349.91,303.56,349.74,302Z" fill="#92b2dd"/><path d="M355.56,200.52c1.54,2.14,16.24,23.3,21.15,22.68s8.9-.61,18.71-5.21,11.65-9.45,11.65-9.45L397,198.9s-3.68,13.88-13.19,14.49S355.56,200.52,355.56,200.52Z" fill="#f16f5c"/><path d="M616.58,209.83c-.31-2-3.06-21-6.53-22.18s-6.14-2.56-14.21-2.76-10.92,2.41-10.92,2.41l3.53,9.8s7.08-8,13.62-5.26S616.58,209.83,616.58,209.83Z" fill="#f16f5c"/><path d="M381.32,158.82s8.58,9.73,11,8.08,5.21-5.94,5.21-5.94S378.63,156,381.32,158.82Z" fill="#92b2dd"/><polygon points="654.19 317 676.27 311.46 680.57 323.24 654.19 317" fill="#92b2dd"/><polygon points="625.37 368.53 625.37 358.13 633.96 368.53 625.37 368.53" fill="#f16f5c"/><path d="M236.83,455.55s-5.13-20.49,6.8-46.25,54.24-26.37,55.46-15-28.51,37.1-42.31,47.52S236.83,455.55,236.83,455.55Z" fill="#f16f5c"/><path d="M248.08,486.15s-8.59-16.9,11.77-40.67,34.11-33.11,39.28-18.39S262.68,473.19,248.08,486.15Z" fill="#e8887e"/><path d="M232.36,463.07s-53.15-13-40-48.86S232.36,463.07,232.36,463.07Z" fill="#e8887e"/><path d="M230.9,497c-.79-1.39,3.19-14.44-12.14-29.77s-41.08-7.05-46,0,17.17,16.34,34,18.9S230.9,497,230.9,497Z" fill="#f16f5c"/><path d="M255.66,497s-3.78-8.62,15.53-21.19,51.51-10.73,46.61,0S279.06,497.18,255.66,497Z" fill="#f16f5c"/><path d="M286.57,481.47c-.13,0-12.46,2.94-22.23,8.24-8,4.31-18.13,18.77-22,24.6a212.65,212.65,0,0,1,9.8-36.1c7.61-20.45,25.37-34.35,25.55-34.49l-.75-1c-.18.14-18.22,14.24-26,35-2.26,6.05-4.07,11.9-5.52,17.16A54.73,54.73,0,0,0,234.65,466c.9-3,8.7-28.23,17.79-40a65.87,65.87,0,0,1,22.66-18.21l-.49-1.12a66.88,66.88,0,0,0-23.14,18.58c-8.64,11.16-16.08,34.17-17.74,39.53a373.9,373.9,0,0,0-25.89-29.48l-.88.86a369.66,369.66,0,0,1,26.53,30.31,52.64,52.64,0,0,1,10.83,32.77c-1.79,7.09-2.84,12.68-3.33,15.57-3-7.1-13.59-30.62-23.85-37.36-11.89-7.8-20.45-7.48-20.81-7.47l.06,1.22c.09,0,8.55-.29,20.08,7.28S240.56,517,240.69,517.3l.86,2.14.3-2.15c1-1.62,13.86-21.51,23.07-26.51,9.63-5.21,21.8-8.09,21.93-8.11Z" fill="#294a71"/><path d="M260.8,517.07H205.35a8,8,0,0,0-7.79,9.64l11.7,54.73a8,8,0,0,0,7.8,6.3h59.27a8,8,0,0,0,7.8-6.3l11.7-54.73a8,8,0,0,0-7.79-9.64Z" fill="#2e738f"/><path d="M725.25,377.12s-12.8-2.05-9.74-18.81-18.19-6.67-21-34.1S679.54,301,684.65,285.7s40.67-19.07,43.74,0-4,23.79,6.27,27.25S733.77,371.6,725.25,377.12Z" fill="#e8887e"/><path d="M730.24,449.42s-7.1-35.76,4.42-48.2,2.93-13.62,9.67-28.06,19.79,4.59,31-9.83,33.74-1.55,21.89,14.7-20.75,18.48-19.06,29.63S773,429.85,759,434.76,739.67,457.67,730.24,449.42Z" fill="#f16f5c"/><path d="M717.39,425.86s-14,1.09-17.27-14.63-11.59-6.78-21.4-18.61-21.44-24.32-9.14-35.55,17.12-21.53,28.46-5.65,11.78,24.62,19.35,28.83S717.39,425.86,717.39,425.86Z" fill="#e8887e"/><path d="M730.8,373.16s-7.95-26.7-2.73-37.74,8.84-16.08,10.71-28.58,28.24-26.29,33.15-13.27-10.5,28.72-7.58,36.74-1,22.08-10.21,28-3.67-5.72-9.19,5.93S736.23,373.46,730.8,373.16Z" fill="#f16f5c"/><path d="M720.76,520s-13.59,9.58-15-14.71.27-31.11-13.26-39.94-4.3-29.93,0-35.47,16.6-7.38,18.57,7.95,9.86,36,9.86,36Z" fill="#e8887e"/><path d="M779.27,377.53c-.28.18-28.18,19.06-39,41.74-8.48,17.78-16.36,46.72-19.38,58.42.5-38.65,3.07-85.58,11.76-110.5,16.29-46.75,29.15-59.79,29.28-59.91l-.86-.88c-.53.52-13.16,13.28-29.58,60.39a146.87,146.87,0,0,0-5.58,23.12c1-17.17,1.56-41.87-1.83-54.65-5.48-20.69-17.65-41-17.77-41.18l-1,.63c.12.2,12.2,20.34,17.64,40.87s.49,72.31.44,72.83h0c-1.16,10.45-2,21.58-2.57,32.76-1.58-14-5.73-42.17-14.53-53.81-11.64-15.39-15.93-19.14-16.11-19.29l-.8.93s4.41,3.86,15.93,19.1,15.05,60.91,15.09,61.37h0c-.48,11.41-.72,22.72-.81,33.29l0,.08h0c-.27,31.64.78,56.55.81,57.11l1.22-.06c0-.55-1.07-25.4-.81-57,.76-3.08,10.22-41.47,20.55-63.14,10.67-22.37,38.3-41.06,38.57-41.25Z" fill="#294a71"/><path d="M732.43,539.93H677a8,8,0,0,0-7.8,9.64L680.9,604.3a8,8,0,0,0,7.79,6.3H748a8,8,0,0,0,7.79-6.3l11.71-54.73a8,8,0,0,0-7.79-9.64Z" fill="#2e738f"/><rect x="152.06" y="587.96" width="167.74" height="167.74" rx="14" fill="#cdddf1"/><rect x="174.26" y="614.02" width="36.38" height="19.88" rx="4" fill="#92b2dd"/><rect x="174.26" y="695.11" width="26.57" height="19.88" rx="4" fill="#92b2dd"/><path d="M268.16,701.91H222.22a3.4,3.4,0,0,1-3.4-3.4h0a3.4,3.4,0,0,1,3.4-3.4h45.94a3.4,3.4,0,0,1,3.4,3.4h0A3.4,3.4,0,0,1,268.16,701.91Z" fill="#92b2dd"/><path d="M235.92,588h25a0,0,0,0,1,0,0V650.4a5,5,0,0,1-5,5h-15a5,5,0,0,1-5-5V588A0,0,0,0,1,235.92,588Z" fill="#92b2dd"/><path d="M147.48,240.92s-22.76-11-33.14,8.76-17.21,25-9.09,37.33-11.36,21.43,1,30.84-8.16,14.68,2.26,24,28.28,8.18,39,7.49,13.6,3.05,11.65-22.5,16.14-26.31,15.26-28.63-1.56-15.42,0-23.21.46-12.33-3.2-19.15S163.42,236.05,147.48,240.92Z" fill="#1d283a"/><path d="M171.22,268.18s1.06,10.39,0,14.61,1.87,12.18,3.17,15.42-1.75,13.64-3.39,17.21-8.46,6.65-8.46,6.65-.49,8.67,1.62,13-7.62,17.49-11.52,17.66-8.85,1.78-11.24-4.06-4-17-4-17-.16-7.23,0-10.8-1.46-4.05-2.76-6.65a52.12,52.12,0,0,1-2.11-4.87s-8.92-.81-11-6.49-1.3-8.28,1-10.88,6.82-1.94,6.82-1.94,4.06,4.22,3.89,1.78-1.29-4.54-.48-7a72.38,72.38,0,0,1,3.24-7.14s-2.27,5.19-.32,3.73,9.8-6.81,11.88-9.9,4.51-6,4.51-6-6.75,11.2-4.51,10.06,6.62-1.78,9.71-5a38.68,38.68,0,0,0,5.35-7.63s2.92,5.19,3.25,8.28,1,5.35,1.3,3.89,2.43-8.11,2.43-8.11a10.48,10.48,0,0,1,.81,3.89C170.33,273.05,171.22,268.18,171.22,268.18Z" fill="#f79e86"/><path d="M162.54,322.07s-8.11,0-12.17-1.3-8.28-3.08-8.28-3.08,17.69,16,18.18,13.85S162.54,322.07,162.54,322.07Z" fill="#c43f52"/><path d="M146.82,288.2c.47,2-.07,3.84-1.22,4.11s-2.45-1.13-2.92-3.12.07-3.84,1.21-4.11S146.35,286.21,146.82,288.2Z" fill="#1d283a"/><path d="M158.08,300.32a.49.49,0,0,1-.3-.87s3.76-3,3.11-5.51c-.35-1.36-1.28-1.64-2.58-2a6.7,6.7,0,0,1-3.13-1.6c-2.35-2.35.79-6.51.93-6.68a.47.47,0,0,1,.68-.09.48.48,0,0,1,.09.68s-2.76,3.66-1,5.4a5.84,5.84,0,0,0,2.72,1.36c1.35.4,2.76.81,3.25,2.71.8,3.12-3.28,6.38-3.46,6.52A.45.45,0,0,1,158.08,300.32Z" fill="#c43f52"/><path d="M168.3,306.53a4.27,4.27,0,0,1-.81,1.45,14.13,14.13,0,0,1-8.07,4.27,6.39,6.39,0,0,1-3.94-.49,11.33,11.33,0,0,1-4.32-3.73c-.1-.14.39-.53,1.27-1a151.35,151.35,0,0,1,14.12-6.8,5.36,5.36,0,0,1,1-.35C168.06,300,168.91,304.46,168.3,306.53Z" fill="#c43f52"/><path d="M166.55,300.18a10.84,10.84,0,0,1-.28,1.76c-.16.41-11.52,5.2-12.73,5.69-.39.15-.77-.16-1.11-.65A151.35,151.35,0,0,1,166.55,300.18Z" fill="#fff"/><path d="M140.33,285.79a2.66,2.66,0,0,1,2.41-3.14c.93-.07.94-1.54,0-1.46a4.1,4.1,0,0,0-3.87,4.6c.12.92,1.58.93,1.46,0Z" fill="#1d283a"/><path d="M161.27,277.06c.36-.5,1.36.34,1.63.54a.73.73,0,0,0,1-.26.75.75,0,0,0-.26-1c-1.11-.83-2.66-1.35-3.63,0-.55.76.71,1.49,1.26.73Z" fill="#1d283a"/><path d="M8.85,226.17,63.4,238.46a2.43,2.43,0,0,1,1.86,2.78l-3.73,22.15a2.44,2.44,0,0,1-2.93,2L1.91,252.83a2.44,2.44,0,0,1-1.83-3L6,227.92A2.45,2.45,0,0,1,8.85,226.17Z" fill="#1d283a"/><path d="M97.13,347.88s-15.9-6.16-18.83-8.68-19.47-33.36-23-40.5S45.19,275,45.19,272.4s-2.27-17.2,0-23.37.91-4.87-1-9.41,1.59-5.19,0-8.44S36.43,227,34.48,227s-10.39.65-12,1.95-6.17,21.75-2.27,27.91,4.54,11,5.52,15.91,13,45.4,26,66.2S66,365.49,72.79,368.29s24.34,6,24.34,6Z" fill="#f79e86"/><path d="M195.33,326.84c1.41-1.7,14.36-9.63,15.82-15.88s1.95-65.66,0-71.26a33.81,33.81,0,0,0-6.39-10.47c-.91-1.22-4.56-1.46-4.32-5.6s7.06-10.47,10.23-11.44,11.19,1,13.63,5.6a21,21,0,0,1,2.19,11.68c-.24,2.44,0,5.6.1,11.69s10.86,63.63,9.15,69.8-31.89,42.68-31.89,42.68Z" fill="#f79e86"/><path d="M167.33,742.87s-7.3,19.06-3.9,23,8,0,10,6.78,15.58,14.55,20.2,12.94,3.65-7.52,0-11.54-10.22-12.08-11.93-14.49-2.66-7.1-2.66-7.1Z" fill="#d65f48"/><path d="M115,758.16s-6.09,14.23-3.17,21.47,4.38,7.52,10.47,7.25,6.09-3.22,13.39-1.61,13.15,3.22,17-.54,5.36-7.78,2.68-9.93-17-4.83-20.45-6.17-7.06-6.44-7.06-6.44Z" fill="#d65f48"/><path d="M113.51,463.07s-14.84,73.59-8.87,110,.12,65.07-.81,68.87-4.75,35.29-.39,66.09,6.79,55,10.66,55.87,15.83,5.3,15.73-3.25,17.17-139.34,19-147.79,5.74-56.54,5.74-56.54,16.38,36.57,20.52,43.58,2.12,10.85.62,14.14-4.89,44.66-6.66,66.69-6.83,69.1-2.9,71.3,12.41,2,12.89.38,40.51-143.91,38.86-169-28.16-118-28.16-118Z" fill="#294a71"/><path d="M110.6,457.53s-8.52,9.8-4.38,13.21,43.58,10.23,46.26,7.79,5.11-12.66,5.11-12.66,1.46,8.52,5.6,8.77,32.87-4.14,32.14-9.5-5.85-15.34-5.85-15.34Z" fill="#e9eef8"/><path d="M117.18,369.22a74.32,74.32,0,0,1-2.88,11.88c0-.16,0-.3,0-.44-.49-5.11-15.83,0-18.26,0s-4.39-1.7-3.9-8.52-1.7-24.1-1.22-27c.44-2.66,16.31-3.3,22-3.39C115.36,347.83,118.89,359,117.18,369.22Z" fill="#e9eef8"/><path d="M206.85,352c-.32,3.93-6.82,3.85-9.09,7.42a5.67,5.67,0,0,0-.68,1.65c-4.51-7.55-14.84-25.24-18-34.21,8.66-1.95,18.67-3.84,20.31-3.48C202.31,324,207.18,348,206.85,352Z" fill="#e9eef8"/><path d="M194.2,407.12c-4.23,8.11,0,42.53,0,46.74s-5.85,7.14-21.11,12.34-47.63.89-52.5-1.54-15.1-8-9.5-13.64,8.52-22.64,7.55-31.89c-.79-7.46-2.84-24.57-3.86-33.61-.22-1.87-.38-3.4-.48-4.42a74.32,74.32,0,0,0,2.88-11.88c1.71-10.24-1.82-21.39-4.27-27.5h1.35a14.59,14.59,0,0,0,2.13-.21,104.51,104.51,0,0,0,12.23-3.2c6.28-1.86,25.64,7.79,29.21,7.46S165,331.81,166,330.51c.37-.49,4.74-1.7,10.22-3l2.9-.68h0c3.17,9,13.5,26.66,18,34.21a11.29,11.29,0,0,0-.19,3.55c.33,3.69,1.93,8.31,3.79,12.65C203.61,384.07,198.41,399,194.2,407.12Z" fill="#ffd38e"/><path d="M137.38,331.73c-.15-.76-6.81.73-5.6,4.62s9,24.84,11,21.67,10.08-13.46,8.12-14.17S138.36,336.35,137.38,331.73Z" fill="#e9eef8"/><path d="M163.19,327.35s8,.59,8,4.19-4.38,20.88-6.81,19.42-9.25-4.87-8.28-7.79S164.16,332,163.19,327.35Z" fill="#e9eef8"/><path d="M114.78,385.52c-.22-1.87-.38-3.4-.48-4.42a74.32,74.32,0,0,0,2.88-11.88c1.71-10.24-1.82-21.39-4.27-27.5h1.35a14.59,14.59,0,0,0,2.13-.21,52.8,52.8,0,0,1,3,13.11A65.3,65.3,0,0,1,114.78,385.52Z" fill="#f69782"/><path d="M196.89,364.6c-.14-.17-5.08-5.82-12-19.66-4.22-8.39-7-14-8.69-17.42l2.9-.68h0c3.17,9,13.5,26.66,18,34.21A11.29,11.29,0,0,0,196.89,364.6Z" fill="#f69782"/><polygon points="154.56 556.32 159.66 509.64 167.59 584.78 154.56 556.32" fill="#1b3044"/><path d="M166.92,283.44c.47,2-.07,3.83-1.22,4.1s-2.45-1.12-2.93-3.12.08-3.83,1.22-4.1S166.45,281.45,166.92,283.44Z" fill="#1d283a"/><g opacity="0.43"><path d="M167.49,308a14.13,14.13,0,0,1-8.07,4.27,6.39,6.39,0,0,1-3.94-.49c.92-2.55,4.22-4.44,8.15-4.44A11.32,11.32,0,0,1,167.49,308Z" fill="#f79e86"/></g><rect x="639.62" y="608.63" width="147.06" height="144.81" rx="14" fill="#cdddf1"/><rect x="735.32" y="631.13" width="31.9" height="17.16" rx="4" transform="translate(1502.53 1279.42) rotate(180)" fill="#92b2dd"/><rect x="743.92" y="701.14" width="23.3" height="17.16" rx="4" transform="translate(1511.13 1419.45) rotate(180)" fill="#92b2dd"/><path d="M684.85,707h40.37a2.93,2.93,0,0,0,2.93-2.93h0a2.94,2.94,0,0,0-2.93-2.94H684.85a2.94,2.94,0,0,0-2.94,2.94h0A2.94,2.94,0,0,0,684.85,707Z" fill="#92b2dd"/><path d="M696.23,608.63h11.92a5,5,0,0,1,5,5v53.23a0,0,0,0,1,0,0H691.23a0,0,0,0,1,0,0V613.63A5,5,0,0,1,696.23,608.63Z" transform="translate(1404.39 1275.49) rotate(180)" fill="#92b2dd"/><path d="M682.81,743.61S686.08,679,720,666.34s38,6.14,32.7,38.64-.81,36.58,14.31,38.63,24.53-12.27,24.53-12.27-4.5,11.86-14.31,16.35-33.11,2.87-30.66-26.57,4.5-53.14-11-54-31,22.45-41.69,47.42-11,38.86-11,38.86Z" fill="#fcf7b9"/><path d="M287.59,753.85s-9.9,10.2-23.8-7.38-30.66-35.57-46.6-22.89-2.87,33.21-2.87,33.21h-5S193.07,719.9,229,717.44s33.11,45.79,68.27,31.89S287.59,753.85,287.59,753.85Z" fill="#fcf7b9"/><path d="M683.16,416.86a12.28,12.28,0,0,0-11.65-8.41H300.71a12.28,12.28,0,0,0-11.64,8.41l-39.7,119.87A12.26,12.26,0,0,0,261,552.85H711.22a12.26,12.26,0,0,0,11.64-16.12Z" fill="#cdddf1"/><path d="M302.6,429.85a1.8,1.8,0,0,1-.5-.08,1.54,1.54,0,0,1-1-1.95l2.48-7.25a1.53,1.53,0,1,1,2.9,1l-2.48,7.25A1.53,1.53,0,0,1,302.6,429.85Z" fill="#92b2dd"/><path d="M273.21,515.88a1.8,1.8,0,0,1-.5-.08,1.54,1.54,0,0,1-.95-1.95l4.9-14.34a1.53,1.53,0,0,1,2.9,1l-4.9,14.34A1.53,1.53,0,0,1,273.21,515.88ZM283,487.2a1.45,1.45,0,0,1-.5-.08,1.53,1.53,0,0,1-.95-1.95l4.89-14.33a1.54,1.54,0,0,1,2.91,1l-4.9,14.34A1.54,1.54,0,0,1,283,487.2Zm9.79-28.67a1.41,1.41,0,0,1-.49-.09,1.53,1.53,0,0,1-1-1.94l4.9-14.34a1.53,1.53,0,1,1,2.9,1l-4.9,14.34A1.52,1.52,0,0,1,292.8,458.53Z" fill="#92b2dd"/><path d="M273.5,537.47h-9.81l3.17-9.28a1.53,1.53,0,1,1,2.9,1L268,534.4h5.52a1.54,1.54,0,0,1,0,3.07Z" fill="#92b2dd"/><path d="M680.34,537.47H664.7a1.54,1.54,0,1,1,0-3.07h15.64a1.54,1.54,0,1,1,0,3.07Zm-31.29,0H633.4a1.54,1.54,0,0,1,0-3.07h15.65a1.54,1.54,0,0,1,0,3.07Zm-31.3,0H602.11a1.54,1.54,0,1,1,0-3.07h15.64a1.54,1.54,0,1,1,0,3.07Zm-31.29,0H570.81a1.54,1.54,0,0,1,0-3.07h15.65a1.54,1.54,0,0,1,0,3.07Zm-31.3,0H539.51a1.54,1.54,0,0,1,0-3.07h15.65a1.54,1.54,0,0,1,0,3.07Zm-31.29,0H508.22a1.54,1.54,0,1,1,0-3.07h15.65a1.54,1.54,0,0,1,0,3.07Zm-31.3,0H476.92a1.54,1.54,0,0,1,0-3.07h15.65a1.54,1.54,0,0,1,0,3.07Zm-31.3,0H445.63a1.54,1.54,0,1,1,0-3.07h15.64a1.54,1.54,0,1,1,0,3.07Zm-31.29,0H414.33a1.54,1.54,0,0,1,0-3.07H430a1.54,1.54,0,0,1,0,3.07Zm-31.3,0H383a1.54,1.54,0,0,1,0-3.07h15.65a1.54,1.54,0,0,1,0,3.07Zm-31.29,0H351.74a1.54,1.54,0,1,1,0-3.07h15.65a1.54,1.54,0,0,1,0,3.07Zm-31.3,0H320.44a1.54,1.54,0,0,1,0-3.07h15.65a1.54,1.54,0,0,1,0,3.07Zm-31.3,0H289.15a1.54,1.54,0,1,1,0-3.07h15.64a1.54,1.54,0,1,1,0,3.07Z" fill="#92b2dd"/><path d="M705.78,537.47H696a1.54,1.54,0,0,1,0-3.07h5.55l-1.75-5.26a1.53,1.53,0,1,1,2.91-1Z" fill="#92b2dd"/><path d="M696.51,515.86a1.53,1.53,0,0,1-1.46-1.05l-4.74-14.33a1.53,1.53,0,1,1,2.91-1L698,513.85a1.52,1.52,0,0,1-1,1.93A1.34,1.34,0,0,1,696.51,515.86ZM687,487.2a1.55,1.55,0,0,1-1.46-1.05l-4.74-14.33a1.54,1.54,0,0,1,1-1.94,1.52,1.52,0,0,1,1.93,1l4.75,14.33a1.53,1.53,0,0,1-1,1.94A1.61,1.61,0,0,1,687,487.2Zm-9.49-28.66a1.53,1.53,0,0,1-1.45-1.05l-4.74-14.34a1.53,1.53,0,0,1,2.91-1L679,456.52a1.53,1.53,0,0,1-1,1.94A1.67,1.67,0,0,1,677.53,458.54Z" fill="#92b2dd"/><path d="M668.05,429.87a1.52,1.52,0,0,1-1.46-1.05l-2.41-7.27a1.53,1.53,0,0,1,2.91-1l2.41,7.28a1.54,1.54,0,0,1-1,1.94A1.59,1.59,0,0,1,668.05,429.87Z" fill="#92b2dd"/><path d="M285.46,552.85H684.65a0,0,0,0,1,0,0V741a17,17,0,0,1-17,17H302.46a17,17,0,0,1-17-17V552.85A0,0,0,0,1,285.46,552.85Z" fill="#92b2dd"/><rect x="571.6" y="655.4" width="94.25" height="62.04" rx="5" fill="#2e738f"/><rect x="578.28" y="662.26" width="80.88" height="48.34" rx="5" fill="#fff"/><rect x="466.76" y="582.47" width="199.09" height="54.03" rx="5" fill="#2e738f"/><rect x="325.93" y="582.54" width="62.14" height="21.67" rx="5" fill="#2e738f"/><rect x="402.78" y="582.54" width="43.33" height="10.83" rx="5" fill="#2e738f"/><rect x="327.15" y="633.89" width="71.95" height="10.83" rx="5" fill="#2e738f"/><path d="M484.26,623.28V593.64H494.5a19.38,19.38,0,0,1,5,.55,9.39,9.39,0,0,1,3.38,1.58,6.12,6.12,0,0,1,1.94,2.48,8.34,8.34,0,0,1,.61,3.28,6.63,6.63,0,0,1-.3,2,5.93,5.93,0,0,1-1,1.78,7,7,0,0,1-1.64,1.51,10.05,10.05,0,0,1-2.37,1.15q6.12,1.37,6.11,6.6a8.57,8.57,0,0,1-.71,3.49,7.69,7.69,0,0,1-2.1,2.75,9.84,9.84,0,0,1-3.38,1.82,14.71,14.71,0,0,1-4.59.65Zm5.52-16.81h4.41a7.4,7.4,0,0,0,4.26-1,3.72,3.72,0,0,0,1.46-3.26,3.89,3.89,0,0,0-1.31-3.31,6.94,6.94,0,0,0-4.1-1h-4.72Zm0,3.81V619h5.6a7.63,7.63,0,0,0,2.57-.37,4.54,4.54,0,0,0,1.66-1,3.58,3.58,0,0,0,.9-1.44,5.29,5.29,0,0,0,.28-1.74,4.57,4.57,0,0,0-.31-1.74,3.17,3.17,0,0,0-1-1.31,4.56,4.56,0,0,0-1.68-.83,9.38,9.38,0,0,0-2.48-.29Z" fill="#cdddf1"/><path d="M517.19,623.28h-5.53V593.64h5.53Z" fill="#cdddf1"/><path d="M537.47,619.22a14.14,14.14,0,0,0,3.25-.33,13.69,13.69,0,0,0,2.63-.94v-5.39h-3.71a1.17,1.17,0,0,1-.84-.3,1,1,0,0,1-.3-.72v-3.12h9.86v12a15.86,15.86,0,0,1-2.35,1.43,15.21,15.21,0,0,1-2.6,1,20,20,0,0,1-3,.59,27.74,27.74,0,0,1-3.4.19,15.34,15.34,0,0,1-6-1.13,14,14,0,0,1-4.71-3.13,14.31,14.31,0,0,1-3.11-4.8,16.33,16.33,0,0,1-1.12-6.09,16.83,16.83,0,0,1,1.09-6.13,13.55,13.55,0,0,1,7.93-7.92,17.75,17.75,0,0,1,6.4-1.1,16.86,16.86,0,0,1,6.29,1.07,14.5,14.5,0,0,1,4.5,2.8l-1.6,2.5a1.42,1.42,0,0,1-1.25.76,1.86,1.86,0,0,1-1-.33l-1.34-.77a8.84,8.84,0,0,0-1.52-.68,12,12,0,0,0-1.86-.47,13.08,13.08,0,0,0-2.39-.19,10.25,10.25,0,0,0-4,.74,8.41,8.41,0,0,0-3,2.11,9.49,9.49,0,0,0-1.93,3.3,13,13,0,0,0-.68,4.31,13.39,13.39,0,0,0,.72,4.56,9.57,9.57,0,0,0,2,3.37,8.74,8.74,0,0,0,3.07,2.11A10.33,10.33,0,0,0,537.47,619.22Z" fill="#cdddf1"/><path d="M577.31,599a1.54,1.54,0,0,1-.52.63,1.28,1.28,0,0,1-.71.19,1.82,1.82,0,0,1-.92-.32l-1.21-.71a10,10,0,0,0-1.63-.7,7.67,7.67,0,0,0-4.21,0,4.54,4.54,0,0,0-1.43.77,3.05,3.05,0,0,0-.87,1.18,3.73,3.73,0,0,0-.29,1.51,2.59,2.59,0,0,0,.58,1.74,4.87,4.87,0,0,0,1.55,1.19,14.19,14.19,0,0,0,2.2.88c.82.26,1.65.54,2.51.83a25.94,25.94,0,0,1,2.51,1,8.53,8.53,0,0,1,2.19,1.48,6.54,6.54,0,0,1,1.55,2.18,7.58,7.58,0,0,1,.59,3.14,10.17,10.17,0,0,1-.69,3.76,8.63,8.63,0,0,1-2,3,9.45,9.45,0,0,1-3.23,2.05,11.88,11.88,0,0,1-4.37.75,14.5,14.5,0,0,1-2.79-.27,15.38,15.38,0,0,1-2.63-.79,15,15,0,0,1-2.36-1.23,12.41,12.41,0,0,1-2-1.6l1.6-2.65a2,2,0,0,1,.55-.48,1.3,1.3,0,0,1,.7-.2,2.06,2.06,0,0,1,1.11.42c.4.29.86.6,1.4.94a11,11,0,0,0,1.91.93,7.38,7.38,0,0,0,2.64.42,5.4,5.4,0,0,0,3.65-1.12,4,4,0,0,0,1.29-3.21,3,3,0,0,0-.59-1.9,4.68,4.68,0,0,0-1.54-1.24,11.33,11.33,0,0,0-2.2-.85c-.82-.24-1.65-.49-2.5-.76a19.68,19.68,0,0,1-2.5-1,8.29,8.29,0,0,1-2.2-1.49,6.93,6.93,0,0,1-1.54-2.31,8.76,8.76,0,0,1-.59-3.41,8.23,8.23,0,0,1,2.53-5.89,9.29,9.29,0,0,1,3-1.9,11.05,11.05,0,0,1,4.12-.72,13.78,13.78,0,0,1,4.84.82,10.84,10.84,0,0,1,3.77,2.29Z" fill="#cdddf1"/><path d="M609.48,623.28h-4.27a1.89,1.89,0,0,1-1.17-.35,2.06,2.06,0,0,1-.67-.9l-2.22-6H588.87l-2.21,6a1.93,1.93,0,0,1-.65.86,1.8,1.8,0,0,1-1.18.39h-4.28l11.64-29.64h5.64Zm-19.19-11.19h9.45l-3.61-9.86c-.16-.44-.34-1-.54-1.55s-.4-1.24-.59-1.94c-.19.7-.38,1.35-.56,2s-.37,1.13-.54,1.58Z" fill="#cdddf1"/><path d="M618.05,618.73h11.87v4.55H612.53V593.64h5.52Z" fill="#cdddf1"/><path d="M652.43,593.64V598H639.29v8.23h10.36v4.24H639.29v8.39h13.14v4.4h-18.7V593.64Z" fill="#cdddf1"/><path d="M558.53,758s-44.48-1.68-52.29-31.11-8.21-47-25.38-47.42-31.48,15.12-31.48,15.12,11,42.11,21.26,51.1S495.25,758,495.25,758Z" fill="#ffd38e"/><path d="M489.32,681.68s-26-23.51-59.56-10.84-19.62,52.33-34.34,72.36S359,776.31,347.59,777.13s-27.8-4.91-27.8-4.91,9.41,10.22,19.63,11,13.9,0,13.9,0-6.95,9.81-17.17,11.86l-10.22,2s56.41,3.27,88.71-15.94,12.67-66.64,34.74-86.67S489.32,681.68,489.32,681.68Z" fill="#fcf7b9"/><rect x="285.46" y="552.85" width="397.95" height="12.88" fill="#2e738f"/><path d="M871.3,734.3s-2.5,16.39,0,20.28.83,14.45,0,16.95-14.17,8.33-18.61,8.05-16.61,6.67-22.06,6.67-10.17-1.67-9.34-4.17,1.67-6.66,6.67-7.78,18.83-9.89,18.95-10.82c0,.11,11.59-28.21,8.69-28Z" fill="#c97167"/><path d="M827.68,731s.56,12.23,2.22,16.67.28,15.84-2.22,17.51-8.34.55-12.22,6.94-25.57,15.28-28.34,9.73-1.67-7.51,3-9.73,11.67-10.28,13.34-13.33,8.61-13.06,10.83-15.29,1.67-6.94,1.67-6.94Z" fill="#c97167"/><path d="M806.3,465.34S785.37,548.7,781.52,572s9.74,62.23,12.39,76.68,22.1,87.8,22.1,87.8,11.67.55,12.78,0,3.46-70,2.29-95-4-42.79-2.84-46.68S841,560.07,841,560.07s7.78,56.42,8.89,85.87,4.44,90,6.11,90.82,12.78,4.76,16.11,3.65,17.34-140.13,17.29-176.48-3.95-86.36-3.95-86.36Z" fill="#294a71"/><path d="M885.47,477.57c-2.78,3.06-33.34,6.11-56.4,5.28s-28.44-7.23-28.8-11.39c-.34-3.74,3-22.85,3.67-26.8.08-.45.12-.71.12-.71l.51-2,8.27-32.05.59-2.26h0l8.14-31.59.75-2.91L831,339.48a8.68,8.68,0,0,1,6.67,4.17c2.78,4.17,6,5.83,9.79,7.5s22.44-8.06,22.44-8.06,2.25,18.46,5,40l.3,2.35c1.21,9.71,2.5,19.93,3.7,29.3.12.88.23,1.75.34,2.62,1.55,12,2.93,22.34,3.77,27.95.08.57.17,1.13.26,1.67.11.77.23,1.52.34,2.25C886.3,466.79,888.07,474.72,885.47,477.57Z" fill="#f16f5c"/><path d="M883.57,449.26a118.1,118.1,0,0,1-40.85,7.62,97.38,97.38,0,0,1-11.78-.71c-14.85-1.82-22.78-6.84-27-11.51.08-.45.12-.71.12-.71l.51-2c3.56,4.59,11,10.07,26.64,12,24.33,3,45.83-4.5,52-6.95C883.34,447.78,883.46,448.53,883.57,449.26Z" fill="#f9b9b3"/><path d="M879.2,417.39c-3.61,2.67-10.68,5.91-23.75,5.91-1.76,0-3.63-.07-5.61-.19-15-.95-28.27-7.61-37-13.19l.59-2.26c8.47,5.5,21.7,12.28,36.55,13.23,17.78,1.14,25.76-3.4,28.88-6.12C879,415.65,879.09,416.52,879.2,417.39Z" fill="#f9b9b3"/><path d="M875.16,385.47a49.88,49.88,0,0,1-23,6.07A41.16,41.16,0,0,1,840,389.72a34.18,34.18,0,0,1-18.42-13.65l.75-2.91a32.4,32.4,0,0,0,18.32,14.44c14.32,4.39,27.09-.54,34.22-4.48Z" fill="#f9b9b3"/><path d="M841.22,249.07s-10.92-.25-16.76,5.84-13.21,34.3-7.11,45.84,16.5,10.08,21.33,12.85,25.39,9.62,25.39,9.62,1.83.25,2.31-2.8a9.11,9.11,0,0,1,2.51-4.9s-1.52,3.21-1,5.41,2.79,4.15,2.49,2.88a10,10,0,0,1,1.32-5.42,5.77,5.77,0,0,1,1.61-1.6,18.19,18.19,0,0,0,2.2,3c.67.51,1.69-1.18,1.69-1.18s-2-2-1.69-3.39,22.68-43.5,1-56.37S845.2,245.52,841.22,249.07Z" fill="#1d283a"/><path d="M827.51,269.64s-6.86,8.38-5.84,16-2.29,13.2-2.29,17.77,5.08,22.35,8.13,22.35h8.88s1.27,9.14,0,14-4.2,8.13.57,13.21,13.4,7.36,18.22,3.3,11.93-10.7,11.93-10.7-3-9.62-3-13.93.76-7.87,0-8.38-3.81-6.55-3.81-9.24,2-4.47,3.81-6.25,4.31-3.3,3-8.89-8.88-3.81-9.13-1.52l-.26,2.28s-2.28-3.3-4.57-7.36-6.6-14.73-6.6-14.73,2,8.38,1,7.87a56.54,56.54,0,0,1-12.45-11.17l-4.06-5.33s4.57,7.62,3.05,7.87S827.51,269.64,827.51,269.64Z" fill="#c43f52"/><path d="M836.39,325.76s13.59-1.19,15.49-1.55,5.46-6.83,5.46-6.83-9.9,19.8-13.33,23.23S836.39,325.76,836.39,325.76Z" fill="#83283a"/><path d="M841,294.33c0,1.86-.74,3.37-1.65,3.37s-1.65-1.51-1.65-3.37.74-3.36,1.65-3.36S841,292.48,841,294.33Z" fill="#1d283a"/><path d="M826,293.57c0,1.86-.74,3.37-1.65,3.37s-1.65-1.51-1.65-3.37.74-3.36,1.65-3.36S826,291.71,826,293.57Z" fill="#1d283a"/><path d="M830.24,307.06a57.83,57.83,0,0,1-4.49-4.73c-.94-1.25.94-3,2.6-4.61a7.88,7.88,0,0,0,1.78-2c.19-1-1.11-3.65-1.62-4.6l.53-.3c.21.37,2,3.66,1.69,5-.11.56-.82,1.25-2,2.33-1.32,1.26-3.14,3-2.53,3.8a60.14,60.14,0,0,0,4.42,4.66Z" fill="#83283a"/><path d="M825.86,316.49a3.89,3.89,0,0,0,1.1.94,12.29,12.29,0,0,0,7.88,1.07,5.53,5.53,0,0,0,3.07-1.58,9.89,9.89,0,0,0,2.41-4.34c0-.16-.47-.32-1.35-.49a131.16,131.16,0,0,0-13.58-1.32,4.11,4.11,0,0,0-.94,0C824.09,311,824.74,315,825.86,316.49Z" fill="#83283a"/><path d="M825.39,310.77a12.24,12.24,0,0,0,.75,1.36c.26.28,11,.79,12.12.82.36,0,.58-.35.71-.86A131.16,131.16,0,0,0,825.39,310.77Z" fill="#fff"/><g opacity="0.47"><path d="M827,317.43a12.29,12.29,0,0,0,7.88,1.07,5.53,5.53,0,0,0,3.07-1.58c-1.52-1.81-4.78-2.36-8-1.19A9.93,9.93,0,0,0,827,317.43Z" fill="#c43f52"/></g><path d="M789.89,356.43s-19.63-7-21.48-13-4.82-31.11-4.82-38.52-1.85-52.83-2.22-58.65-3.71-9.52-1.85-14.7a39.06,39.06,0,0,1,3.33-7.46l24.82,15.61s-1.85,4.44-3.7,8.52-3.34,4.44-4.08,12.59,5.19,55.2,5.93,57.79,14.45,12.8,14.45,12.8Z" fill="#c43f52"/><path d="M904.44,333.88s16.32-3.82,19.93-8.7,13.06-32.38,15.84-43.77,10-30.84,9.17-35.84-2.23-6.11-1.12-10.84,4.73-3.33,6.12-7.78,6.94-1.94,9.44,0,10,7.78,10.56,12.51-6.11,15-9.17,18.34-4.17,10.83-5,13.61-7.5,67.79-13.89,77S900.75,367,900.75,367Z" fill="#c43f52"/><path d="M831,339.48s-8.61,39.73-15.28,61.4c-1.78,5.8-3.36,12.73-4.75,19.77h0c-3.78,19.28-6,39.4-6.64,39.4-.83,0-8.33-3.89-8.33-8.89s15.28-78.63,14.17-82.24-28.07-8.61-28.62-13.61,5.28-15.56,7.22-21.67,3.34-9.73,6.67-8.06,13.06,8.06,19.17,7a22.38,22.38,0,0,1,13.9,2.88C830.3,336.58,831.35,338,831,339.48Z" fill="#2e738f"/><path d="M908.53,368.65c-3.61,2.78-14.72,7.78-14.72,10.28s5.55,56.68,6.11,69.47S889.08,468.68,883,468.68s-12.22,3.05-13.06-3.89c-.48-4-.13-22.17.1-38.91v0c.16-12.25.25-23.73-.1-28.31-.83-10.84-1.94-45.57,0-54.46.08-.36,1.46-1.19,3.59-2.21,6.41-3.09,19.68-8,25.31-7.79,7.5.28,5.55.56,5.28,3.06s-.84,14.72,1.66,20.84S912.14,365.88,908.53,368.65Z" fill="#2e738f"/><path d="M831,339.48s-8.61,39.73-15.28,61.4c-1.78,5.8-3.36,12.73-4.75,19.77,0-.72.36-34.74,5.31-57.83,3.39-15.84,9-23.87,12.23-27.4C830.3,336.58,831.35,338,831,339.48Z" fill="#e8887e"/><path d="M870,425.86c.16-12.25.25-23.73-.1-28.31-.83-10.84-1.94-45.57,0-54.46.08-.36,1.46-1.19,3.59-2.21C884.33,355,870.11,422.12,870,425.86Z" fill="#e8887e"/><path d="M753.89,218.69,792,243.32a3.91,3.91,0,0,0,5.59-1.52l6.3-12.5a3.9,3.9,0,0,0-1.32-5L766,200.05a3.89,3.89,0,0,0-5.42,1.14l-7.8,12.13A3.88,3.88,0,0,0,753.89,218.69Z" fill="#1d283a"/><path d="M784,207.51s-9.45-.93-8.52,3.52,12.84,11.66,17.22,10.64,5.93-4.24,3.34-7.07S787.67,207.51,784,207.51Z" fill="#c43f52"/><polygon points="841.02 560.07 843.75 510.35 828.24 594.82 841.02 560.07" fill="#1b3044"/><path d="M837.36,287.27c1.27-.45,2.37.37,3.37,1.07s1.89-.91.92-1.59c-1.4-1-3-1.88-4.78-1.25-1.11.4-.63,2.18.49,1.77Z" fill="#1d283a"/><path d="M823.51,287.48c.39-.61,1.33-2.17,2.23-1.94a.92.92,0,0,0,.48-1.77c-1.92-.51-3.4,1.35-4.3,2.79-.63,1,1,1.93,1.59.92Z" fill="#1d283a"/><path d="M205.24,123.21H69.91a7.37,7.37,0,0,0-7.36,7.36v38.86a7.36,7.36,0,0,0,7.36,7.36h67.77l13.83,14.73a3.68,3.68,0,0,0,6.28-1.74l2.83-13h44.62a7.35,7.35,0,0,0,7.36-7.36V130.57A7.36,7.36,0,0,0,205.24,123.21Z" fill="#e8887e"/><path d="M104.83,155.69h-3v-6.88H94.5v6.88h-3V140h3v6.77h7.38V140h3Z" fill="#fff"/><path d="M112.63,144.35a6.11,6.11,0,0,1,2.27.4,4.92,4.92,0,0,1,1.73,1.14,5.11,5.11,0,0,1,1.11,1.81,7.34,7.34,0,0,1,0,4.78,5.15,5.15,0,0,1-1.11,1.82,4.81,4.81,0,0,1-1.73,1.15,6.67,6.67,0,0,1-4.55,0,5,5,0,0,1-1.75-1.15,5.32,5.32,0,0,1-1.12-1.82,7.52,7.52,0,0,1,0-4.78,5.28,5.28,0,0,1,1.12-1.81,5.1,5.1,0,0,1,1.75-1.14A6.13,6.13,0,0,1,112.63,144.35Zm0,9.43a2.37,2.37,0,0,0,2.06-.93,4.68,4.68,0,0,0,.67-2.74,4.73,4.73,0,0,0-.67-2.76,2.73,2.73,0,0,0-4.15,0,4.71,4.71,0,0,0-.68,2.75,4.64,4.64,0,0,0,.68,2.73A2.38,2.38,0,0,0,112.63,153.78Z" fill="#fff"/><path d="M125,144.35a6,6,0,0,1,2.27.4,5,5,0,0,1,1.74,1.14,5.11,5.11,0,0,1,1.11,1.81,7.52,7.52,0,0,1,0,4.78A5.15,5.15,0,0,1,129,154.3a4.85,4.85,0,0,1-1.74,1.15,6,6,0,0,1-2.27.4,6.11,6.11,0,0,1-2.27-.4A4.89,4.89,0,0,1,121,154.3a5.32,5.32,0,0,1-1.12-1.82,7.34,7.34,0,0,1,0-4.78,5.28,5.28,0,0,1,1.12-1.81,5,5,0,0,1,1.75-1.14A6.11,6.11,0,0,1,125,144.35Zm0,9.43a2.39,2.39,0,0,0,2.07-.93,4.75,4.75,0,0,0,.67-2.74,4.8,4.8,0,0,0-.67-2.76,2.74,2.74,0,0,0-4.16,0,4.71,4.71,0,0,0-.67,2.75,4.64,4.64,0,0,0,.67,2.73A2.4,2.4,0,0,0,125,153.78Z" fill="#fff"/><path d="M132.61,155.69V144.52h1.58a.86.86,0,0,1,.58.15.93.93,0,0,1,.22.53l.16,1.35a5.44,5.44,0,0,1,1.4-1.64,3,3,0,0,1,1.81-.6,2.29,2.29,0,0,1,1.37.39l-.35,2a.44.44,0,0,1-.14.28.5.5,0,0,1-.29.08,1.94,1.94,0,0,1-.45-.08,3.07,3.07,0,0,0-.75-.07,2.28,2.28,0,0,0-1.44.46,3.73,3.73,0,0,0-1,1.35v7Z" fill="#fff"/><path d="M149.94,155.69h-1.21a1.35,1.35,0,0,1-.59-.11.72.72,0,0,1-.33-.47l-.24-.79a9.38,9.38,0,0,1-.83.67,5.13,5.13,0,0,1-.85.48,4.51,4.51,0,0,1-.92.3,6.08,6.08,0,0,1-1.09.09,4.23,4.23,0,0,1-1.31-.19,2.8,2.8,0,0,1-1-.57,2.7,2.7,0,0,1-.66-.95,3.38,3.38,0,0,1-.24-1.32,2.63,2.63,0,0,1,.33-1.25,3.16,3.16,0,0,1,1.1-1.12,7.17,7.17,0,0,1,2.06-.82,13.08,13.08,0,0,1,3.19-.33v-.66a2.52,2.52,0,0,0-.47-1.67,1.75,1.75,0,0,0-1.38-.54,3.37,3.37,0,0,0-1.09.15,4.93,4.93,0,0,0-.76.34l-.59.35a1.21,1.21,0,0,1-.6.15.82.82,0,0,1-.47-.14,1.15,1.15,0,0,1-.31-.35l-.49-.86a6.61,6.61,0,0,1,4.65-1.77,4.35,4.35,0,0,1,1.74.33,3.54,3.54,0,0,1,1.3.89,3.81,3.81,0,0,1,.82,1.36,5.4,5.4,0,0,1,.27,1.75ZM144.72,154a3.64,3.64,0,0,0,.76-.07,3,3,0,0,0,.66-.23,3.47,3.47,0,0,0,.6-.37,5.32,5.32,0,0,0,.58-.52V151a10.89,10.89,0,0,0-2,.15,5.43,5.43,0,0,0-1.26.38,1.54,1.54,0,0,0-.68.54,1.16,1.16,0,0,0-.21.67,1.19,1.19,0,0,0,.42,1A1.86,1.86,0,0,0,144.72,154Z" fill="#fff"/><path d="M156.16,158.76a1,1,0,0,1-.31.43.94.94,0,0,1-.58.15h-2l2.09-4.48-4.51-10.34h2.35a.75.75,0,0,1,.5.15,1.23,1.23,0,0,1,.26.35l2.38,5.79a5.89,5.89,0,0,1,.21.59c.06.2.11.41.15.61.06-.21.12-.41.19-.61s.15-.39.23-.6l2.24-5.78a.83.83,0,0,1,.29-.36.77.77,0,0,1,.45-.14h2.15Z" fill="#fff"/><path d="M168.85,154.21a1.53,1.53,0,0,1,.13-.64,1.49,1.49,0,0,1,.35-.53,1.56,1.56,0,0,1,.52-.34,1.62,1.62,0,0,1,.66-.13,1.69,1.69,0,0,1,1.16.47,1.63,1.63,0,0,1,.35.53,1.53,1.53,0,0,1,.13.64,1.57,1.57,0,0,1-.13.65,1.54,1.54,0,0,1-.35.51,1.59,1.59,0,0,1-.52.35,1.73,1.73,0,0,1-.64.12,1.8,1.8,0,0,1-.66-.12,1.59,1.59,0,0,1-.52-.35,1.41,1.41,0,0,1-.35-.51A1.57,1.57,0,0,1,168.85,154.21Zm3-14.26v6.23a17.74,17.74,0,0,1-.1,1.94c-.06.63-.15,1.31-.26,2h-1.82c-.1-.71-.19-1.39-.26-2s-.09-1.28-.09-1.94V140Z" fill="#fff"/><path d="M176.7,154.21a1.53,1.53,0,0,1,.13-.64,1.46,1.46,0,0,1,.34-.53,1.72,1.72,0,0,1,.53-.34,1.57,1.57,0,0,1,.65-.13,1.61,1.61,0,0,1,.65.13,1.67,1.67,0,0,1,.52.34,1.81,1.81,0,0,1,.35.53,1.7,1.7,0,0,1,.13.64,1.75,1.75,0,0,1-.13.65,1.66,1.66,0,0,1-.87.86,1.78,1.78,0,0,1-.65.12,1.63,1.63,0,0,1-1.18-.47,1.39,1.39,0,0,1-.34-.51A1.57,1.57,0,0,1,176.7,154.21Zm3-14.26v6.23a17.74,17.74,0,0,1-.1,1.94c-.06.63-.15,1.31-.26,2h-1.82c-.11-.71-.19-1.39-.26-2s-.1-1.28-.1-1.94V140Z" fill="#fff"/><path d="M921.43,123.09H779.59a7.37,7.37,0,0,0-7.36,7.36v41.19a7.37,7.37,0,0,0,7.36,7.36h46.88l2.95,13.55a3.84,3.84,0,0,0,6.55,1.81L850.4,179h71a7.37,7.37,0,0,0,7.36-7.36V130.45A7.37,7.37,0,0,0,921.43,123.09Z" fill="#e8887e"/><path d="M809.79,150.6V157h-3V150.6l-6-10h2.69a1,1,0,0,1,.64.19,1.76,1.76,0,0,1,.39.49l3,5.49c.17.32.32.63.45.92s.25.58.35.86c.1-.29.21-.58.34-.87a7.65,7.65,0,0,1,.45-.91l3-5.49a1.64,1.64,0,0,1,.38-.47.94.94,0,0,1,.63-.21h2.71Z" fill="#fff"/><path d="M818.28,145.33v7.4a2.49,2.49,0,0,0,.49,1.66,1.84,1.84,0,0,0,1.48.58,3.07,3.07,0,0,0,1.37-.32,4.91,4.91,0,0,0,1.2-.89v-8.43h2.81V157h-1.72a.68.68,0,0,1-.71-.51l-.2-.93a7.7,7.7,0,0,1-.75.66,5,5,0,0,1-.82.52,4.79,4.79,0,0,1-2,.44,4,4,0,0,1-1.68-.32,3.53,3.53,0,0,1-1.24-.91,4.14,4.14,0,0,1-.75-1.41,5.91,5.91,0,0,1-.26-1.79v-7.4Z" fill="#fff"/><path d="M828.62,157V140.1h2.81v6.49a6,6,0,0,1,1.5-1.05,4.39,4.39,0,0,1,1.92-.39,4.24,4.24,0,0,1,1.69.32,3.41,3.41,0,0,1,1.23.91,3.92,3.92,0,0,1,.75,1.4,5.89,5.89,0,0,1,.26,1.78V157H836v-7.42a2.48,2.48,0,0,0-.49-1.65,1.82,1.82,0,0,0-1.48-.58,3,3,0,0,0-1.37.33,5.18,5.18,0,0,0-1.2.89V157Z" fill="#fff"/><path d="M844.11,145.33v7.4a2.49,2.49,0,0,0,.49,1.66,1.82,1.82,0,0,0,1.48.58,3,3,0,0,0,1.36-.32,4.77,4.77,0,0,0,1.21-.89v-8.43h2.8V157h-1.71a.69.69,0,0,1-.72-.51l-.19-.93a7.7,7.7,0,0,1-.75.66,5.4,5.4,0,0,1-.82.52,4.88,4.88,0,0,1-2,.44,4.08,4.08,0,0,1-1.69-.32,3.41,3.41,0,0,1-1.23-.91,4.14,4.14,0,0,1-.75-1.41,5.61,5.61,0,0,1-.26-1.79v-7.4Z" fill="#fff"/><path d="M857,145.33v7.4a2.49,2.49,0,0,0,.49,1.66A1.84,1.84,0,0,0,859,155a3.05,3.05,0,0,0,1.36-.32,4.91,4.91,0,0,0,1.2-.89v-8.43h2.81V157h-1.72a.68.68,0,0,1-.71-.51l-.2-.93a7.7,7.7,0,0,1-.75.66,5,5,0,0,1-.82.52,4.79,4.79,0,0,1-2,.44,4.06,4.06,0,0,1-1.68-.32,3.53,3.53,0,0,1-1.24-.91,4.14,4.14,0,0,1-.75-1.41,5.91,5.91,0,0,1-.26-1.79v-7.4Z" fill="#fff"/><path d="M869.93,145.33v7.4a2.49,2.49,0,0,0,.5,1.66,1.82,1.82,0,0,0,1.48.58,3,3,0,0,0,1.36-.32,4.77,4.77,0,0,0,1.21-.89v-8.43h2.8V157h-1.71a.69.69,0,0,1-.72-.51l-.19-.93q-.37.36-.75.66a5,5,0,0,1-.83.52,4.52,4.52,0,0,1-.94.32,4.7,4.7,0,0,1-1.08.12,4.08,4.08,0,0,1-1.69-.32,3.41,3.41,0,0,1-1.23-.91,4,4,0,0,1-.76-1.41,5.91,5.91,0,0,1-.25-1.79v-7.4Z" fill="#fff"/><path d="M885.54,155.44a1.67,1.67,0,0,1,.13-.67,1.75,1.75,0,0,1,.36-.55,1.87,1.87,0,0,1,.55-.36,1.72,1.72,0,0,1,.68-.14,1.67,1.67,0,0,1,.67.14,1.64,1.64,0,0,1,.55.36,1.75,1.75,0,0,1,.36.55,1.67,1.67,0,0,1,0,1.34,1.7,1.7,0,0,1-.36.54,1.64,1.64,0,0,1-.55.36,1.67,1.67,0,0,1-.67.13,1.72,1.72,0,0,1-.68-.13,1.87,1.87,0,0,1-.55-.36,1.7,1.7,0,0,1-.36-.54A1.67,1.67,0,0,1,885.54,155.44Zm3.08-14.88v6.5a19.23,19.23,0,0,1-.11,2c-.06.67-.16,1.37-.27,2.11h-1.9c-.11-.74-.2-1.44-.27-2.11a19.24,19.24,0,0,1-.1-2v-6.5Z" fill="#fff"/><path d="M893.73,155.44a1.67,1.67,0,0,1,.13-.67,1.59,1.59,0,0,1,.36-.55,1.75,1.75,0,0,1,.55-.36,1.72,1.72,0,0,1,.68-.14,1.67,1.67,0,0,1,.67.14,1.61,1.61,0,0,1,.91.91,1.67,1.67,0,0,1,0,1.34,1.7,1.7,0,0,1-.36.54,1.75,1.75,0,0,1-.55.36,1.67,1.67,0,0,1-.67.13,1.72,1.72,0,0,1-.68-.13,1.75,1.75,0,0,1-.55-.36,1.55,1.55,0,0,1-.36-.54A1.67,1.67,0,0,1,893.73,155.44Zm3.07-14.88v6.5a19.24,19.24,0,0,1-.1,2c-.07.67-.16,1.37-.27,2.11h-1.9c-.11-.74-.2-1.44-.27-2.11a19.24,19.24,0,0,1-.1-2v-6.5Z" fill="#fff"/><path d="M238.69,181.82l2.9-5.29,2.89,5.29a8,8,0,0,0,3.16,3.16l5.29,2.89-5.29,2.9a8,8,0,0,0-3.16,3.15l-2.89,5.3-2.9-5.3a7.89,7.89,0,0,0-3.15-3.15l-5.29-2.9,5.29-2.89A7.92,7.92,0,0,0,238.69,181.82Z" fill="#cdddf1"/><path d="M870.3,213.17l2.9-5.29,2.89,5.29a8,8,0,0,0,3.16,3.16l5.29,2.89-5.29,2.9a8,8,0,0,0-3.16,3.15l-2.89,5.3-2.9-5.3a8,8,0,0,0-3.15-3.15l-5.3-2.9,5.3-2.89A8,8,0,0,0,870.3,213.17Z" fill="#cdddf1"/><path d="M147.05,79l2.89-5.29,2.9,5.29A8,8,0,0,0,156,82.14l5.3,2.89-5.3,2.9a7.89,7.89,0,0,0-3.15,3.15l-2.9,5.29-2.89-5.29a7.92,7.92,0,0,0-3.16-3.15L138.6,85l5.29-2.89A8,8,0,0,0,147.05,79Z" fill="#cdddf1"/><path d="M77.69,423.82l2.9-5.29,2.89,5.29A7.88,7.88,0,0,0,86.64,427l5.29,2.89-5.29,2.9a7.88,7.88,0,0,0-3.16,3.16l-2.89,5.29-2.9-5.29a7.88,7.88,0,0,0-3.16-3.16l-5.29-2.9L74.53,427A7.88,7.88,0,0,0,77.69,423.82Z" fill="#cdddf1"/><path d="M718.05,143.4l2.9-5.29,2.89,5.29a7.94,7.94,0,0,0,3.16,3.16l5.29,2.89-5.29,2.9a7.88,7.88,0,0,0-3.16,3.16L721,160.8l-2.9-5.29a7.88,7.88,0,0,0-3.16-3.16l-5.29-2.9,5.29-2.89A7.94,7.94,0,0,0,718.05,143.4Z" fill="#cdddf1"/><path d="M746.7,63.93l2.9-5.29,2.89,5.29a8,8,0,0,0,3.16,3.16L760.94,70l-5.29,2.9A7.92,7.92,0,0,0,752.49,76l-2.89,5.3L746.7,76a7.89,7.89,0,0,0-3.15-3.15l-5.3-2.9,5.3-2.89A8,8,0,0,0,746.7,63.93Z" fill="#cdddf1"/><path d="M937.24,443.37l2.89-5.29,2.9,5.29a8,8,0,0,0,3.15,3.16l5.3,2.89-5.3,2.9a8,8,0,0,0-3.15,3.15l-2.9,5.3-2.89-5.3a8,8,0,0,0-3.16-3.15l-5.29-2.9,5.29-2.89A8,8,0,0,0,937.24,443.37Z" fill="#cdddf1"/></g></g></svg>