<svg xmlns="http://www.w3.org/2000/svg" viewBox="0 0 759.49 819.81"><g id="ad20cf2c-f54e-40df-8172-1d53f1e4ae62" data-name="Layer 2"><g id="f9345a3c-28e4-4243-bba0-7f9d6b4e67f6" data-name="Layer 1"><rect x="424.69" y="339.03" width="218.84" height="398.03" fill="#e9eef8"/><rect x="581.08" y="362.45" width="24.02" height="24.02" fill="#cdddf1"/><rect x="581.08" y="411.21" width="24.02" height="24.02" fill="#cdddf1"/><rect x="581.08" y="459.97" width="24.02" height="24.02" fill="#cdddf1"/><polygon points="88.61 737.07 88.61 235.15 157.91 174.85 157.91 737.07 88.61 737.07" fill="#e9eef8"/><path d="M126.12,260.63H101a3.23,3.23,0,0,1-3.23-3.23h0a3.23,3.23,0,0,1,3.23-3.23h25.12a3.23,3.23,0,0,1,3.23,3.23h0A3.23,3.23,0,0,1,126.12,260.63Z" fill="#cdddf1"/><path d="M126.12,274.77H101a3.22,3.22,0,0,1-3.23-3.23h0a3.23,3.23,0,0,1,3.23-3.23h25.12a3.23,3.23,0,0,1,3.23,3.23h0A3.22,3.22,0,0,1,126.12,274.77Z" fill="#cdddf1"/><rect x="97.77" y="282.46" width="31.58" height="6.46" rx="3.23" fill="#cdddf1"/><polygon points="700.94 448.16 700.94 744.22 631.64 744.22 631.64 508.46 700.94 448.16" fill="#e9eef8"/><path d="M669.15,533.94H644a3.23,3.23,0,0,1-3.23-3.23h0a3.23,3.23,0,0,1,3.23-3.23h25.13a3.23,3.23,0,0,1,3.22,3.23h0A3.23,3.23,0,0,1,669.15,533.94Z" fill="#cdddf1"/><path d="M669.15,548.08H644a3.23,3.23,0,0,1-3.23-3.23h0a3.23,3.23,0,0,1,3.23-3.23h25.13a3.23,3.23,0,0,1,3.22,3.23h0A3.22,3.22,0,0,1,669.15,548.08Z" fill="#cdddf1"/><path d="M669.15,562.23H644a3.23,3.23,0,0,1-3.23-3.23h0a3.23,3.23,0,0,1,3.23-3.23h25.13a3.22,3.22,0,0,1,3.22,3.23h0A3.23,3.23,0,0,1,669.15,562.23Z" fill="#cdddf1"/><path d="M126.12,303.06H101a3.23,3.23,0,0,1-3.23-3.23h0A3.23,3.23,0,0,1,101,296.6h25.12a3.23,3.23,0,0,1,3.23,3.23h0A3.23,3.23,0,0,1,126.12,303.06Z" fill="#cdddf1"/><rect x="18.11" y="409.52" width="216.92" height="327.55" fill="#e9eef8"/><path d="M60.77,635c4.79-8,9-21.6-.42-32.4s1.31-15.26,2.7-29-16.66-15-15.64-32.73c.42-7.22-4.64-19-13-19.84-10.38-1-16.38,11.28-15.89,19.84,1,17.77-17,18.94-15.64,32.73s12.09,18.25,2.7,29S.41,627,5.21,635s-5.69,21.82-.9,33.8,15.16,29.45,28.68,29c13.51.4,23.91-17.14,28.67-29S56,643.07,60.77,635Z" fill="#cdddf1"/><line x1="33.21" y1="743.39" x2="33.21" y2="549.93" fill="#92b2dd"/><path d="M33.66,550.08V743.39h-.9V550.08c0-.33.2-.6.45-.6S33.66,549.75,33.66,550.08Z" fill="#92b2dd"/><line x1="18.56" y1="573.7" x2="33.21" y2="592" fill="#92b2dd"/><path d="M33.21,592.45a.43.43,0,0,1-.35-.17L18.21,574a.44.44,0,0,1,.07-.63.46.46,0,0,1,.63.07l14.65,18.3a.45.45,0,0,1-.35.73Z" fill="#92b2dd"/><line x1="33.21" y1="686.19" x2="50.51" y2="670.59" fill="#92b2dd"/><path d="M33.21,686.64a.45.45,0,0,1-.3-.78l17.3-15.61a.45.45,0,0,1,.6.67l-17.3,15.6A.46.46,0,0,1,33.21,686.64Z" fill="#92b2dd"/><line x1="33.21" y1="562.37" x2="26.96" y2="555.68" fill="#92b2dd"/><path d="M33.21,562.82a.47.47,0,0,1-.33-.14L26.63,556a.45.45,0,0,1,.66-.62l6.24,6.7a.44.44,0,0,1,0,.63A.42.42,0,0,1,33.21,562.82Z" fill="#92b2dd"/><line x1="33.21" y1="611.57" x2="49.37" y2="597.55" fill="#92b2dd"/><path d="M33.21,612a.45.45,0,0,1-.3-.79l16.16-14a.45.45,0,1,1,.59.68l-16.16,14A.46.46,0,0,1,33.21,612Z" fill="#92b2dd"/><line x1="33.21" y1="637.69" x2="13.1" y2="616.97" fill="#92b2dd"/><path d="M33.21,638.14a.47.47,0,0,1-.33-.14l-20.1-20.72a.46.46,0,0,1,0-.64.47.47,0,0,1,.64,0l20.1,20.72a.46.46,0,0,1,0,.64A.48.48,0,0,1,33.21,638.14Z" fill="#92b2dd"/><path d="M754.28,635c4.79-8,9-21.6-.41-32.4s1.31-15.26,2.7-29-16.66-15-15.64-32.73c.41-7.22-4.64-19-13-19.84-10.38-1-16.39,11.28-15.89,19.84,1,17.77-17,18.94-15.64,32.73s12.09,18.25,2.69,29-5.2,24.35-.41,32.4-5.69,21.82-.9,33.8,15.17,29.45,28.68,29c13.52.4,23.92-17.14,28.68-29S749.49,643.07,754.28,635Z" fill="#cdddf1"/><line x1="726.72" y1="743.39" x2="726.72" y2="549.93" fill="#92b2dd"/><path d="M727.17,550.08V743.39h-.9V550.08c0-.33.2-.6.45-.6S727.17,549.75,727.17,550.08Z" fill="#92b2dd"/><line x1="712.08" y1="573.7" x2="726.72" y2="592" fill="#92b2dd"/><path d="M726.72,592.45a.46.46,0,0,1-.35-.17L711.73,574a.44.44,0,0,1,.07-.63.46.46,0,0,1,.63.07l14.64,18.3a.44.44,0,0,1-.07.63A.42.42,0,0,1,726.72,592.45Z" fill="#92b2dd"/><line x1="726.72" y1="686.19" x2="744.03" y2="670.59" fill="#92b2dd"/><path d="M726.72,686.64a.45.45,0,0,1-.3-.78l17.3-15.61a.46.46,0,0,1,.64,0,.44.44,0,0,1,0,.63L727,686.52A.42.42,0,0,1,726.72,686.64Z" fill="#92b2dd"/><line x1="726.72" y1="562.37" x2="720.48" y2="555.68" fill="#92b2dd"/><path d="M726.72,562.82a.43.43,0,0,1-.32-.14L720.15,556a.45.45,0,0,1,.66-.62l6.24,6.7a.44.44,0,0,1,0,.63A.47.47,0,0,1,726.72,562.82Z" fill="#92b2dd"/><line x1="726.72" y1="611.57" x2="742.89" y2="597.55" fill="#92b2dd"/><path d="M726.72,612a.46.46,0,0,1-.34-.15.46.46,0,0,1,0-.64l16.16-14a.45.45,0,0,1,.59.68l-16.16,14A.48.48,0,0,1,726.72,612Z" fill="#92b2dd"/><line x1="726.72" y1="637.69" x2="706.62" y2="616.97" fill="#92b2dd"/><path d="M726.72,638.14a.47.47,0,0,1-.32-.14l-20.1-20.72a.45.45,0,1,1,.64-.63l20.11,20.72a.47.47,0,0,1,0,.64A.48.48,0,0,1,726.72,638.14Z" fill="#92b2dd"/><rect x="185.93" width="382.55" height="737.07" rx="35" fill="#cdddf1"/><path d="M530.57,23.28H447.83V38.19a2.71,2.71,0,0,1-2.74,2.68H318.76A2.71,2.71,0,0,1,316,38.19V23.28H223.83A19,19,0,0,0,204.61,42V699.93a19,19,0,0,0,19.22,18.73H530.57a19,19,0,0,0,19.23-18.73V42A19,19,0,0,0,530.57,23.28Z" fill="#fff"/><rect x="269.83" y="107.93" width="5.49" height="306.71" fill="#cdddf1"/><circle cx="272.57" cy="107.93" r="26.5" transform="translate(3.52 224.35) rotate(-45)" fill="#e9eef8"/><path d="M272.28,118.32a5.16,5.16,0,0,1-3.89-1.75l-7.69-8.63a2.47,2.47,0,1,1,3.69-3.28l7.69,8.63a.26.26,0,0,0,.22.09.25.25,0,0,0,.21-.12l22.32-32.79a2.47,2.47,0,1,1,4.09,2.78L276.6,116a5.17,5.17,0,0,1-4,2.27Z" fill="#f16f5c"/><circle cx="272.57" cy="208.65" r="26.5" transform="translate(-67.7 253.85) rotate(-45)" fill="#e9eef8"/><path d="M272.28,219a5.19,5.19,0,0,1-3.89-1.75l-7.69-8.63a2.47,2.47,0,0,1,3.69-3.29l7.69,8.63a.24.24,0,0,0,.22.09.25.25,0,0,0,.21-.12l22.32-32.79a2.47,2.47,0,0,1,4.09,2.78l-22.32,32.8a5.22,5.22,0,0,1-4,2.27Z" fill="#f16f5c"/><circle cx="272.57" cy="309.36" r="26.5" transform="translate(-138.92 283.35) rotate(-45)" fill="#e9eef8"/><circle cx="272.57" cy="408.73" r="26.5" transform="translate(-209.18 312.45) rotate(-45)" fill="#e9eef8"/><rect x="335.75" y="90.01" width="139.84" height="8.85" rx="2" fill="#cdddf1"/><rect x="335.75" y="113.9" width="74" height="8.85" rx="2" fill="#cdddf1"/><rect x="335.75" y="191.25" width="139.84" height="8.85" rx="2" fill="#cdddf1"/><rect x="335.75" y="215.15" width="74" height="8.85" rx="2" fill="#cdddf1"/><rect x="335.75" y="292.5" width="139.84" height="8.85" rx="2" fill="#cdddf1"/><rect x="335.75" y="316.39" width="74" height="8.85" rx="2" fill="#cdddf1"/><rect x="269.83" y="603.82" width="220.67" height="67.31" rx="10" fill="#cdddf1"/><rect x="193.66" y="665.66" width="113.06" height="1.1" transform="translate(-238.27 148.68) rotate(-22.76)" fill="#92b2dd"/><rect x="249.64" y="609.69" width="1.1" height="113.06" transform="translate(-461.15 645.4) rotate(-67.74)" fill="#92b2dd"/><rect x="193.66" y="665.66" width="113.06" height="1.1" transform="translate(-461.07 643) rotate(-67.55)" fill="#92b2dd"/><rect x="249.64" y="609.69" width="1.1" height="113.06" transform="translate(-236.18 146.71) rotate(-22.53)" fill="#92b2dd"/><path d="M250.19,595.36a70.86,70.86,0,1,0,70.86,70.85A70.86,70.86,0,0,0,250.19,595.36Zm0,127.38a56.53,56.53,0,1,1,56.53-56.53A56.53,56.53,0,0,1,250.19,722.74Z" fill="#294a71"/><rect x="249.09" y="609.68" width="2.2" height="113.06" fill="#92b2dd"/><rect x="193.66" y="665.11" width="113.06" height="2.2" fill="#92b2dd"/><rect x="249.09" y="609.68" width="2.2" height="113.06" transform="translate(-397.8 372.04) rotate(-45)" fill="#92b2dd"/><rect x="193.66" y="665.11" width="113.06" height="2.2" transform="translate(-397.8 372.04) rotate(-45)" fill="#92b2dd"/><circle cx="250.19" cy="665.53" r="7.35" transform="translate(-455.01 756.12) rotate(-76.72)" fill="#294a71"/><path d="M569.77,566.76c.71,2.12,12.13,29.43,12.13,29.43l-34.42,22.93L536.25,578.4Z" fill="#294a71"/><path d="M154.34,541.13h-58a2.75,2.75,0,0,1-2.42-1.46L85,522.86a2.75,2.75,0,0,1,1.81-4h0a2.74,2.74,0,0,1,3,1.39l7.35,13.88a2.75,2.75,0,0,0,2.43,1.46h54.73a2.75,2.75,0,0,1,2.75,2.75h0A2.75,2.75,0,0,1,154.34,541.13Z" fill="#c97167"/><path d="M164.41,521.76H61.52a2.93,2.93,0,0,1-2.93-2.93h0a2.93,2.93,0,0,1,2.93-2.93H164.41a2.93,2.93,0,0,1,2.93,2.93h0A2.93,2.93,0,0,1,164.41,521.76Z" fill="#e8887e"/><path d="M424.31,288.34c2.93-6.45,4.89-23.86-11.56-29.93s-43.22-9-53,19.76,7.63,46.17,8.6,47.15-.39,2.15-1.56,6.07a8.4,8.4,0,0,1-5.09,5.17l21.6,12.24s11.66-16.83,13-18.2,9,1.57,11.15,1.37c1.69-.15,8.91-13.29,11.38-21h0s3.3-3.37,4.18-4.25-.3-2.79-1.47-4,0-7.82,0-8C422.39,292.64,423.35,290.46,424.31,288.34Z" fill="#f79e86"/><path d="M465.54,389.51s11.09-1.35,17-6.58,23.25-.81,26.26,3.29-3.38,13.84-6.39,13.12.56-2.71,1.5-4.51,1.13-3.61-.38-4.87-2.25,3.25-6,5.05-11.85,3.79-15.8,2.16-12.8.55-12.8.55Z" fill="#c43f52"/><path d="M356.29,358.33c-1.91,4.48-1.67,9.6-1.55,14.52.34,13.45,5.65,27.35,20.09,31.9,27.48,8.65,67.75,3.24,76.41,1.44s20.32-3.25,19.57-8.29.38-13.63-5.65-14-60.59,11.5-73.76-7.25c-5.52-7.85-8.8-19.47-16.33-25.78-5.29-4.43-12.49-.91-16.33,3.54A14.87,14.87,0,0,0,356.29,358.33Z" fill="#e8887e"/><path d="M354.66,339.11s5.57-7,11.44-5.28,19.67,11.74,19.67,14.09-2.53,10-2.53,10Z" fill="#f9b9b3"/><path d="M352.12,336.67s-18.4-3.13-34.44,23.48-30,65-31.83,75.91-1,23.08,3.27,25.82,63,11,73.17,8.61,10.17-12.41,10.17-12.41,19.73-79.93,15.15-94S363.46,338.23,352.12,336.67Z" fill="#f16f5c"/><path d="M321.2,462.81s23.19-105.5,33.46-100.36S382,375,383.24,379.34s-18.37,79.4-18.37,79.4l-2.34.22s19.81-79.84,18.54-80.81-26.26-14.24-27.88-12.77-12.62,30.37-18.78,52.38-10,45.05-10,45.05Z" fill="#e8887e"/><path d="M337.68,362.45s-7.48,24.7,7,53.26S373.21,455,373.21,455l10-46.29Z" fill="#e8887e"/><path d="M339.09,356.74c-2,4.86-1.73,10.42-1.6,15.76.35,14.58,5.87,29.66,20.89,34.6,28.56,9.39,70.43,3.52,79.43,1.57s21.13-3.52,20.35-9,.39-14.78-5.87-15.22-63,12.48-76.7-7.87c-5.73-8.51-9.14-21.12-17-28-5.5-4.8-13-1-17,3.85A16.38,16.38,0,0,0,339.09,356.74Z" fill="#f16f5c"/><polygon points="396.33 330.6 380.68 327.67 387.93 342.17 396.33 330.6" fill="#c43f52"/><path d="M428,271.52c-.2,1.25-1,1.52-2.32,1.31-3.85-.6-12.21-5.14-23.7-.92-10.48,3.84-13.85,19.73-16.1,31.09-1.07,5.41-1.88,9.78-3.08,11.36-3.71,4.9-18.44,6-26.06,2s-8.57-43.63,2.58-60.06,35.81-11.16,35.81-11.16C417,244.07,428.81,266.63,428,271.52Z" fill="#e8887e"/><path d="M410.93,319.51c-.7,0-1.52,0-2.43-.12a5.17,5.17,0,0,1-4.11-3.15.6.6,0,0,1,.34-.76.59.59,0,0,1,.76.33h0a3.94,3.94,0,0,0,3.12,2.41,22.45,22.45,0,0,0,4.47,0,.58.58,0,0,1,.66.5.59.59,0,0,1-.51.66A18.34,18.34,0,0,1,410.93,319.51Z" fill="#c43f52"/><path d="M417.19,292.55c0,1.51-.77,2.74-1.72,2.74s-1.73-1.23-1.73-2.74.78-2.74,1.73-2.74S417.19,291,417.19,292.55Z" fill="#23375c"/><path d="M411.21,287.64c1.25-1.5,3.18-3.27,5.22-2a.88.88,0,0,0,.89-1.52c-2.75-1.66-5.56.17-7.35,2.32-.72.86.52,2.11,1.24,1.24Z" fill="#23375c"/><g opacity="0.65"><path d="M428.87,291.73c-1.18,10.57-1.71,16.24-3.3,17.8s-29.32,1.13-39.8-7.25c2.24-11.37,5.62-27.25,16.1-31.09,11.49-4.22,19.85.32,23.7.92A39.41,39.41,0,0,1,428.87,291.73Z" fill="#fff"/></g><path d="M494.43,593.79s5.13,5.29,5.9,6.58,4.35,6.07,6.29,5.84,14.73-5.9,16.7-8,14.38-6.22,17.86-8.39,3-8,.59-9.26-9.81,2.89-12.92,3.95-10.35,1.37-14.36,2.27-7.28,1.08-8.88.25-2.93-1.71-2.93-1.71Z" fill="#92b2dd"/><path d="M364.87,458.6s37.92-5.68,46.13,0,91.86,123.9,91.86,126.13-7,9.18-8.22,9.18-42.55-23.37-66.91-59.26-22.3-37.28-28.46-36.44-64.16,2.78-61.87-9.74S364.87,458.6,364.87,458.6Z" fill="#23375c"/><path d="M457.23,604.27s4.32,5.91,4.62,7.37,2.1,7.06,4,7.43,15.93-1.17,18.5-2.56,15.72-1.58,19.75-2.6,5.49-6.65,3.66-8.6-10.28-.21-13.58-.14-10.27-1.8-14.38-2.15-7.27-1.17-8.51-2.44a31.63,31.63,0,0,1-2.2-2.5Z" fill="#92b2dd"/><path d="M289.12,461.58s-15.65,54.15,21.52,54.15,85.3-8.12,86.47-3.5a191.47,191.47,0,0,0,19.18,46.16c12.91,22.63,36,47.85,40.3,47.85s14.87-5.93,13.7-8.16S421,472,410.81,465.29s-27.39-9.64-59.09-5.19S289.12,461.58,289.12,461.58Z" fill="#2d4d9d"/><rect x="547.48" y="665.66" width="113.06" height="1.1" transform="translate(-210.72 285.57) rotate(-22.76)" fill="#92b2dd"/><rect x="603.46" y="609.69" width="1.1" height="113.06" transform="translate(-241.36 972.85) rotate(-67.74)" fill="#92b2dd"/><rect x="547.48" y="665.66" width="113.06" height="1.1" transform="translate(-242.38 970) rotate(-67.55)" fill="#92b2dd"/><rect x="603.46" y="609.69" width="1.1" height="113.06" transform="translate(-209.17 282.29) rotate(-22.53)" fill="#92b2dd"/><path d="M604,595.36a70.86,70.86,0,1,0,70.85,70.85A70.86,70.86,0,0,0,604,595.36Zm0,127.38a56.53,56.53,0,1,1,56.53-56.53A56.53,56.53,0,0,1,604,722.74Z" fill="#294a71"/><rect x="602.91" y="609.68" width="2.2" height="113.06" fill="#92b2dd"/><rect x="547.48" y="665.11" width="113.06" height="2.2" fill="#92b2dd"/><rect x="602.91" y="609.68" width="2.2" height="113.06" transform="translate(-294.17 622.23) rotate(-45)" fill="#92b2dd"/><rect x="547.48" y="665.11" width="113.06" height="2.2" transform="translate(-294.17 622.23) rotate(-45)" fill="#92b2dd"/><polygon points="563.26 615.86 603.09 667.13 607.12 664.57 588.08 607.81 563.26 615.86" fill="#92b2dd"/><circle cx="604.01" cy="665.53" r="7.35" transform="translate(-182.49 1100.47) rotate(-76.72)" fill="#294a71"/><rect x="144.46" y="515.9" width="211.47" height="17.03" rx="8.51" fill="#f9b9b3"/><path d="M597.6,566.79c-8.05,9.16-39.55,4.4-49.8,21.61s-22,53.46-35.15,54.93-362.64,0-362.64,0V532.92H349.33s18.68,70.31,31.31,80.75,99.42,4.39,113.7-4.4c11.7-7.2,22.42-28.17,23.69-53.64a101.51,101.51,0,0,0-.63-17.4c-4-33-26.36-117.9-24.89-127.06s8.42-24.9,19.77-28.56,22.7-.37,23.07,0,1.83,22.7,0,25.63-8.79,6.59-8.79,12.82,41,71.77,54.93,94.84S605.65,557.64,597.6,566.79Z" fill="#e8887e"/><ellipse cx="535.35" cy="395.7" rx="9.02" ry="13.09" fill="#f9b9b3"/><path d="M551.83,527.62s21.24,13.18,15.74,21.23-23.43-.36-27.09-10.62S545.8,523.34,551.83,527.62Z" fill="#f9b9b3"/><path d="M525.61,659.54c-4.06-5.39-6.33-17.3-3.92-23.54,5.49-14.2,19.2-34.59,42-49.43,33-21.46,77.93-6.59,87.39,2.56,6.15,6,11.19,16.57,8.81,25.11a2.91,2.91,0,0,1-1,1.74,3.38,3.38,0,0,1-1.89.39c-24.56.1-47.89-4.07-71.35,6.09-32.16,13.91-51.83,48-56,42.47Z" fill="#f9b9b3"/><rect x="104.63" y="310.94" width="142.26" height="19.31" rx="7" fill="#ffd38e"/><rect x="113.7" y="330.25" width="121.33" height="40.65" fill="#f69782"/><path d="M186.56,345.72H162.5a4.59,4.59,0,0,1-4.59-4.58h0a4.59,4.59,0,0,1,4.59-4.58h24.06a4.58,4.58,0,0,1,4.58,4.58h0A4.58,4.58,0,0,1,186.56,345.72Z" fill="#d65f48"/><path d="M173.57,373.27h0a6.23,6.23,0,0,1-6.23-6.22V311a6.22,6.22,0,0,1,6.23-6.22h0a6.21,6.21,0,0,1,6.22,6.22v56A6.22,6.22,0,0,1,173.57,373.27Z" fill="#d65f48"/><rect x="73.6" y="370.89" width="207.07" height="145.01" rx="11" fill="#ffd38e"/><rect x="88.61" y="395.43" width="42.11" height="21.97" rx="4" fill="#f69782"/><rect x="194.44" y="461.56" width="70.31" height="41.53" rx="4" fill="#f69782"/><rect x="198.83" y="465.73" width="61.52" height="33.17" rx="4" fill="#fff"/><path d="M124.06,462.81H92a3.36,3.36,0,0,1-3.37-3.36h0A3.37,3.37,0,0,1,92,456.08h32.08a3.37,3.37,0,0,1,3.37,3.37h0A3.36,3.36,0,0,1,124.06,462.81Z" fill="#f69782"/><path d="M106.3,479.28H92a3.37,3.37,0,0,1-3.37-3.37h0A3.37,3.37,0,0,1,92,472.54H106.3a3.37,3.37,0,0,1,3.37,3.37h0A3.37,3.37,0,0,1,106.3,479.28Z" fill="#f69782"/><path d="M259.18,401.55H205.77a3.37,3.37,0,0,1-3.37-3.37h0a3.37,3.37,0,0,1,3.37-3.37h53.41a3.37,3.37,0,0,1,3.37,3.37h0A3.37,3.37,0,0,1,259.18,401.55Z" fill="#f69782"/><path d="M231.66,418H205.77a3.37,3.37,0,0,1-3.37-3.37h0a3.37,3.37,0,0,1,3.37-3.37h25.89a3.37,3.37,0,0,1,3.37,3.37h0A3.37,3.37,0,0,1,231.66,418Z" fill="#f69782"/><path d="M173.57,536.77h0a6.23,6.23,0,0,1-6.23-6.23v-156a6.23,6.23,0,0,1,6.23-6.22h0a6.22,6.22,0,0,1,6.22,6.22v156A6.22,6.22,0,0,1,173.57,536.77Z" fill="#f69782"/><path d="M491.87,395.66l19.82-.56a1.42,1.42,0,0,1,1.46,1.42v.56a1.41,1.41,0,0,1-1.42,1.41H491.91a1.42,1.42,0,0,1-1.42-1.41h0A1.42,1.42,0,0,1,491.87,395.66Z" fill="#c97167"/><path d="M150,544.85H304.22a9,9,0,0,1,8.79,7.07l20.15,91.93h-174Z" fill="#c97167"/><rect x="142.08" y="612.02" width="199.02" height="46.16" rx="11" fill="#f9b9b3"/><rect x="101.61" y="552.07" width="201.58" height="126.41" rx="15.38" fill="#f69782"/><path d="M303.19,571.19v14.39a33.58,33.58,0,0,1-33.5,33.67H135.12a33.59,33.59,0,0,1-33.51-33.67V571.19A15.42,15.42,0,0,1,117,555.73H287.81A15.42,15.42,0,0,1,303.19,571.19Z" fill="#d65f48"/><path d="M129.72,666.15H114.83a2.66,2.66,0,0,1-2.66-2.66h0a2.66,2.66,0,0,1,2.66-2.65h14.89a2.65,2.65,0,0,1,2.65,2.65h0A2.66,2.66,0,0,1,129.72,666.15Z" fill="#d65f48"/><path d="M156.48,666.15H141.59a2.66,2.66,0,0,1-2.66-2.66h0a2.66,2.66,0,0,1,2.66-2.65h14.89a2.65,2.65,0,0,1,2.65,2.65h0A2.65,2.65,0,0,1,156.48,666.15Z" fill="#d65f48"/><path d="M183.24,666.15H168.35a2.66,2.66,0,0,1-2.66-2.66h0a2.66,2.66,0,0,1,2.66-2.65h14.89a2.65,2.65,0,0,1,2.65,2.65h0A2.65,2.65,0,0,1,183.24,666.15Z" fill="#d65f48"/><path d="M210,666.15H195.11a2.66,2.66,0,0,1-2.66-2.66h0a2.66,2.66,0,0,1,2.66-2.65H210a2.66,2.66,0,0,1,2.66,2.65h0A2.66,2.66,0,0,1,210,666.15Z" fill="#d65f48"/><path d="M236.76,666.15H221.87a2.66,2.66,0,0,1-2.66-2.66h0a2.66,2.66,0,0,1,2.66-2.65h14.89a2.66,2.66,0,0,1,2.66,2.65h0A2.66,2.66,0,0,1,236.76,666.15Z" fill="#d65f48"/><path d="M263.52,666.15H248.63a2.66,2.66,0,0,1-2.66-2.66h0a2.66,2.66,0,0,1,2.66-2.65h14.89a2.66,2.66,0,0,1,2.66,2.65h0A2.66,2.66,0,0,1,263.52,666.15Z" fill="#d65f48"/><path d="M290.28,666.15H275.39a2.66,2.66,0,0,1-2.66-2.66h0a2.66,2.66,0,0,1,2.66-2.65h14.89a2.66,2.66,0,0,1,2.66,2.65h0A2.66,2.66,0,0,1,290.28,666.15Z" fill="#d65f48"/><path d="M303.19,567.45v14.32a33.5,33.5,0,0,1-33.5,33.5H135.12a33.5,33.5,0,0,1-33.51-33.5V567.45A15.38,15.38,0,0,1,117,552.07H287.81A15.37,15.37,0,0,1,303.19,567.45Z" fill="#ffd38e"/><path d="M297.43,582.81a2.5,2.5,0,0,1-2.5-2.5v-10a2.5,2.5,0,0,1,5,0v10A2.49,2.49,0,0,1,297.43,582.81Z" fill="#f69782"/><path d="M253.21,612.18H232.9a2.5,2.5,0,1,1,0-5h20.31a2.5,2.5,0,1,1,0,5Zm-40.63,0H192.26a2.5,2.5,0,0,1,0-5h20.32a2.5,2.5,0,1,1,0,5Zm-40.63,0H151.63a2.5,2.5,0,0,1,0-5H172a2.5,2.5,0,0,1,0,5Zm-40.58-.8a3.27,3.27,0,0,1-.53,0,35,35,0,0,1-18.71-10.67,2.5,2.5,0,0,1,3.74-3.32,29.93,29.93,0,0,0,16,9.1,2.5,2.5,0,0,1-.53,4.94Zm142.1,0a2.5,2.5,0,0,1-.53-5,29.88,29.88,0,0,0,16-9.11,2.5,2.5,0,0,1,3.74,3.32A34.94,34.94,0,0,1,274,611.32,2.39,2.39,0,0,1,273.47,611.38Z" fill="#f69782"/><path d="M107.37,582.81a2.5,2.5,0,0,1-2.5-2.5v-10a2.5,2.5,0,0,1,5,0v10A2.5,2.5,0,0,1,107.37,582.81Z" fill="#f69782"/><path d="M208.32,621.63H196.79a5.63,5.63,0,0,1-5.63-5.63h0a5.63,5.63,0,0,1,5.63-5.63h11.53A5.63,5.63,0,0,1,214,616h0A5.63,5.63,0,0,1,208.32,621.63Z" fill="#fff"/><g opacity="0.39"><path d="M526.33,431.08c4.27,5.51,57.25,89.56,53,89.87s-22.5-6.5-29.52-12.87S526.33,431.08,526.33,431.08Z" fill="#f9b9b3"/></g><path d="M519.05,555.77S516.84,602.58,507,612s-116.13,16-127.25,13.44-38.64-86.41-38.64-86.41H150v-6.13H349.33s18.68,70.31,31.31,80.75,99.42,4.39,113.7-4.4c11.7-7.2,22.42-28.17,23.69-53.64Z" fill="#c97167"/><path d="M700.94,182.11v165a7.16,7.16,0,0,1-7.05,7.26H470.13a6.89,6.89,0,0,1-5.06-2.21,7.31,7.31,0,0,1-2-5.05V182.11a7.28,7.28,0,0,1,2-5.05,6.89,6.89,0,0,1,5.06-2.21H693.89A7.16,7.16,0,0,1,700.94,182.11Z" fill="#e8887e"/><path d="M693.17,190.18V339.81a6.59,6.59,0,0,1-6.59,6.59H477.44a6.57,6.57,0,0,1-6.59-6.59V190.18a6.59,6.59,0,0,1,6.59-6.59H686.58A6.59,6.59,0,0,1,693.17,190.18Z" fill="#e9eef8"/><path d="M616.46,228.53l-28.33,25.12h0l-37.46,33,79.57,59.79H616.74l-72.28-54.31L482.73,346.4h-5.29a6.61,6.61,0,0,1-4.74-2L575.52,254l-87.65-70.36h13l80.84,64.9,73.18-64.9h12.25L622.73,223l70.44,47.91v9.83Z" fill="#fff"/><path d="M580.23,283l35.49-32a2.77,2.77,0,0,1,3.46-.2l55.94,39.86a2.76,2.76,0,0,1,.35,4.21L638.9,331.24a2.76,2.76,0,0,1-3.68.2l-54.87-44.2A2.77,2.77,0,0,1,580.23,283Z" fill="#cdddf1"/><path d="M511.43,341.52l34.32-29.15a2.77,2.77,0,0,1,3.45-.11L588,341.42a2.77,2.77,0,0,1-1.66,5H513.22A2.77,2.77,0,0,1,511.43,341.52Z" fill="#f16f5c"/><path d="M522,235.92l-46.77,34a2.76,2.76,0,0,1-4.39-2.24V190.13a2.76,2.76,0,0,1,4.65-1.94l46.77,43.47A2.76,2.76,0,0,1,522,235.92Z" fill="#cdddf1"/><path d="M538.47,272l-17-18.72a2.78,2.78,0,0,0-3.78-.3l-17.27,13.85a2.76,2.76,0,0,0-.31,4l17.56,19a2.76,2.76,0,0,0,3.82.23L538.2,276A2.76,2.76,0,0,0,538.47,272Z" fill="#f16f5c"/><path d="M544.71,270.47l12.22-10.34a2.76,2.76,0,0,0,0-4.22l-19.11-16.19a2.76,2.76,0,0,0-3.52-.05l-10,8.05a2.77,2.77,0,0,0-.31,4c5.45,6,11.57,12.64,16.94,18.49A2.75,2.75,0,0,0,544.71,270.47Z" fill="#f16f5c"/><path d="M490.71,274.62,471.88,289.7a2.79,2.79,0,0,0-1,2.16V327a2.76,2.76,0,0,0,4.55,2.11l37-31.29a2.76,2.76,0,0,0,.22-4l-18.14-19A2.77,2.77,0,0,0,490.71,274.62Z" fill="#f16f5c"/><path d="M634.34,188.48c-19.06,16-43.86,36.86-50.59,42.53a2.76,2.76,0,0,1-3.52,0l-52.37-42.52a2.77,2.77,0,0,1,1.74-4.92h103A2.77,2.77,0,0,1,634.34,188.48Z" fill="#cdddf1"/><path d="M693.17,186.36v65.42a2.76,2.76,0,0,1-4.31,2.29c-14.39-9.71-39.63-26.36-48.21-32a2.76,2.76,0,0,1-.36-4.34c6.7-6.18,24.85-22.93,36.51-33.42a2.72,2.72,0,0,1,1.85-.71H690.4A2.77,2.77,0,0,1,693.17,186.36Z" fill="#f16f5c"/><path d="M582.48,141.66c-39.31,0-12.6,49-3,64.71a3.47,3.47,0,0,0,6-.06C594.58,190.54,620,141.66,582.48,141.66Zm-.47,31a8.82,8.82,0,1,1,8.81-8.82A8.81,8.81,0,0,1,582,172.69Z" fill="#e8887e"/><rect y="737.07" width="754.69" height="12.82" rx="4" fill="#92b2dd"/><rect x="66.48" y="772.03" width="369.62" height="12.82" rx="4" fill="#e9eef8"/><rect x="475.73" y="772.03" width="207.32" height="12.82" rx="4" fill="#e9eef8"/><rect x="296.95" y="806.99" width="207.32" height="12.82" rx="4" fill="#e9eef8"/><path d="M457.31,390.35s6.19-.36,12.36-6,24.17-.88,27.3,3.57-3.52,15-6.65,14.24.58-2.94,1.56-4.89,1.18-3.92-.39-5.29-2.35,3.53-6.26,5.48-12.32,4.11-16.43,2.35-10.64-.1-10.64-.1Z" fill="#f79e86"/><path d="M497.75,397.2a5.66,5.66,0,1,1-5.66-5.65A5.65,5.65,0,0,1,497.75,397.2Z" fill="#f9b9b3"/></g></g></svg>