<svg xmlns="http://www.w3.org/2000/svg" viewBox="0 0 932.52 798.93"><g id="a48fd014-86b2-4a77-b9e8-7105161de564" data-name="Layer 2"><g id="b6f86ff0-be2b-486d-99be-0b891a9fac0a" data-name="Layer 1"><g opacity="0.5"><ellipse cx="854.82" cy="198.74" rx="54.77" ry="54.73" fill="#e9eef8"/><ellipse cx="854.82" cy="198.74" rx="42.65" ry="42.62" fill="#92b2dd"/><path d="M851.56,219.58a21.56,21.56,0,0,1-6.35-1.85,17.74,17.74,0,0,1-5-3.44l2.19-3.27a2.39,2.39,0,0,1,.77-.71,2,2,0,0,1,1-.27,2.61,2.61,0,0,1,1.36.45l1.65,1a21.94,21.94,0,0,0,2.11,1.22,10.09,10.09,0,0,0,2.81.89l1.1-13c-1.37-.39-2.73-.84-4.07-1.36a13.89,13.89,0,0,1-3.62-2.08,9.58,9.58,0,0,1-2.58-3.26,11,11,0,0,1-1-4.93,11.19,11.19,0,0,1,.88-4.31,11.63,11.63,0,0,1,2.56-3.76,13.68,13.68,0,0,1,4.14-2.73,14.08,14.08,0,0,1,5.64-1.07l.32-3.68a2,2,0,0,1,.58-1.26,1.78,1.78,0,0,1,1.36-.55H860l-.49,5.68a16,16,0,0,1,5.29,1.74,19.21,19.21,0,0,1,3.88,2.8L867,184.56a3.45,3.45,0,0,1-.81.87,1.7,1.7,0,0,1-1,.29,2.46,2.46,0,0,1-1-.28l-1.36-.66c-.51-.26-1.07-.53-1.69-.8a11.46,11.46,0,0,0-2.05-.66l-1,12c1.38.43,2.76.9,4.12,1.41a14.85,14.85,0,0,1,3.67,2,9.51,9.51,0,0,1,2.65,3,9.19,9.19,0,0,1,1,4.52,14.23,14.23,0,0,1-.89,5.05,12.44,12.44,0,0,1-2.62,4.16,13.17,13.17,0,0,1-4.24,2.94,17.16,17.16,0,0,1-5.76,1.36l-.35,4.25a2.05,2.05,0,0,1-.57,1.23,1.79,1.79,0,0,1-1.36.56H851Zm-2.92-31.17a4.73,4.73,0,0,0,.38,1.94,4.8,4.8,0,0,0,1.05,1.49,7.91,7.91,0,0,0,1.61,1.16,16.39,16.39,0,0,0,2,.91l.9-10.71a10.49,10.49,0,0,0-2.72.68,6.11,6.11,0,0,0-1.85,1.17A4.52,4.52,0,0,0,849,186.6,5,5,0,0,0,848.64,188.41Zm14.06,18.92a4.46,4.46,0,0,0-.39-1.93,4.54,4.54,0,0,0-1.1-1.46,7.15,7.15,0,0,0-1.66-1.1,19.17,19.17,0,0,0-2.08-.83l-1,11.73a7.6,7.6,0,0,0,4.65-2.06A6.07,6.07,0,0,0,862.7,207.33Z" fill="#e9eef8"/></g><rect y="764.09" width="932.52" height="10.39" rx="5" fill="#cdddf1"/><rect x="74.03" y="788.54" width="448.77" height="10.39" rx="5" fill="#cdddf1"/><rect x="547.46" y="788.54" width="276.94" height="10.39" rx="5" fill="#cdddf1"/><path d="M351.94,258.45v0h0Zm0,50h0ZM339.46,221v0l0,0Zm0,12.49v0h0Zm-25,12.48v0h0v0ZM302,345.84l0,0v0ZM277,246h0v0Zm-12.48-62.46v0h0ZM227.09,320.88l0,0v0Zm0-24.94h0v0Zm0-25v0h0v0Zm0,12.49,0,0v0Zm0-137.34v0h0Z" fill="#e9eef8"/><path d="M114.78,96.21v87.28h87.27V96.21ZM189.6,171H127.3V108.7h62.3Z" fill="#e9eef8"/><path d="M289.6,96.25v87.26h87.26V96.25ZM364.41,171H302.1V108.71h62.31Z" fill="#e9eef8"/><path d="M114.81,271v87.26h87.28V271Zm74.79,74.81H127.31V283.52H189.6Z" fill="#e9eef8"/><path d="M264.65,133.6V121.1H277V96.23H214.67v24.92h12.45v24.93h12.52V133.67h12.47v12.45h12.47V158.5H277V133.6ZM252,121.05H239.64V108.7H252Zm-24.87,25.07v0h0Z" fill="#e9eef8"/><path d="M177.15,208.51V221h24.93v12.46H164.7v25H114.82V233.57h12.36V245.9h25V208.51l0,0h25Z" fill="#e9eef8"/><path d="M227.09,320.88v12.48h12.47v12.46H252V358.3H214.7V320.91h12.42Z" fill="#e9eef8"/><path d="M152.21,208.51h-25V221H114.82V196.12h37.36v12.42Z" fill="#e9eef8"/><path d="M376.86,233.45H364.47V208.56H352V196.09h24.83Z" fill="#e9eef8"/><path d="M177.18,208.54V196.12h24.89v12.39H177.15Z" fill="#e9eef8"/><path d="M352,258.49V246.06h12.4v12.4H352Z" fill="#e9eef8"/><path d="M364.5,271h12.36v12.37H364.5Z" fill="#e9eef8"/><path d="M264.58,183.57V171.15H277v12.39H264.55Z" fill="#e9eef8"/><path d="M227.12,295.91H214.7V283.45h12.42l0,0v12.51Z" fill="#e9eef8"/><path d="M352,308.43V296h12.4v12.4H352Z" fill="#e9eef8"/><path d="M339.46,221h12.43v12.45H339.46l0,0V221Z" fill="#e9eef8"/><path d="M277,345.82H264.62V333.47H277Z" fill="#e9eef8"/><path d="M302,345.85v12.43h-12.4v-12.4H302Z" fill="#e9eef8"/><path d="M376.86,358.31H364.51V346h12.35Z" fill="#e9eef8"/><path d="M351.94,320.88V308.42h-12.4v-25h12.4V258.48H339.46v-25H327.07V221h12.39V208.48H327V196h-62.4V183.57H252V158.64H239.58v24.85H227.11v-1.34q0-18,0-36h-12.5V246H177.22v12.44h37.42V271h12.45v0h0v0h0c0,4.15,0,8.29,0,12.45h12.4v12.52h-12.4v24.94h25V308.47h62.3v12.47H289.58v12.47H302v12.43h25V358.3h12.47v-25h37.37V320.88Zm-49.87-112.3h12.35v12.36H302.07ZM241.17,246V214.77h31.2V246ZM277,295.87H264.65V283.52H277Zm.06-49.87h0v0h0Zm49.86,49.85H302v-12.4h0v0H289.62V271H302v12.4h0v0h24.89Zm0-37.45h-12.4V246h0v0h0v0h12.4Z" fill="#e9eef8"/><path d="M277.06,246l0,0v0Z" fill="#e9eef8"/><path d="M177.09,158.54H139.76V121.21h37.33Z" fill="#e9eef8"/><path d="M314.55,158.51V121.18h37.33v37.33Z" fill="#e9eef8"/><path d="M139.76,333.31V296h37.32v37.33Z" fill="#e9eef8"/><path d="M677.23,432.57H849.36c6,0,10.9,4.14,10.9,9.24V764.09h-183Z" fill="#e8887e"/><path d="M834.23,505a40.29,40.29,0,0,1-36.73-56.83H691.35V764.09H844.59V503.69A40.26,40.26,0,0,1,834.23,505Z" fill="#f9b9b3"/><circle cx="766.72" cy="588.11" r="38.16" transform="translate(18.19 1199.2) rotate(-76.72)" fill="#fff"/><rect x="278.9" width="398.33" height="764.09" rx="35" fill="#2d4d9d"/><rect x="296.59" y="41.44" width="362.94" height="706.19" rx="35" fill="#f3fafe"/><path d="M515.39,26.91H438.92a3.06,3.06,0,0,1-3.05-3.06h0a3.06,3.06,0,0,1,3.05-3.06h76.47a3.06,3.06,0,0,1,3.06,3.06h0A3.06,3.06,0,0,1,515.39,26.91Z" fill="#cdddf1"/><rect x="351.37" y="77.76" width="32.69" height="32.69" rx="6" fill="#92b2dd"/><path d="M511.28,99.36H410.34a5.25,5.25,0,0,1-5.25-5.25h0a5.25,5.25,0,0,1,5.25-5.26H511.28a5.25,5.25,0,0,1,5.26,5.26h0A5.25,5.25,0,0,1,511.28,99.36Z" fill="#92b2dd"/><path d="M547.58,146.07S555,60.44,577.9,72.48,619.72,95.7,623.16,225.6,573.75,470.47,552.86,444s-12.23-106.09-12.23-106.09Z" fill="#e9eef8"/><path d="M556.31,146.2s9.17-26,15.29-15.29S590,147,585,160s-6.86,27.15,1.16,35.18S598.36,231.36,590,240s-18,25.1-12.81,29.3,4.4-4.84,6.69-6.05,8,7.2,3.06,12.55-11.08,7.27-9.75,13.38,4.8,20.65-1.71,28.68-1.54,12.23-3.07,20.65-3.82,19.48-6.12,16.62-6.49,5.93-9.93,15.49-3.45-34.79-3.45-34.79Z" fill="#92b2dd"/><path d="M350.7,151.26,340.61,323.85A8.6,8.6,0,0,0,349,333l217.07,5.57s-12-13.77,0-25.81,4.59-23.44,0-34.37.43-19.59,6.53-28.74S585,215.21,577,204.89s-10.9-20.65-2.3-29.25-6.3-29.25-6.3-29.25l-208.93-3.23A8.6,8.6,0,0,0,350.7,151.26Z" fill="#2d4d9d"/><path d="M402.52,200a17.92,17.92,0,1,1,0-28.43,17.9,17.9,0,0,0,0,28.43Z" fill="#ffd38e"/><g opacity="0.6"><path d="M409.53,185.81a17.88,17.88,0,0,1-7,14.22,17.9,17.9,0,0,1,0-28.43A17.88,17.88,0,0,1,409.53,185.81Z" fill="#f16f5c"/></g><path d="M431.32,185.81A17.91,17.91,0,0,1,402.52,200a17.92,17.92,0,0,0,0-28.43,17.9,17.9,0,0,1,28.8,14.21Z" fill="#e8887e"/><rect x="414.87" y="191.8" width="9.53" height="91.22" rx="1.72" transform="translate(168.97 649.26) rotate(-88.17)" fill="#92b2dd"/><path d="M480.12,234.57l42.5,1.36c.46,0,.81.79.78,1.74l-.2,6.09c0,1-.42,1.7-.88,1.69l-42.51-1.36c-.46,0-.81-.79-.78-1.74l.2-6.08C479.26,235.32,479.66,234.56,480.12,234.57Z" fill="#92b2dd"/><path d="M375.5,250.13l113,3.61a2,2,0,0,1,2.16,1.79l-.2,6.08a2,2,0,0,1-2.27,1.65l-113-3.61a2,2,0,0,1-2.16-1.79l.19-6.08A2,2,0,0,1,375.5,250.13Z" fill="#92b2dd"/><path d="M379.12,297l165.27,5.44c1.79.06,3.22.87,3.19,1.82l-.2,6.08c0,.95-1.51,1.68-3.3,1.62l-165.27-5.44c-1.79-.05-3.22-.87-3.18-1.82l.2-6.08C375.86,297.63,377.33,296.91,379.12,297Z" fill="#92b2dd"/><path d="M594.56,251.53c-.69.55-5.57,4.78-4.23,7.27s7.07,1.91,8.6,0S600.31,247,594.56,251.53Z" fill="#92b2dd"/><path d="M572.36,118.29s-.36,5.73,1.35,8.22,4.19,2.87,4.19-2.1S574.46,111.79,572.36,118.29Z" fill="#92b2dd"/><path d="M565.1,360.31s-2.68,9.58,0,11.67,7.64,1.52,5-5.84S565.66,357.9,565.1,360.31Z" fill="#92b2dd"/><path d="M590.1,290s-7,3.3-5.5,7S597.9,294.93,590.1,290Z" fill="#92b2dd"/><path d="M599.76,244.14a.55.55,0,0,1-.4-.16.57.57,0,0,1,0-.81s3.43-3.89,3.8-20.13c.26-11.69-3.37-19.59-6.88-27.24A94.86,94.86,0,0,1,592.2,186c-1.6-4.86-.85-11.38-.06-18.29,1.05-9.16,2.14-18.62-2.48-24.18-3.82-4.59-4.09-8.27-4.41-12.54-.37-5-.84-11.33-7.82-21.54-2.55-3.74-5-5.37-7.36-4.87C563.31,106,558.66,124.75,558,128.4a.57.57,0,0,1-.57.49.56.56,0,0,1-.57-.57c0-.21,4.47-22.27,12.49-24.75,3-.92,6,.84,9,5.22,7.15,10.47,7.63,16.92,8,22.11.31,4.23.56,7.58,4.14,11.89,4.93,5.93,3.82,15.64,2.74,25-.78,6.78-1.51,13.18,0,17.8a91,91,0,0,0,4,9.69c3.56,7.77,7.25,15.8,7,27.74-.39,16.86-4,20.75-4.12,20.91A.58.58,0,0,1,599.76,244.14Z" fill="#92b2dd"/><path d="M551,391.49a3.68,3.68,0,0,1-2.11-.65c-4.14-2.84-4-14.75-3.82-25.26.06-3.9.11-7.59-.07-10.4a.58.58,0,0,1,1.15-.08c.18,2.86.13,6.57.07,10.5-.14,9.71-.31,21.8,3.32,24.29a3.1,3.1,0,0,0,3.09.09,21.21,21.21,0,0,0,5.41-3.63c3-2.5,5.86-4.87,9.62-2.44.16.11.6.39,1.44-.34,4.85-4.22,11.61-32.49,7.5-41.37-3-6.49.12-11.5,3.13-16.35,2-3.18,3.85-6.18,4.06-9.55.32-5.21,2.63-6.69,5.08-8.26a13.33,13.33,0,0,0,5.53-5.72c3.77-7.54,2.57-10.35-2.18-19a6.9,6.9,0,0,1-.59-6.37c2-4.59,9.33-6.34,9.64-6.41a.57.57,0,1,1,.26,1.12c-.07,0-7,1.69-8.86,5.76a5.83,5.83,0,0,0,.56,5.35c4.76,8.64,6.2,12,2.19,20A14.41,14.41,0,0,1,589.5,309c-2.38,1.52-4.26,2.73-4.55,7.37-.23,3.65-2.26,6.91-4.22,10.07-3,4.8-5.81,9.34-3.07,15.27,1.93,4.16,1.84,12.77-.23,23-1.59,7.9-4.55,17.05-7.56,19.67a2.18,2.18,0,0,1-2.81.44c-3.06-2-5.36-.06-8.27,2.35a22.59,22.59,0,0,1-5.71,3.81A5.45,5.45,0,0,1,551,391.49Z" fill="#92b2dd"/><path d="M257.45,332.73V764.09h-194A11.46,11.46,0,0,1,52,752.62V361.4a28.67,28.67,0,0,1,28.67-28.67Z" fill="#e9eef8"/><path d="M257.45,332.73v96H52V364.5c0-17.55,12.84-31.77,28.67-31.77Z" fill="#92b2dd"/><path d="M257.45,332.72v86.66H97.37a1.72,1.72,0,0,1-1-3.1c7.53-5.48,20.65-19,20.65-46.79,0-33.07-26.13-36.49-34.07-36.77Z" fill="#fff"/><rect x="80.66" y="457.99" width="48.46" height="11.29" rx="3" fill="#92b2dd"/><rect x="139.31" y="457.99" width="48.46" height="11.29" rx="3" fill="#92b2dd"/><rect x="80.95" y="486.01" width="77.41" height="11.29" rx="3" fill="#92b2dd"/><rect x="80.95" y="720.66" width="77.41" height="11.29" rx="3" fill="#92b2dd"/><rect x="80.95" y="520.75" width="48.17" height="11.06" rx="3" fill="#92b2dd"/><rect x="80.95" y="688.56" width="48.17" height="11.06" rx="3" fill="#92b2dd"/><path d="M377.65,257.65s14.16-11.47,14-6.59-5.65,6.88-.2,4.87,8.6-10,14.05-4.3,1.72,12.62,0,14.34-20.36,5.16-20.36,5.16Z" fill="#f79e86"/><path d="M319.45,458l48.78-176.77a5.16,5.16,0,0,0-4-6.44l-2.13-.4a5.16,5.16,0,0,0-5.9,3.62L303.58,457Z" fill="#92b2dd"/><polygon points="293.08 308.31 343.85 319.93 340.09 332.73 290.35 320.52 293.08 308.31" fill="#92b2dd"/><polygon points="279.56 353.93 330.33 365.55 326.57 378.35 276.83 366.14 279.56 353.93" fill="#92b2dd"/><path d="M202.48,358.46s-13.48,47-8.95,63a82.32,82.32,0,0,1,3,29l50.09,3.07V440.22Z" fill="#23375c"/><path d="M201.1,358s-13.37,11.85-4.58,39.38,41.68,37.08,50.09,42.82,9.17,24.85,9.17,24.85l65.38,8.79s1.53-43.2-3.82-48.94-39-42.31-39-42.31Z" fill="#2e738f"/><path d="M311.71,177.24s7.88-9.12,5.92-13.59-3.57-5.17-3.57-5.17,1.42-7-1.08-10.53-11.6-6.61-15-4.29L294.6,146a12.08,12.08,0,0,0-8.39-8.39c-7-2-16.07,10-16.07,10s-6.78-3.75-10,1.43a13.37,13.37,0,0,0-1.25,10.71s-10.36-3.22-13.57,5.17-2.86,10.36-2.86,10.36-12.67,6.6-11.06,15.35,3.92,11.25,3.92,11.25-2.14,8.56,1.61,12.49a42.62,42.62,0,0,0,8.92,6.78s.18,9.11,6.79,11.25,8.6.71,8.6.71,6.21,9.29,13.35,4.65,4.18-15.22,15.75-20.55S311.71,177.24,311.71,177.24Z" fill="#c43f52"/><path d="M315.6,456.82,407.32,358a8.71,8.71,0,0,1,11.5-1.18L576.48,469.92a9.19,9.19,0,0,1,2.06,12.73l-62.81,88a8.72,8.72,0,0,1-11.32,2.64L317.83,471A9.15,9.15,0,0,1,315.6,456.82Z" fill="#c97167"/><path d="M312.5,454.71l91.73-98.86a8.7,8.7,0,0,1,11.49-1.18L573.38,467.81a9.17,9.17,0,0,1,2.06,12.73l-62.81,88a8.72,8.72,0,0,1-11.32,2.64L314.74,468.9A9.16,9.16,0,0,1,312.5,454.71Z" fill="#e8887e"/><path d="M415.39,390.31l19,14.75a7.45,7.45,0,0,1,.54,11.3l-27,25.55a7.46,7.46,0,0,1-9.74.43l-18.31-14.46a7.46,7.46,0,0,1-.6-11.18l26.39-25.83A7.45,7.45,0,0,1,415.39,390.31Z" fill="#ffd38e"/><path d="M431.47,402.65l-5.85,5.52a5.42,5.42,0,0,1-7.07.35l-5-3.84a5.45,5.45,0,0,1-.9-7.74L417,391.6l-1.34-1.09-4.33,5.34A7.18,7.18,0,0,0,412.53,406l1.39,1.07L398.83,421.3l-3.76-2.81a6.61,6.61,0,0,0-8.4.42l-8.27,7.58,1.17,1.26,8.26-7.57a4.88,4.88,0,0,1,6.21-.31l7.24,5.41a4.86,4.86,0,0,1,.53,7.35l-7,7,1.22,1.21,7-7a6.6,6.6,0,0,0-.72-10l-2.09-1.56,15.08-14.16,2.2,1.7a7.13,7.13,0,0,0,9.31-.46l5.84-5.52Z" fill="#e8887e"/><path d="M319.45,458s212.39.36,221.18,6.76.19,61.39.19,61.39-38,24.92-103.58,9.91S319.45,458,319.45,458Z" fill="#c97167"/><rect x="164.67" y="502.58" width="372.47" height="261.51" rx="14.34" fill="#d65f48"/><path d="M540.63,516.92V749.76a14.34,14.34,0,0,1-14.34,14.33H522.8a14.33,14.33,0,0,0,14.34-14.33V516.92a14.35,14.35,0,0,0-14.34-14.34h3.49A14.35,14.35,0,0,1,540.63,516.92Z" fill="#f69782"/><path d="M533.75,485.66,523.5,602.33l-3.31-.21L168,580l4.52-77.38,5.17-40.08a14.34,14.34,0,0,1,12.69-12.42,13.79,13.79,0,0,1,2.41-.06L520.35,470.1A14.33,14.33,0,0,1,533.75,485.66Z" fill="#23375c"/><path d="M530.43,485.66,520.19,602.12,168,580l4.52-77.38,5.17-40.08a14.34,14.34,0,0,1,12.69-12.42L517,470.1A14.34,14.34,0,0,1,530.43,485.66Z" fill="#2d4d9d"/><path d="M222.14,502.59a18,18,0,0,0,4.47,11.92,18.16,18.16,0,1,1,1.77-25.62A18.09,18.09,0,0,0,222.14,502.59Z" fill="#fff"/><path d="M232.84,500.82a18.1,18.1,0,0,1-6.23,13.69,18.15,18.15,0,0,1,1.77-25.62A18.09,18.09,0,0,1,232.84,500.82Z" fill="#92b2dd" opacity="0.47"/><path d="M258.46,502.59a18.16,18.16,0,0,1-31.85,11.92,18.17,18.17,0,0,0,1.77-25.62,18.15,18.15,0,0,1,30.08,13.7Z" fill="#92b2dd"/><rect x="294.4" y="497.19" width="217.55" height="14.91" rx="6" transform="translate(22.36 -17.08) rotate(2.5)" fill="#92b2dd"/><path d="M533.08,526.1l10.62,0a5.16,5.16,0,0,1,5.13,5.55l-5.32,70.64H526.38Z" fill="#2d4d9d"/><path d="M530.2,526.1l10.62,0a5.17,5.17,0,0,1,5.13,5.55l-5.32,70.64H523.5Z" fill="#23375c"/><path d="M505.31,516.92V749.76A14.33,14.33,0,0,1,491,764.09H151.9a14.32,14.32,0,0,1-14.33-14.33V516.92a14.33,14.33,0,0,1,14.33-14.33H491a14.34,14.34,0,0,1,14.34,14Z" fill="#ffd38e"/><path d="M208.15,514.58H191.09a1.15,1.15,0,0,0,0,2.3h17.06a1.15,1.15,0,1,0,0-2.3Zm34.13,0H225.22a1.14,1.14,0,0,0-1.15,1.15,1.12,1.12,0,0,0,.14.55,1.15,1.15,0,0,0,1,.6h17.06a1.15,1.15,0,1,0,0-2.3Zm34.12,0H259.34a1.15,1.15,0,0,0,0,2.3H276.4a1.15,1.15,0,1,0,0-2.3Zm34.13,0H293.46a1.15,1.15,0,0,0,0,2.3h17.07a1.15,1.15,0,1,0,0-2.3Zm34.13,0H327.59a1.15,1.15,0,0,0,0,2.3h17.07a1.15,1.15,0,0,0,0-2.3Zm34.12,0H361.72a1.15,1.15,0,0,0,0,2.3h17.06a1.15,1.15,0,1,0,0-2.3Zm34.12,0H395.84a1.15,1.15,0,0,0,0,2.3H412.9a1.15,1.15,0,1,0,0-2.3Zm34.13,0H430a1.15,1.15,0,0,0,0,2.3H447a1.15,1.15,0,1,0,0-2.3Zm35.05,1a1.13,1.13,0,0,0-.68-.5,14.84,14.84,0,0,0-3.65-.46H464.09a1.21,1.21,0,0,0-.57.15,1.15,1.15,0,0,0,.57,2.15h13.66a12.15,12.15,0,0,1,3.08.38,1,1,0,0,0,.29,0,1.15,1.15,0,0,0,1.11-.86A1.13,1.13,0,0,0,482.08,515.54Zm-308-1h-9.17a14.47,14.47,0,0,0-8.06,2.59,1.15,1.15,0,0,0,.66,2.09,1.12,1.12,0,0,0,.65-.21,12.18,12.18,0,0,1,6.56-2.17H174a1.15,1.15,0,0,0,0-2.3Zm318.09,14a1.13,1.13,0,0,0-1.15-1.12,1.17,1.17,0,0,0-1.14,1.17v17.07a1.15,1.15,0,0,0,2.29,0v-17.1l-1.15,0ZM151.9,532.18a1.15,1.15,0,0,0-1.14,1.15v17.06a1.15,1.15,0,1,0,2.29,0V533.33A1.15,1.15,0,0,0,151.9,532.18ZM491,561.61a1.14,1.14,0,0,0-1.14,1.14v17.07a1.15,1.15,0,0,0,2.29,0V562.75A1.15,1.15,0,0,0,491,561.61Zm-339.07,4.7a1.14,1.14,0,0,0-1.14,1.15v17.06a1.15,1.15,0,0,0,2.29,0V567.46A1.14,1.14,0,0,0,151.9,566.31ZM491,595.73a1.14,1.14,0,0,0-1.14,1.15v17.06a1.15,1.15,0,1,0,2.29,0V596.88A1.15,1.15,0,0,0,491,595.73Zm-339.07,4.7a1.14,1.14,0,0,0-1.14,1.15v17.06a1.15,1.15,0,1,0,2.29,0V601.58A1.14,1.14,0,0,0,151.9,600.43ZM491,629.85a1.15,1.15,0,0,0-1.14,1.15v17.06a1.15,1.15,0,1,0,2.29,0V631A1.16,1.16,0,0,0,491,629.85ZM151.9,634.56a1.14,1.14,0,0,0-1.14,1.14v17.07a1.15,1.15,0,0,0,2.29,0V635.7A1.14,1.14,0,0,0,151.9,634.56ZM491,664a1.14,1.14,0,0,0-1.14,1.15v17.06a1.15,1.15,0,1,0,2.29,0V665.13A1.15,1.15,0,0,0,491,664Zm-339.07,4.7a1.15,1.15,0,0,0-1.14,1.15v17.06a1.15,1.15,0,1,0,2.29,0V669.83A1.15,1.15,0,0,0,151.9,668.68ZM491,698.11a1.14,1.14,0,0,0-1.14,1.14v17.07a1.15,1.15,0,0,0,2.29,0V699.25A1.15,1.15,0,0,0,491,698.11Zm-339.07,4.7a1.14,1.14,0,0,0-1.14,1.15V721a1.15,1.15,0,1,0,2.29,0V704A1.14,1.14,0,0,0,151.9,702.81ZM491,732.23a1.15,1.15,0,0,0-1.14,1.15v4.67a11.68,11.68,0,0,1-5.08,9.58,1.15,1.15,0,0,0,.65,2.09,1.21,1.21,0,0,0,.65-.2,14,14,0,0,0,6.07-11.47v-4.67A1.16,1.16,0,0,0,491,732.23ZM162,749.41a11.82,11.82,0,0,1-9-11.33,1.13,1.13,0,0,0-.34-.81,1.12,1.12,0,0,0-.81-.34,1.15,1.15,0,0,0-1.14,1.15,14.11,14.11,0,0,0,10.69,13.55.9.9,0,0,0,.28,0,1.15,1.15,0,0,0,.29-2.26Zm33.8.39H178.76a1.15,1.15,0,0,0,0,2.3h17.06a1.15,1.15,0,1,0,0-2.3Zm34.13,0H212.88a1.15,1.15,0,0,0,0,2.3H230a1.15,1.15,0,0,0,0-2.3Zm34.12,0H247a1.15,1.15,0,0,0,0,2.3h17.06a1.15,1.15,0,0,0,0-2.3Zm34.13,0H281.13a1.15,1.15,0,0,0,0,2.3H298.2a1.15,1.15,0,0,0,0-2.3Zm34.12,0H315.26a1.15,1.15,0,0,0,0,2.3h17.06a1.15,1.15,0,0,0,0-2.3Zm34.13,0H349.39a1.15,1.15,0,0,0,0,2.3h17.06a1.15,1.15,0,0,0,0-2.3Zm34.12,0H383.51a1.15,1.15,0,0,0,0,2.3h17.06a1.15,1.15,0,0,0,0-2.3Zm34.13,0H417.63a1.15,1.15,0,0,0,0,2.3H434.7a1.15,1.15,0,0,0,0-2.3Zm34.13,0H451.76a1.15,1.15,0,0,0,0,2.3h17.07a1.15,1.15,0,0,0,0-2.3Z" fill="#f69782"/><path d="M510,516.92V749.76a14.33,14.33,0,0,1-14.34,14.33H491a14.33,14.33,0,0,0,14.34-14.33V516.92A14.35,14.35,0,0,0,491,502.58h4.73A14.35,14.35,0,0,1,510,516.92Z" fill="#f69782"/><path d="M414.36,602.33H542.54a6.31,6.31,0,0,1,6.31,6.31v54.48a6.31,6.31,0,0,1-6.31,6.31H414.36a33.55,33.55,0,0,1-33.55-33.55v0A33.55,33.55,0,0,1,414.36,602.33Z" fill="#d65f48"/><path d="M414.07,637.6a6.88,6.88,0,1,1-6.88-6.88A6.88,6.88,0,0,1,414.07,637.6Z" fill="#ffd38e"/><rect x="518.07" y="612.32" width="18.44" height="43.5" rx="5" fill="#f69782"/><path d="M310.08,311s-25.24,69.58-29.45,71.11-10.32,0-29-4.2-42.06-9.95-47-14.53-3.44-6.12-2.29-14.15S229.79,272,240.49,259s32.28-15.9,32.28-15.9,5.19,8.64,10.54,10.55,16.82,6.49,20.65,2.68,3.82-12.24,3.82-12.24l38.32-14.14-1.43,30.15-.21,4.51.79-.34c4.62-1.95,28.06-11.73,32.88-11.39,5.36.38,9.95,6.89,13.39,19.12S310.08,311,310.08,311Z" fill="#f16f5c"/><path d="M345.25,264.26v.46S302.43,280.4,291,278.11c-11.29-2.26-21.84-13-22.17-13.38.41.26,19.59,12.58,38.23,9.55,16.93-2.74,34.3-12.28,37.65-14.19l-.21,4.51Z" fill="#e8887e"/><path d="M310.08,311s-24.86,3.44-37.47,0-26-27.15-26-27.15,9.94,29.06,22.17,47.41a329.7,329.7,0,0,0,22.15,29.81Z" fill="#e8887e"/><path d="M316.55,226.13c-3.74,4.47-10.53,4.64-10.53,4.64l-.53,2.86c-.54,2.86,1.78,9.46,1.78,9.46s5.18,10.36,0,16.25-4.82.35-14.64-1.61-23.74-7.5-20.88-12.14.53-12.49.53-14.46-2.14-3.39-.17-5.89,1.43-6.07.89-8.39-1.43-1.61-6.07-4.29-8.75-10.52-2.5-16.42,12,2.86,12,2.86a26.85,26.85,0,0,1,4.64,5.53c2.14,3.4,1.79-.71,1.79-2.32s3.39-1.6.17-7.14,5.54-15.53,10.54-15,14.81-7.68,14.81-7.68,7.32,10,8,13.39-1.26,4.82,1.25,10S320.3,221.67,316.55,226.13Z" fill="#f79e86"/><path d="M307.27,243.09s-10-1.78-15.89-7.32S279.09,216.4,278.9,216c.23.35,7.54,11.8,10.52,13.55s16.6,1.25,16.6,1.25l-.53,2.86C305,236.49,307.27,243.09,307.27,243.09Z" fill="#c43f52"/><path d="M299.82,195.13c.36,1.48-.05,2.86-.92,3.07s-1.88-.81-2.25-2.29.05-2.86.92-3.08S299.45,193.64,299.82,195.13Z" fill="#c43f52"/><path d="M314.79,191c.32,1.27,0,2.45-.77,2.64s-1.59-.71-1.91-2,0-2.46.77-2.64S314.48,189.75,314.79,191Z" fill="#c43f52"/><path d="M312.89,208.46a.5.5,0,0,1-.34-.13.53.53,0,0,1-.06-.75c1-1.14,2.26-3.09,2.11-3.83-.08-.42-1.24-.82-2.18-1.14a9.53,9.53,0,0,1-3.27-1.61c-2-1.76-.21-5.55-.13-5.71a.54.54,0,0,1,.71-.26.55.55,0,0,1,.26.72c-.43.89-1.27,3.43-.13,4.46a9.14,9.14,0,0,0,2.91,1.39c1.44.49,2.68.92,2.88,1.94.3,1.51-1.9,4.21-2.35,4.73A.5.5,0,0,1,312.89,208.46Z" fill="#c43f52"/><path d="M310.93,218.37a15.56,15.56,0,0,1-5.85-1.3.54.54,0,0,1-.26-.71.53.53,0,0,1,.71-.26,14.75,14.75,0,0,0,5.4,1.2c2.65,0,4.65-2.54,4.67-2.56a.53.53,0,0,1,.75-.1.54.54,0,0,1,.09.75C316.35,215.51,314.1,218.37,310.93,218.37Z" fill="#c43f52"/><path d="M294.07,191.72a4.49,4.49,0,0,1,3.41-3.22c1-.22.59-1.77-.42-1.54a6.07,6.07,0,0,0-4.54,4.34.8.8,0,0,0,1.55.42Z" fill="#c43f52"/><path d="M311.59,185.3a1.3,1.3,0,0,1,1.45.52.81.81,0,0,0,1.14,0,.82.82,0,0,0,0-1.14,2.88,2.88,0,0,0-3-.93.8.8,0,0,0,.43,1.55Z" fill="#c43f52"/><rect x="602.18" y="452.17" width="121.19" height="93.51" rx="12" fill="#e9eef8"/><path d="M687.3,506.13h0Zm0,11.54h0Zm-2.88-20.2h0Zm0,2.89h0Zm-5.78,2.88h0Zm-2.88,23.09h0ZM670,503.25h0Zm-2.89-14.43Zm-8.65,31.73h0Zm0-5.76Zm0-5.78h0Zm0,2.89h0Zm0-31.74h0Z" fill="#2d4d9d"/><path d="M632.49,468.63V488.8h20.17V468.63Zm17.29,17.28h-14.4V471.52h14.4Z" fill="#2d4d9d"/><path d="M672.89,468.64v20.17h20.17V468.64Zm17.29,17.28h-14.4v-14.4h14.4Z" fill="#2d4d9d"/><path d="M632.5,509V529.2h20.17V509Zm17.28,17.29H635.39v-14.4h14.39Z" fill="#2d4d9d"/><path d="M667.13,477.27v-2.89H670v-5.74h-14.4v5.76h2.87v5.76h2.9v-2.87h2.88v2.88h2.88V483H670v-5.76Zm-2.93-2.9h-2.85v-2.85h2.85Zm-5.75,5.8h0Z" fill="#2d4d9d"/><path d="M646.9,494.59v2.88h5.77v2.88H644v5.77H632.5v-5.74h2.86v2.85h5.78v-8.64h5.76Z" fill="#2d4d9d"/><path d="M658.45,520.56v2.88h2.88v2.88h2.88v2.88h-8.63v-8.64Z" fill="#2d4d9d"/><path d="M641.14,494.59h-5.77v2.87H632.5v-5.74h8.63v2.87Z" fill="#2d4d9d"/><path d="M693.06,500.35H690.2V494.6h-2.88v-2.88h5.74Z" fill="#2d4d9d"/><path d="M646.91,494.59v-2.87h5.75v2.87h-5.75Z" fill="#2d4d9d"/><path d="M687.31,506.14v-2.88h2.86v2.87h-2.86Z" fill="#2d4d9d"/><path d="M690.2,509h2.86v2.86H690.2Z" fill="#2d4d9d"/><path d="M667.11,488.82V486H670v2.87h-2.87Z" fill="#2d4d9d"/><path d="M658.45,514.79h-2.87v-2.88h2.87v2.89Z" fill="#2d4d9d"/><path d="M687.31,517.68v-2.87h2.86v2.86h-2.86Z" fill="#2d4d9d"/><path d="M684.42,497.48h2.87v2.88h-2.87v-2.89Z" fill="#2d4d9d"/><path d="M670,526.32h-2.86v-2.86H670Z" fill="#2d4d9d"/><path d="M675.76,526.33v2.87h-2.87v-2.87h2.87Z" fill="#2d4d9d"/><path d="M693.06,529.21H690.2v-2.86h2.86Z" fill="#2d4d9d"/><path d="M687.3,520.55v-2.87h-2.87v-5.79h2.87v-5.75h-2.88v-5.77h-2.87v-2.9h2.87v-2.89h-2.89V491.7H667.1v-2.88h-2.89v-5.76h-2.88v5.74h-2.88v-8.63h-2.89v23.09h-8.64v2.87h8.65V509h2.88v2.88h2.87v2.89h-2.87v5.76h5.78v-2.86h14.4v2.88h-5.74v2.88h2.88v2.88h5.78v2.87h2.88v-5.77h8.63v-2.88ZM675.77,494.6h2.86v2.86h-2.86Zm-14.07,8.64V496h7.21v7.21ZM670,514.78h-2.85v-2.86H670Zm0-11.53h0Zm11.52,11.52h-5.75v-2.86H672.9V509h2.86v2.87h5.76Zm0-8.65h-2.87v-2.87h2.87Z" fill="#2d4d9d"/><path d="M670,503.24h0Z" fill="#2d4d9d"/><path d="M646.89,483h-8.63v-8.63h8.63Z" fill="#2d4d9d"/><path d="M678.66,483V474.4h8.63V483Z" fill="#2d4d9d"/><path d="M638.26,523.43V514.8h8.63v8.63Z" fill="#2d4d9d"/><rect x="642.59" y="204.13" width="221.79" height="171.13" rx="12" fill="#e9eef8"/><rect x="690.34" y="264.32" width="136.08" height="85.49" rx="10" fill="#92b2dd"/><polygon points="840.17 269.56 677.04 269.56 684.33 256.2 699.41 228.56 817.8 228.56 832.88 256.2 832.88 256.2 840.17 269.56" fill="#fff"/><path d="M709.67,269.56a16.32,16.32,0,0,1-32.63,0Z" fill="#e9eef8"/><path d="M742.29,269.56a16.31,16.31,0,0,1-32.62,0Z" fill="#2d4d9d"/><path d="M774.92,269.56a16.32,16.32,0,0,1-32.63,0Z" fill="#e9eef8"/><path d="M807.54,269.56a16.31,16.31,0,0,1-32.62,0Z" fill="#2d4d9d"/><path d="M840.17,269.56a16.32,16.32,0,0,1-32.63,0Z" fill="#e9eef8"/><polygon points="709.67 269.56 723.71 228.56 744.87 228.56 742.29 269.56 709.67 269.56" fill="#92b2dd"/><polygon points="807.54 269.56 793.5 228.56 772.35 228.56 774.92 269.56 807.54 269.56" fill="#92b2dd"/><path d="M735.29,303.25H720.9a7,7,0,0,0-7,7v39.56h28.39V310.25A7,7,0,0,0,735.29,303.25Z" fill="#2d4d9d"/><rect x="753.81" y="295.24" width="57.74" height="35.49" rx="4" fill="#2d4d9d"/><rect x="756.42" y="298.51" width="52.5" height="28.95" rx="4" fill="#92b2dd"/><ellipse cx="743.06" cy="135.66" rx="34.14" ry="34.12" fill="#ffd38e"/><ellipse cx="743.06" cy="135.66" rx="26.58" ry="26.57" fill="#f69782"/><path d="M741,148.65a13.42,13.42,0,0,1-4-1.15,11,11,0,0,1-3.14-2.15l1.37-2a1.56,1.56,0,0,1,.47-.45,1.29,1.29,0,0,1,.63-.17,1.67,1.67,0,0,1,.84.28l1,.66c.39.25.82.5,1.32.76a6.55,6.55,0,0,0,1.75.56l.68-8.08a25.92,25.92,0,0,1-2.53-.85,8.25,8.25,0,0,1-2.26-1.29,6.16,6.16,0,0,1-1.61-2,7.41,7.41,0,0,1-.06-5.75,7.14,7.14,0,0,1,1.59-2.35,8.7,8.7,0,0,1,2.58-1.7,8.84,8.84,0,0,1,3.52-.67l.2-2.29a1.23,1.23,0,0,1,.36-.78,1.1,1.1,0,0,1,.84-.35h1.65l-.31,3.54a10.09,10.09,0,0,1,3.3,1.09,12,12,0,0,1,2.42,1.74l-1.09,1.64a2.21,2.21,0,0,1-.5.54,1,1,0,0,1-.61.18,1.46,1.46,0,0,1-.64-.17c-.25-.11-.53-.25-.85-.41s-.67-.33-1.06-.5a7.12,7.12,0,0,0-1.28-.41l-.63,7.46c.87.27,1.72.56,2.57.88a9.13,9.13,0,0,1,2.29,1.23,6,6,0,0,1,1.65,1.88,5.77,5.77,0,0,1,.63,2.82,8.63,8.63,0,0,1-.56,3.15,7.53,7.53,0,0,1-1.63,2.59,7.89,7.89,0,0,1-2.64,1.83,10.4,10.4,0,0,1-3.59.85l-.22,2.65a1.25,1.25,0,0,1-.36.77,1.1,1.1,0,0,1-.84.35h-1.64Zm-1.82-19.43a2.78,2.78,0,0,0,.89,2.14,4.74,4.74,0,0,0,1,.72,10.43,10.43,0,0,0,1.26.57l.56-6.67a6.23,6.23,0,0,0-1.69.42,3.78,3.78,0,0,0-1.16.73,2.6,2.6,0,0,0-.65,1A3.06,3.06,0,0,0,739.21,129.22ZM748,141a2.82,2.82,0,0,0-.24-1.2,2.85,2.85,0,0,0-.69-.91,4.49,4.49,0,0,0-1-.68,10.35,10.35,0,0,0-1.3-.52L744.1,145a4.72,4.72,0,0,0,2.89-1.29A3.79,3.79,0,0,0,748,141Z" fill="#ffd38e"/><ellipse cx="612.05" cy="612.32" rx="34.14" ry="34.12" fill="#ffd38e"/><ellipse cx="612.05" cy="612.32" rx="26.58" ry="26.57" fill="#f69782"/><path d="M610,625.31a13.73,13.73,0,0,1-4-1.15,11.24,11.24,0,0,1-3.15-2.15l1.37-2a1.46,1.46,0,0,1,.48-.44,1.29,1.29,0,0,1,.62-.17,1.58,1.58,0,0,1,.85.28l1,.66a13.88,13.88,0,0,0,1.31.75,6.1,6.1,0,0,0,1.75.56l.69-8.07a26.1,26.1,0,0,1-2.54-.85,8.91,8.91,0,0,1-2.25-1.29,6,6,0,0,1-1.61-2,6.82,6.82,0,0,1-.62-3.07,7,7,0,0,1,.55-2.69,7.23,7.23,0,0,1,1.6-2.34,8.51,8.51,0,0,1,2.58-1.7,8.79,8.79,0,0,1,3.51-.67l.2-2.29a1.4,1.4,0,0,1,.36-.79,1.12,1.12,0,0,1,.85-.34h1.64L615,599a10.33,10.33,0,0,1,3.3,1.08,12,12,0,0,1,2.41,1.75l-1.08,1.64a2.42,2.42,0,0,1-.5.54,1.05,1.05,0,0,1-.62.18,1.65,1.65,0,0,1-.64-.17l-.85-.41c-.31-.17-.67-.33-1-.5a6.62,6.62,0,0,0-1.28-.41l-.63,7.46c.86.26,1.72.56,2.57.87a9.16,9.16,0,0,1,2.29,1.24,5.86,5.86,0,0,1,1.65,1.88,5.71,5.71,0,0,1,.63,2.82,8.85,8.85,0,0,1-.56,3.15,7.69,7.69,0,0,1-1.63,2.59,8.41,8.41,0,0,1-2.64,1.83,10.69,10.69,0,0,1-3.59.85l-.22,2.65a1.2,1.2,0,0,1-.36.76,1.1,1.1,0,0,1-.85.36h-1.64Zm-1.82-19.43a2.87,2.87,0,0,0,.23,1.21,3,3,0,0,0,.66.93,4.5,4.5,0,0,0,1,.72,9.19,9.19,0,0,0,1.26.57l.56-6.68a6.69,6.69,0,0,0-1.7.43,3.85,3.85,0,0,0-1.15.73,2.76,2.76,0,0,0-.66,1A3.06,3.06,0,0,0,608.2,605.88ZM617,617.67a2.79,2.79,0,0,0-.24-1.2,3.18,3.18,0,0,0-.69-.91,4.35,4.35,0,0,0-1-.68,10.2,10.2,0,0,0-1.29-.53l-.62,7.32a4.72,4.72,0,0,0,2.9-1.29A3.79,3.79,0,0,0,617,617.67Z" fill="#ffd38e"/><ellipse cx="210.87" cy="65.97" rx="34.14" ry="34.12" fill="#ffd38e"/><ellipse cx="210.87" cy="65.97" rx="26.58" ry="26.57" fill="#f69782"/><path d="M208.84,79a13.73,13.73,0,0,1-4-1.15,11.24,11.24,0,0,1-3.15-2.15l1.37-2a1.46,1.46,0,0,1,.48-.44,1.29,1.29,0,0,1,.62-.17,1.58,1.58,0,0,1,.85.28l1,.66a15.07,15.07,0,0,0,1.32.76,6.21,6.21,0,0,0,1.75.55l.68-8.07a25.92,25.92,0,0,1-2.53-.85A8.51,8.51,0,0,1,205,65.05a6.16,6.16,0,0,1-1.61-2,7.43,7.43,0,0,1-.06-5.76A7,7,0,0,1,205,54.91a8.7,8.7,0,0,1,2.58-1.7,8.8,8.8,0,0,1,3.52-.67l.2-2.29a1.23,1.23,0,0,1,.36-.78,1.09,1.09,0,0,1,.84-.35h1.64l-.3,3.54a10.33,10.33,0,0,1,3.3,1.08,12,12,0,0,1,2.41,1.75l-1.08,1.64a2.21,2.21,0,0,1-.5.54,1.05,1.05,0,0,1-.62.18,1.49,1.49,0,0,1-.64-.17l-.84-.41c-.32-.17-.67-.33-1.06-.5a6.41,6.41,0,0,0-1.28-.41l-.63,7.46c.87.27,1.72.56,2.57.88a9.13,9.13,0,0,1,2.29,1.23,5.86,5.86,0,0,1,1.65,1.88,5.71,5.71,0,0,1,.63,2.82,8.85,8.85,0,0,1-.56,3.15,7.53,7.53,0,0,1-1.63,2.59,8.14,8.14,0,0,1-2.64,1.83,10.63,10.63,0,0,1-3.59.85l-.22,2.65a1.25,1.25,0,0,1-.36.77,1.1,1.1,0,0,1-.84.35h-1.65ZM207,59.53a2.78,2.78,0,0,0,.89,2.14,4.74,4.74,0,0,0,1,.72,10.43,10.43,0,0,0,1.26.57l.56-6.68a6.6,6.6,0,0,0-1.69.43,3.78,3.78,0,0,0-1.16.73,2.6,2.6,0,0,0-.65,1A3.06,3.06,0,0,0,207,59.53Zm8.76,11.79a2.79,2.79,0,0,0-.24-1.2,2.85,2.85,0,0,0-.69-.91,4.49,4.49,0,0,0-1-.68,12.12,12.12,0,0,0-1.3-.53l-.62,7.32A4.72,4.72,0,0,0,214.8,74,3.79,3.79,0,0,0,215.78,71.32Z" fill="#ffd38e"/><ellipse cx="89.92" cy="230.36" rx="31.64" ry="31.62" fill="#e9eef8"/><ellipse cx="89.92" cy="230.36" rx="24.64" ry="24.62" fill="#92b2dd"/><path d="M88,242.4a12.86,12.86,0,0,1-3.67-1.07,10.47,10.47,0,0,1-2.91-2l1.27-1.89a1.34,1.34,0,0,1,.44-.41,1.18,1.18,0,0,1,.58-.16,1.53,1.53,0,0,1,.78.26l1,.61a12.33,12.33,0,0,0,1.22.7,5.61,5.61,0,0,0,1.62.52l.64-7.48c-.79-.22-1.57-.49-2.35-.79a7.85,7.85,0,0,1-2.09-1.2A5.46,5.46,0,0,1,83,227.62a6.87,6.87,0,0,1-.06-5.34,6.6,6.6,0,0,1,1.48-2.17,7.58,7.58,0,0,1,2.39-1.57,7.93,7.93,0,0,1,3.26-.62l.18-2.13a1.19,1.19,0,0,1,.33-.73,1.05,1.05,0,0,1,.79-.32h1.52L92.64,218a9.12,9.12,0,0,1,3,1,11,11,0,0,1,2.24,1.62l-1,1.52a2.08,2.08,0,0,1-.47.5.94.94,0,0,1-.57.17,1.59,1.59,0,0,1-.59-.16l-.78-.39-1-.46a7.23,7.23,0,0,0-1.19-.38l-.58,6.92c.8.24,1.59.51,2.38.81a8.45,8.45,0,0,1,2.12,1.14,5.49,5.49,0,0,1,1.53,1.75,5.25,5.25,0,0,1,.58,2.61,8.26,8.26,0,0,1-.51,2.92,7.2,7.2,0,0,1-1.52,2.4,7.62,7.62,0,0,1-2.44,1.7,9.93,9.93,0,0,1-3.33.78l-.2,2.46a1.19,1.19,0,0,1-.33.71,1.05,1.05,0,0,1-.79.32H87.74Zm-1.69-18a2.63,2.63,0,0,0,.22,1.12,2.7,2.7,0,0,0,.61.86,4.44,4.44,0,0,0,.93.67,9.11,9.11,0,0,0,1.17.53l.51-6.19a5.89,5.89,0,0,0-1.57.4,3.62,3.62,0,0,0-1.07.67,2.66,2.66,0,0,0-.61.9A3,3,0,0,0,86.35,224.39Zm8.12,10.93a2.53,2.53,0,0,0-.22-1.11,2.61,2.61,0,0,0-.64-.85,4.2,4.2,0,0,0-1-.63,10.33,10.33,0,0,0-1.2-.49L90.88,239a4.29,4.29,0,0,0,2.68-1.19A3.49,3.49,0,0,0,94.47,235.32Z" fill="#e9eef8"/><path d="M672.35,725.67V744a1.52,1.52,0,0,1-1.45,1.59h-125a1.53,1.53,0,0,1-1.45-1.59V725.67a1.54,1.54,0,0,1,1.45-1.59h125A1.53,1.53,0,0,1,672.35,725.67Z" fill="#ffd38e"/><rect x="578.63" y="724.08" width="3.87" height="21.46" fill="#f69782"/><rect x="556.23" y="724.08" width="3.87" height="21.46" fill="#f69782"/><rect x="604.74" y="724.08" width="3.87" height="21.46" fill="#f69782"/><rect x="630.84" y="724.08" width="3.87" height="21.46" fill="#f69782"/><rect x="656.95" y="724.08" width="3.87" height="21.46" fill="#f69782"/><path d="M672.35,744.23v18.29a1.52,1.52,0,0,1-1.45,1.59h-125a1.53,1.53,0,0,1-1.45-1.59V744.23a1.54,1.54,0,0,1,1.45-1.59h125A1.53,1.53,0,0,1,672.35,744.23Z" fill="#f69782"/><rect x="567.51" y="742.64" width="3.87" height="21.46" fill="#d65f48"/><rect x="593.62" y="742.64" width="3.87" height="21.46" fill="#d65f48"/><rect x="619.72" y="742.64" width="3.87" height="21.46" fill="#d65f48"/><rect x="645.83" y="742.64" width="3.87" height="21.46" fill="#d65f48"/><path d="M672.35,646.07v18.29a1.52,1.52,0,0,1-1.45,1.58h-125a1.52,1.52,0,0,1-1.45-1.58V646.07a1.54,1.54,0,0,1,1.45-1.59h125A1.53,1.53,0,0,1,672.35,646.07Z" fill="#ffd38e"/><rect x="578.63" y="644.48" width="3.87" height="21.46" fill="#f69782"/><rect x="556.23" y="644.48" width="3.87" height="21.46" fill="#f69782"/><rect x="604.74" y="644.48" width="3.87" height="21.46" fill="#f69782"/><rect x="630.84" y="644.48" width="3.87" height="21.46" fill="#f69782"/><rect x="656.95" y="644.48" width="3.87" height="21.46" fill="#f69782"/><path d="M672.35,664.63v18.29a1.52,1.52,0,0,1-1.45,1.58h-125a1.52,1.52,0,0,1-1.45-1.58V664.63a1.54,1.54,0,0,1,1.45-1.59h125A1.53,1.53,0,0,1,672.35,664.63Z" fill="#f69782"/><rect x="567.51" y="663.04" width="3.87" height="21.46" fill="#d65f48"/><rect x="593.62" y="663.04" width="3.87" height="21.46" fill="#d65f48"/><rect x="619.72" y="663.04" width="3.87" height="21.46" fill="#d65f48"/><rect x="645.83" y="663.04" width="3.87" height="21.46" fill="#d65f48"/><path d="M672.35,685.65v18.29a1.52,1.52,0,0,1-1.45,1.58h-125a1.52,1.52,0,0,1-1.45-1.58V685.65a1.54,1.54,0,0,1,1.45-1.59h125A1.53,1.53,0,0,1,672.35,685.65Z" fill="#ffd38e"/><rect x="578.63" y="684.06" width="3.87" height="21.46" fill="#f69782"/><rect x="556.23" y="684.06" width="3.87" height="21.46" fill="#f69782"/><rect x="604.74" y="684.06" width="3.87" height="21.46" fill="#f69782"/><rect x="630.84" y="684.06" width="3.87" height="21.46" fill="#f69782"/><rect x="656.95" y="684.06" width="3.87" height="21.46" fill="#f69782"/><path d="M672.35,704.21V722.5a1.52,1.52,0,0,1-1.45,1.58h-125a1.52,1.52,0,0,1-1.45-1.58V704.21a1.54,1.54,0,0,1,1.45-1.59h125A1.53,1.53,0,0,1,672.35,704.21Z" fill="#f69782"/><rect x="567.51" y="702.62" width="3.87" height="21.46" fill="#d65f48"/><rect x="593.62" y="702.62" width="3.87" height="21.46" fill="#d65f48"/><rect x="619.72" y="702.62" width="3.87" height="21.46" fill="#d65f48"/><rect x="645.83" y="702.62" width="3.87" height="21.46" fill="#d65f48"/><path d="M771.84,552.83A59.42,59.42,0,0,0,754.29,568c-7.51,9.9-17.42,57.72-19.81,59.76s-19.18-18.34-19.18-18.34l-18.73,13.73s29.51,38.14,37.64,38.45,26.23-17.93,26.23-17.93Z" fill="#f69782"/><path d="M546.35,757.49s-5,2.56-4.27,5.81-1.37,6.66-4.1,8.19-23.39-1.53-31.25,0-34.15,4.79-37.74,1.71-.17-6.75,1.71-7.21,9.74-.81,12.47-2.52,17.72-7.34,23.72-8.37,17.43-3.76,20.85-6.83a94.54,94.54,0,0,0,7.17-7.48Z" fill="#762837"/><path d="M548,771.56s-5,2.56-4.27,5.8-1.36,6.66-4.1,8.2-23.39-1.54-31.25,0-34.15,4.78-37.73,1.71-.17-6.75,1.7-7.22,9.74-.81,12.47-2.52,17.72-7.34,23.72-8.37,17.43-3.75,20.85-6.83a94.54,94.54,0,0,0,7.17-7.48Z" fill="#c43f52"/><path d="M747.76,668.87s-58.11-27.43-62.5-25-153.64,90.84-154,96.65,9.56,18.1,13,18.1,46.11-13.66,87.09-42.69,44.4-30.06,46.45-27,18.44,38.76,48.84,47.9,87.43-.09,87.43-.09S760.45,670.49,747.76,668.87Z" fill="#23375c"/><path d="M814.06,736.72S776.15,771.9,742,760.28s-65.24-61.13-68.31-61.81-18.44,18.44-58.4,42.35S549,772.24,548,771.56s-13.32-15.37-11.27-18.11,138-119.19,149.93-112.36,71.63,38.55,71.63,38.55S822.94,714.52,814.06,736.72Z" fill="#2d4d9d"/><path d="M770.94,451.55s-13.83,4.1-17.67,15.37-2.67,27.92-6.08,33.55,2,22.54,8.12,30,15.63,10.76,15.63,17.93,7.94,17.67,21.52,13.06,40.47,10.17,34.57,29-.76,31.68,13.07,31.17,26.12,3.58,31.76-15.11-7.69-22,0-33,18.49-30,1.43-37.91-19.36-4.09-12.45-19.21-4.81-30-16.11-34.32-16.67-2.82-19.23-14.86-24.59-22-33.81-21.77S770.94,451.55,770.94,451.55Z" fill="#0e213f"/><path d="M687.44,577l23.48-3.51,7.85,44.91-22.2,4.78-11.23-43A2.56,2.56,0,0,1,687.44,577Z" fill="#0e213f"/><path d="M841.72,608.31c-3.07,6.15-7.51,8.19-9.91,11.27l0,0c-2.3,3.38,3.45,44.47,2.08,70.65s-15.37,44.74-19.8,46.45-13-22.54-29.71-35.52-34.5-29-34.5-29c-2.75-2.44-2.89-6.27-2.09-10.56s2.45-8.79,3.46-13c1.68-7-.34-22.87-2.43-35.3-.45-2.66-.91-5.17-1.33-7.39-2.39-12.64,11.95-36.2,15-44.4s15-10.59,15-10.59a29.49,29.49,0,0,0,1.37,7.17c1.37,4.78,9.9,3.76,13.66-1s16.73-15,19.81-15,25.27,2.05,31.76,12.3S844.79,602.16,841.72,608.31Z" fill="#ffd38e"/><path d="M831.81,619.58l0,0A117.23,117.23,0,0,1,803,644.17c-17.93,10.76-55.2,17.44-55.2,17.44.78-4.17,2.45-8.79,3.46-13,1.68-7-.34-22.87-2.43-35.3Z" fill="#f69782"/><path d="M821.52,563.53a72.61,72.61,0,0,1-24.39,21.21c-15.51,8-46.43,2.8-46.43,2.8l-1.43,4.12s6,15.28,35.22,7.43S831.72,575.79,821.52,563.53Z" fill="#f69782"/><path d="M830.88,558.6a11.2,11.2,0,0,0-10.79,7.89c-2.72,8.7-8.57,23.07-18,25.43-13.66,3.41-70.69-3.76-73.77,2s-6.48,22.89-1.7,24.94,59.08,12.29,79.57,9.9,25.62-9.22,25.62-9.22S861.5,559.06,830.88,558.6Z" fill="#ffd38e"/><path d="M716.08,591a56.88,56.88,0,0,0-8.76-.54c-.66,0-9-.31-7.67,1.42,2.22,2.9,2.87,5.8-.19,5.8s-9.21-2.73-10.06,0,1.54,13,3.59,14,14.51.86,19.29-1.53,13.66,1.36,13.66,1.36,5.81-11.95,4.44-13.83c-1-1.44-3.57-1.73-5.18-2-2.59-.47-3.25-.43-4.9-2.57A6.93,6.93,0,0,0,716.08,591Z" fill="#c43f52"/><path d="M762.66,485.7S757,499,759.41,504.31s4.1,7.86,2.39,11.45,1,8.36,2.91,13,7.17,12.3,9,12.64a31.1,31.1,0,0,0,5.8,0s1.88,6.66-2,9.56-7.17,14.86-1.53,17.42,17.93,2.32,23.39-4.82,11.86-21.21,11.86-21.21-2.13-.78-4.17-5.39-.69-8.25.17-9.16a30.15,30.15,0,0,0,4-7.06c1.46-3.42-1.13-9.39,0-10.25s5-4.61,6.07-9.22-3.24-11.78-6.49-10.42-3.41,2.74-4.44,2.4-13.49,2.56-21.17-.69-16.91-11.1-15-9.22,8.54,6.83,7.51,7S766.58,488.78,762.66,485.7Z" fill="#c43f52"/><path d="M779.56,541.37s8.41-.68,13.66-3.5,10.63-8.71,10.63-8.71S785,554.48,783,552.83,779.56,541.37,779.56,541.37Z" fill="#762837"/><path d="M770,522.5a.51.51,0,0,1-.42-.21,35.67,35.67,0,0,1-2.27-3.4c-.58-1.16,1.11-2.45,2.9-3.8.48-.37.94-.72,1.33-1.05.88-.74-.9-3.89-2.38-5.78a.51.51,0,0,1,.08-.72.52.52,0,0,1,.72.09c.72.91,4.19,5.55,2.24,7.19-.41.35-.88.71-1.37,1.08-.77.58-2.8,2.13-2.6,2.53a33.32,33.32,0,0,0,2.18,3.25.52.52,0,0,1-.11.72A.49.49,0,0,1,770,522.5Z" fill="#762837"/><path d="M773.19,531.41a8.49,8.49,0,0,1-4.63-1.85.54.54,0,0,1-.07-.73.53.53,0,0,1,.73-.06s2.75,2.23,5,1.44a21,21,0,0,0,5-2.86.51.51,0,1,1,.63.8,21.41,21.41,0,0,1-5.31,3A4.21,4.21,0,0,1,773.19,531.41Z" fill="#762837"/><path d="M781.59,507.07c0,2-.91,3.65-2,3.65s-2-1.64-2-3.65.91-3.65,2-3.65S781.59,505.05,781.59,507.07Z" fill="#0e213f"/><path d="M767,508c0,1.79-.74,3.24-1.65,3.24s-1.65-1.45-1.65-3.24.74-3.25,1.65-3.25S767,506.15,767,508Z" fill="#0e213f"/><path d="M778,499.47a3.06,3.06,0,0,1,.86-.61c.57-.21.71.05,1.08.37l1.48,1.27c.74.63,1.84-.45,1.08-1.09a11,11,0,0,0-2.7-2.17c-1-.38-2.15.5-2.88,1.14s.34,1.74,1.08,1.09Z" fill="#0e213f"/><path d="M761.92,501.18a2.12,2.12,0,0,1,2.81-1.14c.91.37,1.31-1.12.4-1.48a3.63,3.63,0,0,0-4.69,2.21c-.34.93,1.15,1.34,1.48.41Z" fill="#0e213f"/><path d="M677.23,764.09s89.12,2.26,89.12-52.22V657.39H932.52v59.1a47.6,47.6,0,0,1-47.6,47.6Z" fill="#e8887e"/><path d="M913,716.14a49.88,49.88,0,0,1-49.85,48H749.38s42.44-8.06,42.44-39.41v-8.52a27.16,27.16,0,0,0,16.8-39.66h87.67A27.15,27.15,0,0,0,913,716.14Z" fill="#f9b9b3"/><path d="M184.44,650c.61-1.76-1.59-7.63-1.76-8.29s3.61,1,3.61,1a40.72,40.72,0,0,0,3.87-5.25c1.66-2.76,7.65-13.57,7.07-16.58s-5.85-4.31-6.66-4.74,5.17-2.22,6.57-3.2,1.52.06-1-14.19-10.76-27.53-17.09-31.83S153,599.92,153,604s6,5.91,6,5.91-4.13,1.24-6,1.57-2.63.7-2,8.53,9.43,13.94,9.43,13.94a34.59,34.59,0,0,0-4,1c-2.08.65-2.43,1,.47,8.11s11.31,24.36,11.31,24.36S183.84,651.75,184.44,650Zm-23.72-50.32c3.12-6.28,9.19-1,11.69,2.24a7.26,7.26,0,0,1,.48.75c1.72,3,5.35,11.77,2.84,13.42C173.85,617.32,156.57,608,160.72,599.67ZM158,619.76c1.07-6.16,4.83-1.82,4.83-1.82s11.52,7.74,9,10.24S157,625.92,158,619.76Zm6.24,17.79c.23-5.07,7.54.21,7.54.21C172.7,640.17,164,642.62,164.26,637.55Zm17.27-24.85c-1.1-4.93,5.93-15.17,5.93-15.17,3.21-4,6.56,2.57,5,6.36S182.64,617.63,181.53,612.7Zm1.95,19.4c-3.24-1.28.27-9,3.71-11.48,1.61-1.17,3.2-1.2,4.07,1.09.55,1.43-.2,3.31-.88,4.65C189.35,628.42,186.11,633.14,183.48,632.1Z" fill="#2e738f"/><path d="M206.21,694.09H111.48a6.6,6.6,0,0,0-6.29,7.22c1,17.28,6.25,59.82,33.57,62.63v.15h40.17v-.15c27.33-2.81,32.57-45.35,33.58-62.63A6.61,6.61,0,0,0,206.21,694.09Z" fill="#2d4d9d"/><path d="M192,675.27c1.82-1.64,3.07-9.81,3.31-10.68s3.51,3.48,3.51,3.48a54.08,54.08,0,0,0,7.84-3.56c3.7-2.11,17.58-10.71,18.85-14.55s-4-8.74-4.62-9.75,7.39.77,9.63.54,1.73,1,8-17,5.35-38.67.83-47.7S188,597.27,185.47,602s3.08,10.67,3.08,10.67-5.55-1.23-8-2.08-3.48-.89-7.82,8.54,1.9,22.15,1.9,22.15a44.42,44.42,0,0,0-5.21-1.45c-2.81-.6-3.42-.45-4.69,9.65s-1.24,27.09-1.24,27.09S190.2,676.92,192,675.27Zm5.09-73.3c7.65-5.22,11.25,4.76,12,10.12a8.6,8.6,0,0,1,.08,1.18c.05,4.56-1.43,17-5.38,17.31C200.88,630.8,187,608.92,197.12,602ZM181.06,623.4c5.2-6.41,6.74,1,6.74,1s8.29,16.35,3.79,17.61S175.86,629.8,181.06,623.4Zm-4.27,24.53c3.53-5.7,8.54,5.09,8.54,5.09C184.82,656.38,173.25,653.62,176.79,647.93Zm35.92-17.51c1.91-6.39,16.62-13.67,16.62-13.67,6.3-2.59,5.9,7.2,1.7,10.59S210.81,636.81,212.71,630.42ZM202.45,654c-2.91-3.57,6.1-10.18,11.68-10.85,2.6-.31,4.46.68,4,3.9-.3,2-2.37,3.67-4,4.78C211.58,653.58,204.81,656.93,202.45,654Z" fill="#e8887e"/><path d="M151.19,647.24c-1.52-2-9.76-4-10.62-4.32s3.86-3.27,3.86-3.27a56,56,0,0,0-3-8.32c-1.83-4-9.4-18.86-13.21-20.49s-9.26,3.29-10.35,3.86,1.44-7.47,1.39-9.77,1.22-1.67-16.65-9.64-39-8.83-48.61-5,17.21,54.23,21.81,57.25S87,645.34,87,645.34s-1.74,5.56-2.82,7.93-1.2,3.47,8,8.72S115,662,115,662a47.17,47.17,0,0,0-1.93,5.19c-.85,2.81-.75,3.45,9.44,5.62s35.86,5.8,35.86,5.8S152.7,649.25,151.19,647.24ZM76.84,635.66c-4.66-8.25,5.83-11.06,11.37-11.39a8.75,8.75,0,0,1,1.21,0c4.65.33,17.24,2.93,17.19,7C106.58,634.33,83,646.63,76.84,635.66ZM97.3,653.91c-6.08-5.86,1.62-6.79,1.62-6.79s17.4-7,18.3-2.33S103.39,659.78,97.3,653.91Zm24.66,6.5c-5.51-4.1,5.94-8.28,5.94-8.28C131.29,653,127.46,664.51,122,660.41Zm-14.74-38.18c-6.36-2.5-12.5-18.14-12.5-18.14-2.09-6.66,7.86-5.4,11-.82S113.58,624.73,107.22,622.23Zm23.21,12.52c-3.89,2.66-9.86-7.11-10.05-12.85-.1-2.69,1.08-4.5,4.31-3.74,2,.48,3.55,2.74,4.54,4.51C130.76,625.4,133.59,632.6,130.43,634.75Z" fill="#2e738f"/><path d="M169.47,645.68c-.57-3.11-9.46-10.09-10.32-10.95s6.88-1.39,6.88-1.39a63.27,63.27,0,0,0,1.72-10.94c.29-5.45.57-26.38-3.08-30.39s-13.55-1.72-15.27-1.72,6.59-7.46,8-10,2.58-1.15-14.34-20.36-42.44-32.4-56.78-33.73-13.76,70.15-10,76.17,15.19,4,15.19,4-5.73,5.17-8.6,7.17-3.73,3.16,4.3,14.34S115.28,641,115.28,641a63.64,63.64,0,0,0-5.74,4.64c-2.87,2.62-3.15,3.39,8,11.71s38.66,10,38.66,10S170.05,648.78,169.47,645.68Zm-84.3-56c-.43-11.86,14.33-8.89,21.39-6.05a13.39,13.39,0,0,1,1.47.74c5.52,3.07,19.38,13.25,16.71,17.72C122.73,605.48,85.74,605.48,85.17,589.71Zm13.47,32.12c-3.72-10,6.38-6.6,6.38-6.6s26,2.3,24.1,8S102.37,631.86,98.64,621.83Zm26.25,21.51c-4.15-7.75,12.68-5.74,12.68-5.74C141.22,640.47,129,651.08,124.89,643.34Zm6.44-50.91c-6.23-6.46-3.72-27.38-3.72-27.38,1.72-8.6,13.19-1.43,14,5.45S137.57,598.89,131.33,592.43Zm20.57,27.36c-6.52.69-7.58-13.61-4.11-20.1,1.62-3,4.23-4.36,7.74-1.63,2.18,1.69,2.61,5.09,2.69,7.63C158.34,609.6,157.19,619.23,151.9,619.79Z" fill="#f16f5c"/><path d="M205.4,630.14a147.71,147.71,0,0,1-21.13,26.55c-11.34,11.09-22.81,21.84-25.31,24.18-1.7-8.71-4.16-20.71-7-32.79-5.4-23.05-21.69-50.64-21.85-50.92l-1,.59c.16.27,16.36,27.71,21.73,50.59s9.41,45.62,9.45,45.85l1.13-.2c0-.1-.84-4.71-2.22-11.84l0,0c.13-.12,13.07-12.19,25.83-24.67a148.33,148.33,0,0,0,21.31-26.79Z" fill="#2d4d9d"/></g></g></svg>